<svg xmlns="http://www.w3.org/2000/svg" width="400" height="400" viewBox="0 0 400 400">
  <defs>
    <linearGradient id="a" x1="3.761%" y1="100%" y2="0%">
      <stop offset="0%" stop-color="#1E3888"/>
      <stop offset="20%" stop-color="#2E4D82"/>
      <stop offset="40%" stop-color="#34627B"/>
      <stop offset="60%" stop-color="#347773"/>
      <stop offset="80%" stop-color="#2C8D6B"/>
      <stop offset="100%" stop-color="#11A361"/>
    </linearGradient>
  </defs>
  <g fill="none" fill-rule="evenodd" stroke="url(#a)" transform="translate(20 -39)">
    <path d="M123.142792,365.492971 C154.779283,372.421281 181.793063,366.752313 205.396674,350.223295 C224.612404,336.767001 240.816912,316.912613 256.808993,289.727508 C260.903009,282.768047 264.8903,275.508902 269.476926,266.776522 C271.702296,262.539687 279.067442,248.267814 280.461865,245.6049 C284.639237,237.627423 291.356611,229.704294 300.85197,221.078128 C308.044547,214.543949 314.585053,209.363674 329.439481,198.103731 C329.98125,197.693065 329.98125,197.693065 330.522924,197.282432 C344.981958,186.320662 351.822257,180.878539 358.954976,174.328498 C368.256801,165.786548 374.760496,157.944163 378.674503,150.086046 C387.887232,131.589738 382.502158,112.992849 359.175193,92.079686 C342.031004,76.7095247 325.395974,72.7570919 308.306786,78.1840206 C294.980754,82.4159024 282.849599,91.2616994 265.732902,107.424365 C263.419661,109.608673 255.119942,117.574329 255.887599,116.840734 C252.04365,120.51412 249.236102,123.12588 246.541818,125.501931 C239.703041,131.532949 234.24945,135.395445 229.234058,137.488435 C217.144365,142.533625 207.767769,136.885009 199.813619,117.857853 C184.732843,81.7830618 158.256052,70.624762 125.130669,81.2310214 C97.1532735,90.1889711 66.2167975,114.72701 44.3730064,143.613984 C40.4529006,148.798065 29.0968701,163.552827 28.1946291,164.737688 C22.896015,171.696052 19.543327,176.350493 16.9431095,180.461876 C10.9563687,189.927924 9.2353021,196.344497 11.2762897,202.622171 C13.8569916,210.559899 22.0682349,218.382632 43.2061961,233.903955 C52.6703236,240.853338 58.5388946,249.643347 61.9122463,260.807623 C64.4609016,269.242525 65.3153705,276.422968 66.3505851,292.888888 C66.3641471,293.104603 66.3641471,293.104603 66.3777136,293.320308 C67.0797856,304.480924 67.5614754,309.732979 68.6468436,315.846272 C70.067349,323.84721 72.2917622,330.561813 75.7050333,336.496553 C83.7810874,350.53859 98.6206234,360.12268 123.142792,365.492971 Z" transform="scale(1 -1) rotate(-72.642 -105.468 0)"/>
    <path d="M121.326202,363.947517 C152.292985,370.73439 178.733596,365.184404 201.835906,348.998864 C220.643954,335.821894 236.504432,316.378579 252.156817,289.755552 C256.163711,282.940254 260.066148,275.831455 264.555195,267.279854 C266.733127,263.13091 273.941613,249.154429 275.306583,246.546242 C279.395968,238.73224 285.971856,230.971992 295.267157,222.523496 C302.307876,216.124188 308.710204,211.050997 323.250764,200.02391 C323.78087,199.6219 323.78087,199.6219 324.310884,199.219923 C338.464144,188.48504 345.159456,183.155801 352.140963,176.741543 C361.245195,168.37703 367.610459,160.697635 371.440784,153.003059 C380.455859,134.893063 375.184667,116.683929 352.351715,96.2032463 C335.570948,81.151248 319.290525,77.2802359 302.565891,82.5931618 C289.523258,86.7364239 277.649682,95.3983961 260.896077,111.225957 C258.63194,113.364946 250.509373,121.164401 251.259218,120.447478 C247.496584,124.044912 244.748337,126.60274 242.11093,128.929735 C235.416093,134.836615 230.077015,138.619677 225.166282,140.669709 C213.325836,145.612617 204.141156,140.076436 196.351714,121.436395 C181.589027,86.1094643 155.67594,75.1819723 123.255322,85.5658645 C95.8711409,94.3366534 65.590663,118.365543 44.2107941,146.65402 C40.3737022,151.731014 29.2581476,166.180967 28.3758581,167.340237 C23.1897881,174.154389 19.9083566,178.712286 17.3634338,182.738302 C11.5049218,192.006349 9.82080831,198.287616 11.8169612,204.432158 C14.3418357,212.204208 22.379376,219.865637 43.0721175,235.068165 C52.3388676,241.876255 58.0854063,250.487286 61.3888839,261.423628 C63.8845887,269.685795 64.721534,276.718756 65.735978,292.846056 C65.7492698,293.057366 65.7492698,293.057366 65.7625661,293.268666 C67.1518342,315.342142 68.8830053,325.094306 74.8944501,335.550938 C82.7994051,349.301243 97.3238681,358.687015 121.326202,363.947517 Z" transform="scale(1 -1) rotate(-74.317 -101.66 0)"/>
    <path d="M119.453751,362.326049 C149.750823,368.971488 175.618262,363.540484 198.219269,347.69842 C216.619636,334.800774 232.136082,315.768526 247.44877,289.707572 C251.368544,283.036435 255.186126,276.077981 259.577595,267.707156 C261.708088,263.646103 268.759915,249.965011 270.095431,247.411551 C274.096828,239.761022 280.53123,232.163653 289.626472,223.892824 C296.515333,217.628385 302.779482,212.662277 317.006175,201.868044 C317.524618,201.47469 317.524618,201.47469 318.042971,201.081368 C331.890458,190.573372 338.440782,185.357015 345.271077,179.078538 C354.177717,170.891463 360.40455,163.375056 364.151193,155.844019 C372.968618,138.120327 367.811305,120.298939 345.472361,100.250731 C329.055015,85.5168941 313.129203,81.7273033 296.769125,86.9262255 C284.009892,90.9808676 272.393896,99.4590159 256.003385,114.951473 C253.788351,117.045144 245.842933,124.678401 246.574969,123.978149 C242.89365,127.499632 240.204705,130.003529 237.624175,132.281468 C231.073277,138.064213 225.848712,141.767841 221.042638,143.774917 C209.451434,148.615548 200.458669,143.191796 192.833935,124.938864 C178.389336,90.3597849 153.039953,79.6631009 121.324105,89.8246254 C94.5331388,98.4082538 64.9086599,121.927997 43.9927136,149.617982 C40.2386359,154.587891 29.3635573,168.733037 28.5012189,169.866716 C23.4276929,176.536657 20.2175179,180.998012 17.7278897,184.938662 C11.997604,194.008712 10.3504427,200.154677 12.3017648,206.166094 C14.7708142,213.772466 22.6346518,221.272593 42.8821745,236.156331 C51.951546,242.82313 57.576051,251.255186 60.8096541,261.963595 C63.2524081,270.053026 64.0718301,276.938508 65.065504,292.727191 C65.0785256,292.934096 65.0785256,292.934096 65.0915516,293.14099 C66.4522032,314.748275 68.1465157,324.29425 74.0280033,334.529303 C81.7618609,347.987879 95.971252,357.175336 119.453751,362.326049 Z" transform="scale(1 -1) rotate(-76.044 -97.768 0)"/>
    <path d="M117.532396,360.613979 C147.159753,367.117984 172.454017,361.805963 194.553718,346.307374 C212.546403,333.68905 227.718818,315.067866 242.691809,289.568979 C246.524462,283.042002 250.25719,276.233891 254.55108,268.04384 C256.634135,264.070677 263.529303,250.684971 264.835365,248.186237 C268.748773,240.699179 275.041688,233.264686 283.936871,225.171523 C290.673874,219.04195 296.799843,214.182925 310.712667,203.621542 C311.219449,203.236844 311.219449,203.236844 311.726141,202.852177 C325.267854,192.571066 331.673191,187.467591 338.352273,181.324893 C347.06132,173.315254 353.149724,165.961834 356.812685,158.594335 C365.432464,141.25694 360.389026,123.823288 338.544085,104.207547 C322.490162,89.7918702 306.918962,86.0837014 290.923445,91.1686188 C278.447613,95.1346407 267.089197,103.428966 251.061781,118.586322 C248.895849,120.634675 241.12758,128.101736 241.841809,127.418154 C238.241804,130.863687 235.612161,133.313653 233.088509,135.542538 C226.68155,141.20115 221.571497,144.825346 216.870081,146.789467 C205.528115,151.527825 196.727265,146.216496 189.267239,128.350666 C175.140725,94.5194304 150.355047,84.0535547 119.343971,93.9927107 C93.1462226,102.389179 64.1777434,125.399781 43.7257204,152.491278 C40.0546571,157.354102 29.4200543,171.194447 28.577667,172.302533 C23.6166848,178.828265 20.4777661,183.193078 18.0434323,187.048364 C12.4413704,195.92042 10.8311603,201.931089 12.737656,207.809385 C15.1508826,215.250084 22.8410176,222.588909 42.643323,237.153862 C51.5153143,243.679372 57.0177842,251.932454 60.1815123,262.412932 C62.5713153,270.32963 63.3732141,277.067632 64.3461184,292.517702 C64.3588699,292.720202 64.3588699,292.720202 64.3716256,292.92269 C65.7036614,314.063792 67.3611159,323.403581 73.1126485,333.417061 C80.6754108,346.583912 94.5697307,355.573054 117.532396,360.613979 Z" transform="scale(1 -1) rotate(-77.821 -93.808 0)"/>
    <path d="M115.570178,358.797734 C144.527818,365.160307 169.248902,359.967268 190.847296,344.812155 C208.432298,332.473149 223.260682,314.263025 237.893976,289.326198 C241.639508,282.94338 245.287381,276.28561 249.483694,268.276332 C251.519311,264.391057 258.257818,251.300733 259.534426,248.856725 C263.359844,241.533136 269.511272,234.261517 278.206395,226.346016 C284.791539,220.351309 290.779329,215.599364 304.378285,205.27083 C304.873405,204.894787 304.873405,204.894787 305.368437,204.518776 C318.604374,194.464547 324.864724,189.473952 331.392594,183.467033 C339.904049,175.634827 345.854022,168.444394 349.433302,161.24043 C357.855439,144.289324 352.925874,127.243397 331.574931,108.060117 C315.884429,93.9625983 300.667846,90.3358522 285.036892,95.3067637 C272.844463,99.184165 261.743628,107.294669 246.079307,122.116926 C243.962479,124.119961 236.371354,131.420829 237.067779,130.753916 C233.549089,134.1235 230.978748,136.519537 228.511974,138.699367 C222.248954,144.233848 217.253413,147.778614 212.656653,149.699781 C201.56392,154.335871 192.954985,149.13696 185.659668,131.658225 C171.851235,98.5748225 147.629264,88.3397553 117.322964,98.0565423 C91.7184351,106.265851 63.4059566,128.767314 43.4178573,155.260329 C39.8298086,160.016071 29.4356818,173.551617 28.6132452,174.63411 C23.7648067,181.015636 20.6971442,185.283908 18.3181047,189.05383 C12.844264,197.727898 11.2710039,203.603275 13.1326776,209.348456 C15.4900841,216.623484 23.0065168,223.801009 42.363606,238.047183 C51.0382157,244.431407 56.418649,252.505516 59.5125015,262.758065 C61.8493532,270.50203 62.633729,277.092555 63.5858643,292.204015 C63.5983457,292.402109 63.5983457,292.402109 63.6108312,292.600193 C64.9142518,313.275118 66.534849,322.408726 72.156429,332.200638 C79.548098,345.075767 93.1273478,353.866595 115.570178,358.797734 Z" transform="scale(1 -1) rotate(-79.641 -89.793 0)"/>
    <path d="M113.57617,356.864881 C141.86409,363.086022 166.01199,358.011967 187.109073,343.200328 C204.286393,331.14064 218.770746,313.34157 233.064342,288.966797 C236.722752,282.728135 240.285772,276.220705 244.384506,268.392196 C246.372685,264.59481 252.954533,251.799864 254.201687,249.410581 C257.939114,242.250459 263.949053,235.141711 272.444115,227.40387 C278.877401,221.544026 284.727011,216.89916 298.012098,206.803472 C298.495557,206.436084 298.495557,206.436084 298.978929,206.068728 C311.909091,196.241378 318.024453,191.363662 324.40111,185.492522 C332.714973,177.837748 338.526516,170.810299 342.022116,163.769869 C350.246615,147.205042 345.430919,130.54683 324.573969,111.796002 C309.246887,98.0166404 294.384923,94.4713179 279.118537,99.3282222 C267.209514,103.117003 256.36626,111.043686 241.065036,125.530847 C238.99731,127.488564 231.583328,134.623243 232.261951,133.972998 C228.824576,137.266633 226.313538,139.608741 223.90364,141.739517 C217.78456,147.14987 212.90353,150.615209 208.411427,152.493423 C197.567921,157.027251 189.150899,151.940749 182.020292,134.849103 C168.529938,102.513523 144.871674,92.5092645 115.270155,102.003682 C90.2588469,110.025831 62.6023701,132.01816 43.0781953,157.912699 C39.5731614,162.561359 29.4195106,175.792112 28.6170244,176.849011 C23.8811294,183.086332 20.884723,187.258065 18.5609777,190.942623 C13.2153551,199.418707 11.679044,205.158799 13.4959006,210.770872 C15.7974898,217.880231 23.1402203,224.896458 42.0520947,238.823857 C50.5293212,245.066798 55.7877162,252.961937 58.8116927,262.986558 C61.0955928,270.557792 61.8624457,277.00084 62.7938126,291.773694 C62.8060239,291.967383 62.8060239,291.967383 62.8182391,292.161062 C64.0930455,312.36982 65.6767861,321.297251 71.168416,330.867599 C78.3889939,343.451011 91.6531747,352.043528 113.57617,356.864881 Z" transform="scale(1 -1) rotate(-81.5 -85.737 0)"/>
    <path d="M111.560388,354.804243 C139.178584,360.883954 162.753296,355.928883 183.349066,341.460717 C200.118703,329.680343 214.259025,312.292323 228.212923,288.479596 C231.784212,282.385088 235.262378,276.027996 239.263534,268.380255 C241.204275,264.670755 247.629463,252.171185 248.847162,249.836625 C252.496596,242.839967 258.365046,235.894087 266.660047,228.333904 C272.941474,222.608921 278.652905,218.071133 291.624123,208.208287 C292.09592,207.849554 292.09592,207.849554 292.567632,207.490852 C305.192018,197.890381 311.162393,193.125543 317.387837,187.390178 C325.504108,179.912835 331.177222,173.048368 334.589141,166.17147 C342.616008,149.992913 337.914177,133.722403 317.551213,115.40402 C302.587552,101.942813 288.080211,98.4789151 273.178397,103.221811 C261.552781,106.92197 250.967109,114.664834 236.028982,128.816902 C234.010359,130.729302 226.773517,137.697794 227.434341,137.064216 C224.078281,140.281903 221.626545,142.570083 219.273526,144.651807 C213.298384,149.938034 208.531866,153.323947 204.144417,155.159209 C193.550132,159.590781 185.325024,154.616681 178.359127,137.912117 C165.186848,106.324348 142.092292,96.5508985 113.195559,105.822945 C88.7774741,113.657935 61.777,135.141135 42.7167502,160.437205 C39.2947314,164.978783 29.3815566,177.904748 28.5990206,178.936053 C23.9756689,185.02917 21.0505185,189.104365 18.7820671,192.703562 C13.5646596,200.981667 12.0652962,206.586479 13.8373408,212.06545 C16.0831157,219.009145 23.2521444,225.864075 41.7188055,239.472706 C49.998647,245.574367 55.1350019,253.290537 58.0891018,263.087232 C60.32005,270.485735 61.0693803,276.78131 61.9799795,291.215561 C61.9919206,291.404846 61.9919206,291.404846 62.0038656,291.59412 C63.2500586,311.336718 64.7969434,320.057978 70.1586259,329.406767 C77.2081152,341.698468 90.157228,350.092674 111.560388,354.804243 Z" transform="scale(1 -1) rotate(-83.394 -81.65 0)"/>
    <path d="M109.533691,352.605998 C136.482159,358.544281 159.483678,353.708194 179.578132,339.583501 C195.940085,328.082439 209.736376,311.105463 223.350575,287.854774 C226.834744,281.904418 230.228056,275.697662 234.131633,268.230685 C236.024936,264.609071 242.293465,252.404872 243.481709,250.125035 C247.043149,243.291838 252.770109,236.508824 260.865048,229.126295 C266.994615,223.536171 272.567866,219.105459 285.225215,209.475452 C285.685351,209.125374 285.685351,209.125374 286.145404,208.775326 C298.464013,199.401729 304.2894,194.749768 310.363631,189.150178 C318.282311,181.850264 323.816995,175.148778 327.145235,168.435409 C334.974474,152.643111 330.386505,136.760291 310.51752,118.874344 C295.91728,105.73129 281.764564,102.348817 267.227327,106.977703 C255.885121,110.589241 245.557031,118.148286 230.982003,131.965263 C229.012483,133.832347 221.952778,140.634656 222.595807,140.017743 C219.321062,143.159484 216.928628,145.393737 214.632486,147.426409 C208.801283,152.588514 204.149276,155.895002 199.866481,157.687315 C189.521411,162.016637 181.488216,157.15493 174.687029,140.83744 C161.832822,109.997469 139.301976,100.45483 111.110032,109.504505 C87.2851735,117.152336 60.9407033,138.126412 42.3443791,162.824018 C39.0053758,167.258518 29.332677,179.8797 28.5700908,180.885409 C24.0592823,186.834325 21.2053877,190.812983 18.9922301,194.32682 C13.9030344,202.406951 12.4406174,207.87649 14.1678555,213.222367 C16.3578193,220.0004 23.3531464,226.694035 41.3745958,239.983904 C49.4570505,245.944288 54.4713635,253.481492 57.3555861,263.050263 C59.533582,270.276038 60.2653899,276.424139 61.155222,290.519793 C61.1668931,290.704673 61.1668931,290.704673 61.1785679,290.889542 C62.3961484,310.165992 63.9061782,318.681084 69.1379162,327.808322 C76.0163194,339.808315 88.6503655,348.004212 109.533691,352.605998 Z" transform="scale(1 -1) rotate(-85.318 -77.544 0)"/>
    <path d="M107.507653,350.261769 C133.786389,356.058625 156.21471,351.341523 175.807845,337.560302 C191.762113,326.33855 205.214374,309.772612 218.488873,287.083952 C221.885922,281.277746 225.19438,275.221323 229.000379,267.935109 C230.846244,264.401379 236.958113,252.492546 238.116902,250.267431 C241.590347,243.597692 247.175816,236.977541 255.070691,229.772662 C261.048399,224.317395 266.48347,219.993757 278.826949,210.596585 C279.275425,210.255161 279.275425,210.255161 279.72382,209.913768 C291.736649,200.767043 297.41705,196.227957 303.340067,190.76414 C311.061155,183.641653 316.45741,177.103146 319.701972,170.553304 C327.333588,155.147253 322.859476,139.652109 303.484465,122.198588 C289.247644,109.373685 275.449559,106.072639 261.276904,110.587513 C250.21811,114.110429 240.147601,121.485658 225.935673,134.967547 C224.015257,136.789316 217.132685,143.425444 217.757922,142.825196 C214.564492,145.890992 212.231361,148.071318 209.992097,150.05494 C204.304833,155.092925 199.767337,158.319991 195.589194,160.069356 C185.493332,164.296436 177.652049,159.547114 171.015573,143.616688 C158.479434,113.524503 136.512299,104.212673 109.02515,113.039976 C85.7935198,120.500649 60.1050547,140.965605 41.972657,165.064756 C38.7166694,169.392178 29.2844467,181.708583 28.5418098,182.688696 C24.1435443,188.493413 21.3609054,192.375535 19.2030414,195.804013 C14.2420539,203.686177 12.8165818,209.020449 14.4990195,214.23324 C16.6331756,220.845615 23.4548014,227.377957 41.0310409,240.349071 C48.9161067,246.168183 53.8083757,253.526422 56.6227204,262.867271 C58.7477637,269.920319 59.4620495,275.920949 60.3311152,289.67801 C60.3425162,289.858485 60.3425162,289.858485 60.3539209,290.038949 C61.5428899,308.849261 63.0160656,317.158192 68.1178623,326.063883 C74.8251821,337.772175 87.1441629,345.769764 107.507653,350.261769 Z" transform="scale(1 -1) rotate(-87.267 -73.43 0)"/>
    <path d="M105.494429,347.76469 C131.103428,353.42012 152.958545,348.822004 172.050357,335.384253 C187.596941,324.441807 200.705171,308.286901 213.63997,286.160261 C216.949898,280.498203 220.173503,274.59211 223.881924,267.486655 C225.680352,264.040809 231.63556,252.427336 232.764893,250.256943 C236.150342,243.75066 241.594318,237.293366 249.289129,230.266136 C255.114978,224.945722 260.411869,220.729156 272.441477,211.564815 C272.878294,211.232046 272.878294,211.232046 273.31503,210.899307 C285.02208,201.979451 290.557494,197.553238 296.329297,192.225192 C303.852794,185.280129 309.11062,178.9046 312.271504,172.518282 C319.705503,157.498468 315.345244,142.390985 296.464198,125.36988 C282.590796,112.863124 269.147346,109.643506 255.339278,114.044367 C244.563898,117.47866 234.750973,124.670074 220.902146,137.816879 C219.030833,139.593333 212.325391,146.063285 212.93284,145.4797 C209.820725,148.469553 207.546896,150.595953 205.364511,152.530525 C199.821185,157.444394 195.3982,160.592041 191.324707,162.298459 C181.478047,166.423304 173.828675,161.786357 167.356912,146.242986 C155.138835,116.898572 133.735413,107.817553 106.953065,116.422483 C84.3146655,123.695998 59.2822067,143.651841 41.6137362,167.152544 C38.4407647,171.37289 29.2490181,183.384524 28.5263303,184.339039 C24.2406075,189.999559 21.5292241,193.785147 19.4266535,197.128268 C14.5938703,204.812471 13.2053417,210.011484 14.8429853,215.091197 C16.9213375,221.537919 23.5692623,227.908969 40.7002937,240.561336 C48.3879685,246.239178 53.1581914,253.418456 55.9026574,262.531385 C57.9747477,269.411708 58.6715115,275.264869 59.5198118,288.683341 C59.5309427,288.859412 59.5309427,288.859412 59.5420772,289.035472 C60.7024359,307.379656 62.1387584,315.482432 67.1106171,324.166584 C73.6468566,335.58318 85.6507735,343.382464 105.494429,347.76469 Z" transform="scale(1 -1) rotate(-89.236 -69.313 0)"/>
    <path d="M103.506594,345.109449 C128.445853,350.623456 149.727759,346.144326 168.318246,333.050044 C183.457144,322.386901 196.221343,306.64302 208.816442,285.07839 C212.03925,279.560477 215.178001,273.804712 218.788844,266.880013 C220.539834,263.522048 226.338383,252.203932 227.438259,250.088258 C230.73571,243.745427 236.038193,237.450989 243.532939,230.601402 C249.206927,225.415838 254.365638,221.306343 266.081375,212.374829 C266.506532,212.050714 266.506532,212.050714 266.931611,211.726629 C278.33288,203.033639 283.723307,198.720297 289.343896,193.52802 C296.669802,186.76038 301.789199,180.547825 304.866406,174.325028 C312.102796,159.691437 307.856384,144.971599 289.469295,128.382899 C275.959312,116.194289 262.870501,113.0561 249.427027,117.342946 C238.935064,120.688616 229.379722,127.696217 215.893998,140.507941 C214.071788,142.23908 207.543472,148.542861 208.133138,147.975937 C205.102338,150.889848 202.887812,152.962324 200.762304,154.847847 C195.362916,159.637604 191.054442,162.705833 187.085599,164.369307 C177.488132,168.391925 170.03067,163.867343 163.72362,148.711017 C151.823602,120.11436 130.983893,111.264151 104.906352,119.646706 C82.8611867,126.733065 58.4847357,146.179799 41.2801933,169.082063 C38.1902382,173.195335 29.2389677,184.902205 28.5362285,185.831122 C24.3630483,191.347448 21.7229203,195.036504 19.6756428,198.294269 C14.9710598,205.780517 13.6194729,210.84428 15.2123293,215.790924 C17.2348817,222.071996 23.7091059,228.281757 40.3949312,240.615386 C47.8852127,246.151962 52.533387,253.152281 55.2079736,262.037293 C57.2271105,268.744893 57.9063527,274.450586 58.7338883,287.530476 C58.7447492,287.702143 58.7447492,287.702143 58.7556136,287.873798 C59.887363,305.751866 61.2868334,313.648494 66.1287578,322.111114 C72.4939202,333.23602 84.1827747,340.837002 103.506594,345.109449 Z" transform="scale(-1 1) rotate(88.78 0 66.608)"/>
    <path d="M101.556988,342.292321 C125.826501,347.664906 146.53519,343.304763 164.624346,330.553949 C179.355559,320.170106 191.775727,304.837243 204.031125,283.834611 C207.166813,278.460841 210.220711,272.855401 213.733975,266.111454 C215.437528,262.84137 221.079417,251.818604 222.149836,249.757649 C225.359287,243.578265 230.520276,237.446678 237.814955,230.77473 C243.337083,225.724015 248.357613,221.721587 259.759479,213.022896 C260.172977,212.707435 260.172977,212.707435 260.586398,212.392003 C271.681886,203.925874 276.927326,199.725402 282.396701,194.668893 C289.525015,188.078672 294.505985,182.02909 297.499515,175.969811 C304.538302,161.722429 300.405733,147.390218 282.512591,131.233911 C269.366026,119.363445 256.63186,116.306685 243.552985,120.479514 C233.344442,123.736561 224.046685,130.56035 210.924066,143.036998 C209.150958,144.722823 202.799765,150.860437 203.371651,150.310173 C200.422166,153.148143 198.266943,155.166696 196.198313,157.003171 C190.942863,161.668819 186.748899,164.657635 182.884704,166.278167 C173.536422,170.198566 166.270869,165.786337 160.128533,151.017046 C148.546569,123.168128 128.270576,114.54873 102.897847,122.70891 C81.4459197,129.608112 57.725478,148.545745 40.9848645,170.849579 C37.9779263,174.85578 29.267132,186.257892 28.584341,187.161209 C24.5237031,192.533343 21.9548303,196.125869 19.9628456,199.29828 C15.3864584,206.586581 14.0718114,211.515102 15.6198881,216.328687 C17.5866449,222.444115 23.8871689,228.492589 40.1277904,240.507488 C47.4206759,245.902803 51.9467992,252.724166 54.5515055,261.381264 C56.5176885,267.916142 57.1794094,273.474371 57.9861813,286.215684 C57.9967723,286.382946 57.9967723,286.382946 58.0073665,286.550198 C59.110508,303.962164 60.4731274,311.652649 65.1851214,319.893746 C71.3792101,330.726969 82.753004,338.12965 101.556988,342.292321 Z" transform="scale(-1 1) rotate(86.786 0 64.639)"/>
    <path d="M99.6585366,339.311164 C123.258298,344.54233 143.393763,340.301175 160.981585,327.893827 C175.305111,317.789281 187.381248,302.867426 199.296944,282.426782 C202.345512,277.197151 205.314557,271.742033 208.730243,265.178834 C210.386358,261.996628 215.871587,251.269206 216.91255,249.262969 C220.033998,243.24703 225.053491,237.278289 232.148103,230.783976 C237.51837,225.868105 242.400719,221.972743 253.488713,213.506869 C253.890553,213.200061 253.890553,213.200061 254.292318,212.893283 C265.082023,204.654012 270.182475,200.566407 275.500636,195.645663 C282.431359,189.232859 287.273901,183.346247 290.183756,177.450482 C297.024947,163.589295 293.006214,149.644692 275.607011,133.920765 C262.823864,122.368438 250.444347,119.393109 237.730079,123.45192 C227.80496,126.620343 218.764787,133.260323 206.005274,145.401898 C204.281269,147.04241 198.107194,153.013862 198.661305,152.480256 C195.793136,155.242287 193.697216,157.206918 191.685464,158.994346 C186.573952,163.535891 182.494498,166.445295 178.734949,168.022887 C169.635842,171.841078 162.562198,167.54119 156.584577,153.158921 C145.320661,126.057724 125.608385,117.669138 100.940477,125.606941 C80.0817898,132.318987 57.0173591,150.747527 40.7406756,172.452941 C37.8167546,176.352072 29.3464366,187.449434 28.6835932,188.327151 C24.7354974,193.555097 22.2378795,197.051094 20.3011875,200.138153 C15.8529911,207.228514 14.5752822,212.021803 16.0785872,216.70234 C17.9895531,222.652129 24.1163773,228.539319 39.9117974,240.235497 C47.0072843,245.489556 51.4113537,252.131966 53.9461788,260.561153 C55.8594075,266.923312 56.5036074,272.334078 57.2896167,284.73682 C57.2999376,284.899679 57.2999376,284.899679 57.3102617,285.062527 C58.3847968,302.008404 59.7105663,309.492756 64.2926341,317.512337 C70.3156531,328.053885 81.3743882,335.258267 99.6585366,339.311164 Z" transform="scale(-1 1) rotate(84.787 0 62.48)"/>
    <path d="M97.8240821,336.165403 C120.754085,341.255151 140.316319,337.132984 157.402802,325.069102 C171.31864,315.243847 183.050747,300.732993 194.62674,280.854323 C197.588188,275.768828 200.47238,270.464028 203.790488,264.081574 C205.399167,260.987245 210.727735,250.55516 211.73924,248.603638 C214.772684,242.751139 219.65068,236.94524 226.545223,230.628557 C231.763629,225.847526 236.507797,222.059228 247.281919,213.826165 C247.672101,213.52801 247.672101,213.52801 248.062209,213.229885 C258.546129,205.217468 263.501595,201.242729 268.668541,196.457747 C275.401674,190.222357 280.105788,184.498712 282.931969,178.766458 C289.575573,165.291447 285.67067,151.734433 268.765395,136.442871 C256.345664,125.208681 244.320803,122.314785 231.97115,126.259575 C222.329456,129.339373 213.546869,135.795545 201.150465,147.602053 C199.475563,149.197253 193.478601,155.002547 194.014942,154.485598 C191.228088,157.171692 189.191471,159.082403 187.236598,160.820786 C182.269024,165.238231 178.304079,168.068227 174.649174,169.602881 C165.799233,173.318874 158.917496,169.131315 153.104591,155.136054 C142.158717,128.782559 123.010161,120.624786 99.0470804,128.34021 C78.7816379,134.865101 56.3732199,152.784555 40.5604675,173.89156 C37.7195642,177.683623 29.4897225,188.476245 28.8468263,189.328359 C25.0112722,194.41212 22.584909,197.811591 20.7035094,200.8133 C16.3834985,207.705731 15.1427256,212.363798 16.6012676,216.911298 C18.4564478,222.695454 24.4095727,228.421362 39.759794,239.79883 C46.6578793,244.911638 50.9398918,251.375099 53.4048348,259.576377 C55.2651086,265.765819 55.8917878,271.029126 56.6570356,283.093305 C56.6670865,283.25176 56.6670865,283.25176 56.6771406,283.410204 C57.7230706,299.890009 59.0119916,307.168235 63.464138,314.96631 C69.3160912,325.216191 80.0597696,332.222278 97.8240821,336.165403 Z" transform="scale(-1 1) rotate(82.787 0 60.122)"/>
    <path d="M96.0662098,332.855978 C118.326449,337.804311 137.315443,333.801135 153.900581,322.080716 C167.408731,312.534749 178.796807,298.434885 190.033096,279.118175 C192.907426,274.176812 195.706764,269.022327 198.927294,262.820612 C200.488536,259.814158 205.660444,249.677403 206.642491,247.780596 C209.587929,242.091532 214.324426,236.448469 221.018898,230.30941 C226.085442,225.663217 230.691429,221.981978 241.151677,213.981721 C241.530203,213.692219 241.530203,213.692219 241.908655,213.402747 C262.564053,197.602797 270.813425,189.95622 275.756737,179.918673 C282.202761,166.829821 278.411682,153.660371 262.000323,138.80116 C249.944009,127.885103 238.27381,125.072642 226.288779,128.903407 C216.930516,131.894581 208.405515,138.166948 196.372221,149.638393 C194.746422,151.188281 188.926568,156.827425 189.445145,156.32713 C186.739607,158.937289 184.762294,160.794081 182.864299,162.483419 C178.040662,166.776771 174.190226,169.527363 170.639964,171.019082 C162.039177,174.632888 155.349346,170.557642 149.701158,156.949377 C139.07332,131.343562 120.488485,123.416601 97.2302411,130.909646 C77.5580474,137.247383 55.8056439,154.657758 40.4568238,175.166366 C37.6989387,178.851365 29.7095734,189.339255 29.0866238,190.165765 C25.3636112,195.105345 23.0085025,198.408292 21.1823949,201.324653 C16.9905638,208.019163 15.7867246,212.542019 17.200513,216.956496 C18.9999132,222.575024 24.7793393,228.139653 39.6843646,239.198423 C46.385045,244.169987 50.5449974,250.454502 52.9400572,258.427875 C54.7473755,264.444603 55.3565345,269.560453 56.101022,281.286076 C56.110803,281.440128 56.110803,281.440128 56.1205871,281.594168 C57.1379137,297.607917 58.3899876,304.680026 62.7122175,312.256606 C68.3931095,322.214829 78.8217334,329.022623 96.0662098,332.855978 Z" transform="scale(-1 1) rotate(80.793 0 57.56)"/>
    <path d="M94.3970795,329.385287 C115.987547,334.192207 134.403291,330.308022 150.48708,318.931064 C163.587541,309.66438 174.631587,295.975496 185.528171,277.220731 C188.315381,272.423496 191.029867,267.419321 194.152819,261.398341 C195.666624,258.479759 200.681871,248.638326 201.634459,246.796232 C204.491888,241.270598 209.086885,235.790365 215.581284,229.828926 C220.495967,225.317564 224.963772,221.743383 235.110146,213.975924 C235.477015,213.695075 235.477015,213.695075 235.843813,213.414255 C255.877128,198.075823 263.8775,190.652801 268.670217,180.909511 C274.918672,168.206799 271.241408,155.42489 255.323954,140.998012 C243.631055,130.400084 232.315525,127.669059 220.695125,131.385798 C211.620297,134.288346 203.352883,140.376911 191.682702,151.513298 C190.106005,153.017876 184.463254,158.490876 184.964073,158.007233 C182.33985,160.541459 180.421841,162.344333 178.580725,163.98463 C173.901025,168.153893 170.165098,170.825084 166.719475,172.273872 C158.367831,175.785504 151.869905,171.822556 146.386436,158.601269 C136.076626,133.743111 118.055515,126.046964 95.5021165,133.317627 C76.4231759,139.46821 55.3267892,156.369518 40.4419026,176.279742 C37.7670363,179.857679 30.0181475,190.040847 29.4151437,190.841752 C25.8046723,195.637154 23.5208179,198.843579 21.7500019,201.674596 C17.6863444,208.171194 16.5194364,212.558852 17.8884816,216.840319 C19.6321077,222.293227 25.2378357,227.696581 39.6976682,238.436665 C46.2009402,243.26699 50.2388288,249.372563 52.5640043,257.118036 C54.3183665,262.962052 54.9100057,267.930449 55.6337342,279.317524 C55.6432453,279.467172 55.6432453,279.467172 55.6527593,279.616809 C56.6414845,295.164522 57.8567128,302.030524 62.0490317,309.385619 C67.5588674,319.052194 77.6724392,325.661698 94.3970795,329.385287 Z" transform="scale(-1 1) rotate(78.809 0 54.785)"/>
    <path d="M92.828265,325.757086 C113.748953,330.422598 131.591438,326.657404 147.17387,315.623906 C159.866641,306.636499 170.566657,293.358583 181.123535,275.165746 C183.823627,270.512635 186.45326,265.658766 189.478634,259.818515 C190.945002,256.987804 195.803589,247.441682 196.726717,245.6543 C199.496135,240.29209 203.949629,234.974682 210.243954,229.190854 C215.006774,224.814321 219.336397,221.347193 229.168897,213.812526 C229.524111,213.540329 229.524111,213.540329 229.879254,213.26816 C249.290486,198.391235 257.041856,191.191763 261.68398,181.742723 C267.734876,169.426129 264.17142,157.031734 248.747856,143.03717 C237.418371,132.757366 226.457519,130.10778 215.20176,133.710489 C206.410371,136.524411 198.400545,142.429176 187.093479,153.230512 C185.565885,154.689781 180.100231,159.996643 180.583297,159.529649 C178.040391,161.987946 176.181685,163.736904 174.397448,165.32816 C169.861685,169.373341 166.240266,171.965136 162.899281,173.370995 C154.796766,176.780467 148.490744,172.929799 143.171995,160.095474 C133.180206,135.984947 115.722821,128.519614 93.8742778,135.567894 C75.3885952,141.531325 54.9482275,157.923574 40.5272759,177.235429 C37.935429,180.706307 30.4270168,190.584764 29.8439582,191.360063 C26.3460275,196.011291 24.1334271,199.121198 22.4179024,201.866872 C18.4824117,208.165571 17.3524322,212.418044 18.6767454,216.566516 C20.3646041,221.853812 25.7966346,227.095894 39.8112778,237.517306 C46.1171375,242.206398 50.0329584,248.133035 52.2882483,255.650611 C53.9896538,261.321919 54.5637736,266.142865 55.2667446,277.191403 C55.2759859,277.336648 55.2759859,277.336648 55.2852299,277.481882 C56.2453555,292.563577 57.42374,299.223483 61.4861539,306.357106 C66.8249387,315.732044 76.6234611,322.143262 92.828265,325.757086 Z" transform="scale(-1 1) rotate(76.84 0 51.79)"/>
    <path d="M91.3706057,321.976393 C111.621505,326.500498 128.890719,322.854297 143.971789,312.164257 C156.256869,303.456121 166.612854,290.589161 176.830026,272.958232 C179.442999,268.44924 181.98778,263.745672 184.915576,258.086144 C186.334508,255.343301 191.036434,246.092482 191.930102,244.359809 C196.737571,235.038931 204.173304,228.198651 223.338765,213.496532 C223.682324,213.232986 223.682324,213.232986 224.025814,212.969469 C242.814963,198.554038 250.317329,191.578111 254.808862,182.423311 C260.662211,170.49281 257.212553,158.4859 242.282865,144.923629 C231.316793,134.961946 220.710626,132.393801 209.81952,135.882477 C201.311575,138.607771 193.559338,144.328739 182.615389,154.795031 C181.136898,156.208992 175.848334,161.349724 176.313656,160.899378 C173.852065,163.281746 172.052664,164.976791 170.325307,166.519009 C165.933479,170.440115 162.426569,172.952517 159.190218,174.315452 C151.336817,177.622778 145.222699,173.884372 140.06867,161.43699 C130.394894,138.074065 113.501238,130.839547 92.3575613,137.665442 C74.4651421,143.441721 54.680796,159.324924 40.7237809,178.038424 C38.2149541,181.402247 30.9470185,190.976007 30.3839044,191.725696 C26.9985141,196.232756 24.8571673,199.246147 23.1969335,201.906482 C19.3896021,208.007294 18.2965481,212.124596 19.5761416,216.140091 C21.2082403,221.261782 26.466574,226.342596 40.0360318,236.445351 C46.1444748,240.993219 49.9382238,246.740924 52.1236267,254.030608 C53.7720747,259.529211 54.3286756,264.202711 55.0108908,274.91272 C55.0198622,275.053563 55.0198622,275.053563 55.0288363,275.194394 C55.9603645,289.810095 57.1019071,296.263917 61.0344227,303.176081 C66.2021623,312.259393 75.6856385,318.472329 91.3706057,321.976393 Z" transform="scale(-1 1) rotate(74.891 0 48.57)"/>
    <path d="M90.0340716,318.049351 C109.615173,322.432054 126.311104,318.904848 140.890804,308.558262 C152.768192,300.129391 162.780147,287.673373 172.65761,270.604332 C175.183465,266.239454 177.643394,261.686182 180.473612,256.20737 C181.845108,253.552391 186.390373,244.596865 187.25458,242.918898 C191.903996,233.891476 199.09492,227.268521 217.629716,213.034077 C217.961622,212.779182 217.961622,212.779182 218.29346,212.524315 C236.460524,198.570364 243.713886,191.817976 248.054829,182.957408 C253.710643,171.412974 250.374775,159.793515 235.938946,146.663516 C225.336286,137.019947 215.084814,134.533245 204.558371,137.907884 C196.333876,140.54455 188.839229,146.081725 178.258401,156.21298 C176.829012,157.581635 171.717531,162.556245 172.165116,162.122543 C169.784842,164.428986 168.044746,166.07012 166.374267,167.563301 C162.126376,171.360339 158.733973,173.793356 155.602254,175.113369 C147.997952,178.318566 142.075735,174.6924 137.086429,162.631942 C127.730656,140.016588 111.400731,133.012886 90.9619335,139.616393 C73.6627838,145.205521 54.534462,160.57969 41.0413851,178.694854 C38.615579,181.951626 31.5881203,191.2207 31.0449497,191.944778 C27.7720994,196.307675 25.7020058,199.224554 24.0970625,201.799552 C20.4178822,207.702492 19.3617504,211.68464 20.5966378,215.567175 C22.1729844,220.52327 27.2576223,225.442821 40.3818989,235.226937 C46.2929204,239.633589 49.9645928,245.202367 52.0801073,252.264163 C53.6755969,257.590066 54.2146796,262.116124 54.8761406,272.487616 C54.8848423,272.624056 54.8848423,272.624056 54.8935465,272.760485 C55.7964798,286.910216 56.9011824,293.157967 60.7038069,299.848688 C65.700508,308.640387 74.8689411,314.655045 90.0340716,318.049351 Z" transform="scale(-1 1) rotate(72.967 0 45.12)"/>
    <path d="M88.8276447,313.983099 C107.738937,318.224403 123.861572,314.816194 137.939894,304.81306 C149.409588,296.663447 159.077513,284.618354 168.615267,268.111179 C171.054004,263.890409 173.429081,259.487425 176.161721,254.189322 C177.485781,251.622205 181.874385,242.961959 182.70913,241.338697 C187.200488,232.604716 194.146603,226.199075 212.050729,212.432286 C212.370981,212.186041 212.370981,212.186041 212.691168,211.939825 C230.236147,198.447338 237.240505,191.918484 241.43086,183.352134 C246.889153,172.193738 243.667062,160.961695 229.725074,148.263942 C219.485825,138.938481 209.589058,136.533226 199.427293,139.793824 C191.486253,142.34186 184.249198,147.695247 174.031494,157.491472 C172.651208,158.814822 167.716802,163.62332 168.146659,163.206259 C165.847701,165.436781 164.166909,167.024006 162.553311,168.468153 C158.449355,172.141132 155.171459,174.494767 152.144368,175.771864 C144.789147,178.874951 139.058829,175.361002 134.234248,163.687443 C125.196468,141.819625 109.430278,135.04674 89.6963728,141.427857 C72.990499,146.829835 54.5182045,161.694984 41.4890677,179.211831 C39.1462832,182.361556 32.3593014,191.325961 31.8360735,192.024424 C28.6757627,196.243164 26.6769221,199.063535 25.1272687,201.553201 C21.5762303,207.258282 20.5570173,211.105294 21.7472134,214.85489 C23.2678168,219.645401 28.1787597,224.403693 40.8578599,233.869188 C46.5714548,238.134632 50.1210453,243.52449 52.1666696,250.358405 C53.7092001,255.511611 54.2307652,259.890233 54.871474,269.92322 C54.879906,270.055258 54.879906,270.055258 54.8883404,270.187285 C55.7626813,283.871072 56.8305463,289.912767 60.5032877,296.38206 C65.3289575,304.882162 74.1823513,310.698547 88.8276447,313.983099 Z" transform="scale(-1 1) rotate(71.073 0 41.434)"/>
    <path d="M87.7592196,309.785616 C106.000692,313.885526 121.550014,310.596314 135.126949,300.93663 C146.188949,293.066266 155.512844,281.432081 164.710886,265.486746 C167.062506,261.410077 169.352732,257.157376 171.987794,252.039974 C173.264418,249.560715 177.49636,241.195736 178.301643,239.627176 C182.634937,231.18662 189.336242,224.998279 206.609692,211.699124 C206.918293,211.461529 206.918293,211.461529 207.22683,211.223962 C224.149723,198.192922 230.905073,191.887594 234.944844,183.615451 C240.205631,172.843061 237.097306,161.998394 223.649139,149.732858 C213.773299,140.7255 204.231249,138.401693 194.434176,141.548247 C186.776598,144.007652 179.797135,149.177254 169.942559,158.63846 C168.611375,159.916506 163.854035,164.558901 164.266174,164.158478 C162.048533,166.313083 160.427046,167.846402 158.870328,169.241516 C154.910307,172.790445 151.746917,175.064706 148.824451,176.298891 C141.718292,179.299888 136.179872,175.898132 131.520017,164.611446 C122.800218,143.491126 107.597766,136.949058 88.5687689,143.107782 C72.4561784,148.322613 54.6399146,162.678756 42.0747199,179.597308 C39.814958,182.639991 33.2684533,191.299742 32.765167,191.972589 C29.7173951,196.047178 27.789807,198.771045 26.295443,201.175383 C22.8725367,206.682623 21.8902383,210.394519 23.0357595,214.011197 C24.5006297,218.636135 29.2378787,223.233175 41.4718077,232.380068 C46.9879702,236.504316 50.4154731,241.71526 52.3912054,248.3213 C53.8807758,253.301814 54.3848239,257.533004 55.0047828,267.2275 C55.0129451,267.355137 55.0129451,267.355137 55.0211097,267.482762 C55.8668613,280.700636 56.8978912,286.536291 60.4407583,292.784176 C65.0954049,300.992695 73.6337634,306.610813 87.7592196,309.785616 Z" transform="scale(-1 1) rotate(69.214 0 37.509)"/>
    <path d="M86.8355227,305.465563 C104.407161,309.424083 119.383155,306.253871 132.458693,296.937633 C143.112996,289.346509 152.092861,278.123213 160.951191,262.739689 C163.215694,258.807115 165.421068,254.704689 167.958552,249.767978 C169.187741,247.376573 173.263022,239.306846 174.03884,237.792984 C178.214063,229.645836 184.670559,223.674782 201.313326,210.843236 C201.610276,210.61429 201.610276,210.61429 201.907164,210.385372 C218.207971,197.81576 224.714313,191.733951 228.603501,183.756001 C233.666799,173.36958 230.672227,162.912243 217.717858,151.078895 C208.205426,142.389631 199.018105,140.147277 189.585741,143.17978 C182.211633,145.550554 175.489764,150.536375 165.998319,159.662571 C164.716238,160.895316 160.135955,165.371621 160.530385,164.987831 C158.394061,167.066522 156.83188,168.545938 155.332042,169.892024 C151.515956,173.316913 148.467072,175.511807 145.649226,176.703085 C138.792107,179.602016 133.445583,176.312422 128.950456,165.412581 C120.548626,145.039715 105.909916,138.728466 87.5858433,144.664795 C72.0665441,149.692479 54.9063147,163.539635 42.8050645,179.859915 C40.628326,182.79556 34.3222988,191.150677 33.8389529,191.797905 C30.9037194,195.72835 29.0473833,198.355718 27.6083081,200.674731 C24.3135226,205.984149 23.3681346,209.560951 24.4689991,213.044738 C25.8781469,217.504115 30.4417033,221.939908 42.2304671,230.768225 C47.5491906,234.751287 50.8545995,239.783325 52.7604378,246.161497 C54.1970469,250.969324 54.683579,255.053088 55.2827903,264.409109 C55.290683,264.532344 55.290683,264.532344 55.2985778,264.655569 C56.1157435,277.407563 57.1099411,283.037196 60.5229438,289.063692 C65.006576,296.980647 73.229904,302.400504 86.8355227,305.465563 Z" transform="scale(-1 1) rotate(67.394 0 33.344)"/>
    <path d="M86.0620523,301.032121 C102.963842,304.849256 117.366488,301.798047 129.940618,292.825251 C140.187224,285.513358 148.823059,274.700928 157.341674,259.879184 C159.519061,256.090695 161.639584,252.138536 164.07949,247.382506 C165.261244,245.078951 169.179862,237.304459 169.926216,235.845293 C173.94336,227.991532 180.155046,222.237749 196.167122,209.873785 C196.452424,209.653488 196.452424,209.653488 196.737665,209.433218 C212.416383,197.325011 218.673716,191.466713 222.412324,183.782939 C227.278153,173.782447 224.397318,163.712392 211.936723,152.311195 C202.787696,143.940018 193.955118,141.77912 184.887481,144.697566 C177.796851,146.979707 171.332578,151.781753 162.20427,160.572951 C160.97129,161.760397 156.568053,166.070624 156.944787,165.703464 C154.889781,167.706246 153.386906,169.131761 151.943948,170.428822 C148.271797,173.729683 145.337417,175.845217 142.624188,176.993595 C136.016083,179.790485 130.861453,176.613021 126.531057,166.099995 C118.447181,146.474535 104.372218,140.394106 86.7530882,146.108034 C71.8270895,150.948574 55.3228987,164.286761 43.6855954,180.008797 C41.5918816,182.837411 35.526332,190.887914 35.0629252,191.509519 C32.2402294,195.295828 30.4551449,197.826702 29.0713577,200.060397 C25.9046808,205.172014 24.9961982,208.613746 26.0524262,211.964669 C27.4058638,216.2585 31.7957291,220.533054 43.1393343,229.042819 C48.2606116,232.884708 51.4439193,237.737848 53.2798613,243.88816 C54.6635081,248.523306 55.1325249,252.459652 55.7109915,261.477215 C55.7186146,261.596049 55.7186146,261.596049 55.7262397,261.714873 C56.5148231,274.001026 57.4721917,279.424657 60.7553409,285.229787 C65.0679687,292.855199 72.9762713,298.0768 86.0620523,301.032121 Z" transform="scale(-1 1) rotate(65.618 0 28.94)"/>
    <path d="M85.4430396,296.494827 C101.674965,300.170585 115.504242,297.238381 127.576951,288.609023 C137.415856,281.576348 145.707663,271.17476 153.88656,256.91476 C155.976831,253.270348 158.012503,249.468445 160.354832,244.893085 C161.489151,242.677375 165.251107,235.1981 165.967994,233.793625 C169.827051,226.23323 175.793926,220.696699 191.175304,208.800286 C191.448959,208.588637 191.448959,208.588637 191.722553,208.377014 C206.779184,196.730189 212.787504,191.095391 216.375536,183.705776 C221.043916,174.091168 218.276802,164.408338 206.309952,153.439253 C197.524329,145.386153 189.046511,143.306716 180.343621,146.111099 C173.536478,148.304605 167.329802,152.922883 158.564636,161.379096 C157.380759,162.521244 153.154555,166.665407 153.513606,166.314872 C151.539917,168.24175 150.096349,169.61337 148.710272,170.861408 C145.182055,174.038254 142.362179,176.074438 139.753561,177.179923 C133.394444,179.8748 128.431705,176.809431 124.266043,166.683182 C116.500105,147.805073 102.988893,141.955465 86.0747277,147.446991 C71.7420396,152.100387 55.893892,164.929628 44.7205386,180.053449 C42.7098507,182.775039 36.8847789,190.520952 36.4413099,191.11693 C33.7311511,194.759113 32.0173175,197.193499 30.6888176,199.341881 C27.6502353,204.25572 26.7786528,207.562409 27.7902668,210.7805 C29.0880079,214.908803 33.3041837,219.022124 44.202638,227.213368 C49.1264608,230.914098 52.1876593,235.58835 53.9537026,241.510811 C55.2843857,245.973283 55.7358882,249.762217 56.2936131,258.441341 C56.3009667,258.555775 56.3009667,258.555775 56.3083223,258.670199 C57.0683276,270.490553 57.9888706,275.708204 61.1421787,281.291995 C65.2838132,288.625886 72.8770965,293.64924 85.4430396,296.494827 Z" transform="scale(-1 1) rotate(63.89 0 24.299)"/>
    <path d="M84.9814285,291.863416 C100.54347,295.397803 113.799354,292.584606 125.370628,284.298682 C134.801832,277.545213 142.749609,267.554438 150.588786,253.856142 C152.591943,250.355796 154.542765,246.704139 156.787515,242.309435 C157.874401,240.181564 161.479694,232.997484 162.167113,231.647697 C165.868073,224.380642 171.590137,219.061344 186.340807,207.632448 C186.602815,207.429445 186.602815,207.429445 186.864766,207.226469 C201.299307,196.040996 207.058612,190.629689 210.496073,183.534213 C214.967028,174.305437 212.313616,165.009768 200.840479,154.472751 C192.418257,146.737717 184.295216,144.739745 175.957097,147.430059 C169.433452,149.534928 163.484376,153.969444 155.082357,162.090686 C153.947582,163.187539 149.898398,167.165656 150.239781,166.83174 C148.34741,168.68272 146.963149,170.000448 145.633954,171.199469 C142.249669,174.252314 139.544297,176.209158 137.040284,177.271757 C130.930124,179.864655 126.159274,176.91134 122.158348,167.171827 C114.710331,149.041008 101.762874,143.422223 85.5536977,148.69134 C71.8143317,153.157596 56.6222324,165.477914 45.9128321,180.003556 C43.9851715,182.618129 38.400578,190.059478 37.977045,190.629825 C35.3794224,194.127891 33.7368391,196.465796 32.4636257,198.528871 C29.5531225,203.24496 28.7184338,206.416639 29.6854592,209.501933 C30.9275192,213.464724 34.9700074,217.416823 45.4233193,225.289579 C50.1496785,228.849166 53.0887588,233.344539 54.7849005,239.039159 C56.0626185,243.328965 56.4966079,246.970496 57.0335945,255.311204 C57.0406787,255.421239 57.0406787,255.421239 57.0477648,255.531263 C57.7791969,266.885866 58.6629182,271.897563 61.686399,277.260043 C65.657053,284.302439 72.9353237,289.127555 84.9814285,291.863416 Z" transform="scale(-1 1) rotate(62.215 0 19.426)"/>
    <path d="M84.6788765,287.14766 C99.5710129,290.540683 112.253476,287.846497 123.323299,279.904001 C132.346799,273.429723 139.950548,263.84973 147.450003,250.713091 C149.366045,247.3568 151.232017,243.855376 153.37919,239.641314 C154.418642,237.601276 157.867271,230.712367 158.52522,229.417262 C162.068072,222.443519 167.545325,217.34143 181.665276,206.380012 C181.915641,206.185654 181.915641,206.185654 182.165949,205.991323 C195.978399,195.267172 201.488688,190.079343 204.775581,183.277983 C209.049138,174.43498 206.509406,165.526402 195.529947,155.421401 C187.471123,148.004421 179.70288,146.087921 171.729558,148.664156 C165.489423,150.680386 159.797949,154.931148 151.759083,162.717436 C150.67341,163.768997 146.801232,167.581085 147.124963,167.263783 C145.31391,169.038871 143.988957,170.302712 142.716644,171.45272 C139.476292,174.381581 136.885422,176.259096 134.486008,177.278819 C128.624769,179.769775 124.045805,176.928467 120.209619,167.575645 C113.079501,150.192045 100.695807,144.804084 85.1916457,149.850788 C72.0456148,154.129906 57.5095696,165.94133 47.264126,179.868831 C45.4194944,182.376396 40.0753795,189.51321 39.6717808,190.057922 C37.1866934,193.411884 35.6153597,195.653315 34.3974317,197.631091 C31.6149902,202.149459 30.8171885,205.186162 31.7396535,208.138699 C32.9260499,211.936002 36.7948528,215.726888 46.8030322,223.281194 C51.3319173,226.699656 54.1488692,231.016163 55.7751061,236.482954 C56.9998574,240.600103 57.416335,244.09424 57.9325873,252.096556 C57.9394022,252.202193 57.9394022,252.202193 57.9462189,252.307818 C58.6490831,263.196724 59.4959873,268.002497 62.3896565,273.143698 C66.1893442,279.894629 73.15261,284.521517 84.6788765,287.14766 Z" transform="scale(-1 1) rotate(60.597 0 14.33)"/>
    <path d="M84.5357718,282.357225 C98.7579789,285.608893 110.86699,283.033721 121.435344,275.434647 C130.051137,269.239544 137.310858,260.070296 144.470587,247.495261 C146.299516,244.28301 148.080638,240.931807 150.130234,236.898369 C151.122252,234.946156 154.414218,228.352391 155.042695,227.111963 C158.427426,220.431499 163.659866,215.546593 177.149086,205.052607 C177.38781,204.866894 177.38781,204.866894 177.626478,204.681207 C190.816836,194.418341 196.078105,189.453976 199.214435,182.946705 C203.290625,174.489409 200.86455,165.967839 190.378727,156.294796 C182.683298,149.195857 175.269876,147.360834 167.661381,149.822981 C161.70477,151.75057 156.2709,155.817587 148.595196,163.268939 C147.558624,164.275213 143.863434,167.921292 144.169532,167.620597 C142.439798,169.3198 141.174154,170.529761 139.958723,171.630761 C136.862303,174.435658 134.385935,176.233857 132.091112,177.210712 C126.478754,179.599771 122.091673,176.870416 118.42023,167.904231 C111.607988,151.26777 99.7880619,146.110636 84.9889482,150.934921 C72.4362673,155.026903 58.5562829,166.329465 48.7748001,179.658871 C47.0131993,182.059436 41.9095636,188.891752 41.5258969,189.410821 C39.1533438,192.620692 37.6532588,194.765659 36.4906152,196.658144 C33.8362154,200.978827 33.0752928,203.880594 33.9532298,206.70042 C35.0839824,210.332258 38.7791026,213.961944 48.3421608,221.197842 C52.6735598,224.4752 55.3683717,228.612856 56.9247003,233.851831 C58.096483,237.796331 58.4954503,241.143087 58.9909729,248.80704 C58.9975186,248.908279 58.9975186,248.908279 59.004066,249.009506 C59.6783684,259.432778 60.4884607,264.032658 63.252336,268.95262 C66.8810739,275.412119 73.5293439,279.840791 84.5357718,282.357225 Z" transform="scale(-1 1) rotate(59.04 0 9.025)"/>
    <path d="M84.5512675,277.501534 C98.1035176,280.611856 109.639041,278.155704 119.705905,270.900045 C127.913989,264.984096 134.829681,256.225551 141.649681,244.212059 C143.391497,241.143834 145.087771,237.942834 147.039789,234.09 C147.984375,232.225605 151.119676,225.926952 151.718678,224.741194 C154.945274,218.353973 159.932901,213.686219 172.791376,203.659614 C173.018461,203.482544 173.018461,203.482544 173.245492,203.305499 C185.813756,193.503877 190.826002,188.76296 193.811775,182.549747 C197.690631,174.478081 195.378185,166.343425 185.385952,157.102273 C178.053914,150.321358 170.995339,148.56782 163.751707,150.915868 C158.078636,152.754813 152.902373,156.638095 145.589837,163.754534 C144.602367,164.715523 141.084146,168.195618 141.372632,167.911522 C139.724218,169.534851 138.517884,170.690936 137.359336,171.742935 C134.406847,174.423889 132.044979,176.142787 129.854739,177.076788 C124.491215,179.363997 120.296014,176.746535 116.789318,168.166927 C110.294926,152.277512 99.0387752,147.351206 84.9447446,151.953065 C72.9854307,155.857915 59.7615145,166.651652 50.4439973,179.383014 C48.7654294,181.676592 43.9022735,188.204447 43.5385365,188.697869 C41.2785165,191.763664 39.8496793,193.812176 38.7423187,195.619381 C36.215938,199.742417 35.4918856,202.509295 36.3253312,205.196462 C37.4004626,208.662864 40.9219033,212.131363 50.0398535,219.048905 C54.1737525,222.185182 56.7464113,226.144002 58.2328275,231.155175 C59.3516396,234.927041 59.7330983,238.126428 60.2078963,245.452051 C60.2141729,245.548893 60.2141729,245.548893 60.2204511,245.645723 C60.866199,255.603431 61.6394852,259.997458 64.273587,264.696223 C67.7313938,270.864329 74.0646784,275.094799 84.5512675,277.501534 Z" transform="scale(-1 1) rotate(57.549 0 3.525)"/>
    <path d="M84.7233305,272.589646 C97.6055913,275.558635 108.567585,273.221506 118.132935,266.309254 C125.933306,260.672437 132.504972,252.324547 138.985238,240.872527 C140.639942,237.948309 142.251367,234.897493 144.105808,231.225242 C145.002962,229.448653 147.981597,223.445076 148.551123,222.31398 C151.619566,216.219959 156.36238,211.769322 168.590092,202.210039 C168.805541,202.041609 168.805541,202.041609 169.020938,201.873205 C180.967106,192.532779 185.730327,188.01529 188.565549,182.0961 C192.247112,174.409976 190.048263,166.662126 180.549565,157.852786 C173.580913,151.389876 166.877217,149.717832 159.998487,151.951768 C154.608973,153.702065 149.69032,157.401626 142.740964,164.183176 C141.802596,165.098886 138.46132,168.413024 138.732219,168.145519 C137.165126,169.692981 136.018102,170.7952 134.916439,171.798204 C132.10788,174.355241 129.86051,175.994856 127.774843,176.886015 C122.6601,179.071432 118.656775,176.565793 115.314831,168.372691 C109.138257,153.230215 98.4458905,148.534739 85.0569847,152.914164 C73.6910573,156.631885 61.123218,166.91684 52.2696717,179.050218 C50.6741393,181.236822 46.0514639,187.460263 45.7076538,187.928029 C43.5601655,190.849767 42.202575,192.801836 41.1504961,194.523771 C38.7521084,198.449207 38.064916,201.081248 38.853912,203.635817 C39.8734483,206.936817 43.2212134,210.244144 51.8940708,216.843388 C55.8304541,219.838612 58.2809444,223.618614 59.6974437,228.402005 C60.7632829,232.001248 61.1272349,235.053281 61.5813144,242.040613 C61.5873221,242.133059 61.5873221,242.133059 61.5933312,242.225493 C62.2105329,251.717721 62.9470197,255.905938 65.4513713,260.383556 C68.7382688,266.260315 74.7565802,270.292598 84.7233305,272.589646 Z" transform="scale(-1 1) rotate(56.126 0 -2.15)"/>
    <path d="M85.0488015,267.630151 C97.2610355,270.45782 107.649451,268.239721 116.713258,261.670867 C124.105914,256.313155 130.333553,248.375861 136.474081,237.485231 C138.041675,234.705 139.568252,231.804346 141.325114,228.31265 C142.174838,226.623858 144.996806,220.915313 145.536852,219.838871 C148.447124,214.037998 152.945121,209.804439 164.542053,200.712407 C164.745869,200.552616 164.745869,200.552616 164.949635,200.392852 C176.273706,191.513563 180.787896,187.219482 183.472575,181.594273 C186.956891,174.293586 184.871602,166.932415 175.866378,158.554797 C169.261105,152.40987 162.912323,150.81933 156.398542,152.939138 C151.292607,154.600785 146.631568,158.116637 140.045403,164.563328 C139.156135,165.433764 135.991781,168.581978 136.245121,168.331053 C134.759348,169.802662 133.671637,170.851022 132.626858,171.805039 C129.962229,174.238189 127.829356,175.798541 125.848252,176.646874 C120.982227,178.730566 117.170774,176.336669 113.993587,168.529989 C108.134795,154.134327 98.0062209,149.669684 85.3224887,153.826665 C74.5499707,157.357263 62.6382181,167.133486 54.248649,178.668949 C52.7361548,180.748594 48.353961,186.667675 48.0300744,187.109777 C45.9951163,189.887478 44.7087712,191.743117 43.7119723,193.379797 C41.4415477,197.107686 40.7912035,199.604951 41.5357981,202.026992 C42.4997696,205.162629 45.6738635,208.308804 53.9016463,214.589818 C57.6404952,217.44402 59.9687995,221.045225 61.3153765,225.600854 C62.3282402,229.027491 62.6746879,231.932188 63.1080558,238.581274 C63.1137947,238.669325 63.1137947,238.669325 63.119535,238.757365 C63.7082001,247.784209 64.4078956,251.766667 66.7825241,256.023197 C69.8985375,261.608662 75.6018901,265.442776 85.0488015,267.630151 Z" transform="scale(-1 1) rotate(54.775 0 -7.972)"/>
    <path d="M85.5234663,262.631083 C97.0656296,265.317447 106.880409,263.218385 115.442642,256.992918 C122.427577,251.914279 128.311191,244.387515 134.111974,234.058176 C135.592459,231.421906 137.03419,228.671389 138.693474,225.360218 C139.495768,223.759207 142.161068,218.345645 142.671631,217.323846 C145.423707,211.816064 149.676887,207.799533 160.643015,199.17467 C160.835202,199.023517 160.835202,199.023517 161.02734,198.872389 C171.729313,190.454172 175.994467,186.383471 178.528613,181.052194 C181.815735,174.136824 179.843963,167.162183 171.332138,159.216179 C165.090238,153.389208 159.096412,151.880185 152.947636,153.885848 C148.125304,155.458839 143.721884,158.791 137.498921,164.902867 C136.658755,165.728035 133.671291,168.710361 133.907105,168.476005 C132.502654,169.871774 131.474256,170.866286 130.486364,171.771327 C127.965664,174.080624 125.947286,175.561737 124.070731,176.367263 C119.45335,178.349309 115.833765,176.067056 112.821341,168.646703 C107.280288,154.997705 97.7155181,150.763899 85.7370168,154.698425 C75.5579348,158.041903 64.3022804,167.309454 56.3766958,178.247087 C54.9472432,180.21979 50.8055321,185.834573 50.5015653,186.251001 C48.5791356,188.88469 47.3640346,190.643916 46.4225135,192.195355 C44.2800172,195.725761 43.6665075,198.088322 44.3667566,200.377917 C45.2751986,203.348237 48.275627,206.333283 56.0583565,212.296147 C59.5996494,215.009365 61.805747,218.431798 63.0823956,222.75969 C64.0422807,226.01374 64.3712269,228.771121 64.7838915,235.082014 C64.7893619,235.165672 64.7893619,235.165672 64.7948334,235.249319 C65.3549734,243.810892 66.0178868,247.587651 68.2628237,251.623162 C71.2079828,256.917396 76.5963937,260.553364 85.5234663,262.631083 Z" transform="scale(-1 1) rotate(53.5 0 -13.913)"/>
    <path d="M86.1421348,257.599848 C97.014175,260.144926 106.255251,258.164909 114.31587,252.282815 C120.893081,247.483212 126.432671,240.366896 131.893702,230.598734 C133.28708,228.106395 134.643965,225.505984 136.205671,222.375299 C136.960536,220.862055 139.469166,215.743415 139.950241,214.776248 C142.544095,209.561486 146.552455,205.761928 156.887752,197.604136 C157.068315,197.461618 157.068315,197.461618 157.24883,197.319124 C167.328703,189.361898 171.344815,185.514547 173.728438,180.477143 C176.818428,173.946944 174.960123,167.358659 166.94161,159.84414 C161.063075,154.335094 155.424253,152.907602 149.640548,154.799097 C145.101848,156.283428 140.956051,159.431917 135.096308,165.209002 C134.305242,165.988909 131.494635,168.805392 131.71296,168.587592 C130.389833,169.907538 129.420751,170.848213 128.489746,171.704289 C126.112973,173.889776 124.209089,175.291677 122.437067,176.054418 C118.068244,177.934913 114.640521,175.764191 111.792867,168.730048 C106.569504,155.827539 97.5685489,151.824573 86.2953467,155.53663 C76.7097323,158.692995 66.1101895,167.451944 58.6485978,177.791844 C57.3021909,179.657628 53.400964,184.968188 53.1169124,185.35893 C51.3070091,187.848636 50.1631503,189.511468 49.276905,190.977685 C47.262296,194.310681 46.6856048,196.538623 47.3415735,198.695869 C48.1945277,201.500928 51.0212975,204.324872 58.3589993,209.969682 C61.7027103,212.541961 63.7865772,215.785652 64.9932902,219.885835 C65.9001933,222.967321 66.2116412,225.577412 66.6036125,231.550175 C66.6088145,231.629442 66.6088145,231.629442 66.6140176,231.708697 C67.145646,239.805135 67.7717882,243.376266 69.8870708,247.190839 C72.6614105,252.193916 77.7349006,255.631766 86.1421348,257.599848 Z" transform="scale(-1 1) rotate(52.305 0 -19.937)"/>
    <path d="M86.8987252,252.543178 C97.10058,254.946992 105.767871,253.08603 113.326831,247.547294 C119.496312,243.026682 124.691878,236.320718 129.81315,227.113591 C131.119422,224.765149 132.391462,222.314806 133.85559,219.364563 C134.563027,217.939067 136.914986,213.115276 137.366568,212.202726 C139.802166,207.280902 143.565704,203.698246 153.270138,196.00741 C153.439081,195.873523 153.439081,195.873523 153.607979,195.73966 C163.065748,188.243329 166.832813,184.61929 169.065926,179.875688 C171.958858,173.730488 170.21396,167.528348 162.688656,160.44516 C157.173474,155.253999 151.889716,153.908056 146.47116,155.685359 C142.216126,157.081023 138.327959,160.045864 132.831452,165.488217 C132.089487,166.222873 129.455697,168.873565 129.656578,168.672306 C128.414776,169.916447 127.505011,170.803301 126.630896,171.610425 C124.398049,173.672151 122.608657,174.994875 120.941149,175.714857 C116.820779,177.493915 113.584913,175.434586 110.902036,168.786514 C105.996303,156.630283 97.5591774,152.85816 86.9913563,156.347731 C77.9992472,159.316992 68.0558316,167.567424 61.0582431,177.30971 C59.7948865,179.0686 56.1341458,184.075027 55.8700041,184.440068 C54.1726247,186.785826 53.1000062,188.352288 52.2690337,189.733305 C50.3822637,192.868982 49.8423722,194.962404 50.4541374,196.987416 C51.2516532,199.627283 53.904773,202.290158 60.7974784,207.617031 C63.9435767,210.048422 65.9051839,213.113406 67.0419531,216.985917 C67.8958703,219.894867 68.1898238,222.357696 68.5611134,227.992406 C68.5660473,228.067284 68.5660473,228.067284 68.5709823,228.142151 C69.0741156,235.773614 69.6634996,239.139203 71.649172,242.732936 C74.2527344,247.444947 79.0113288,250.684709 86.8987252,252.543178 Z" transform="scale(-1 1) rotate(51.191 0 -26.002)"/>
    <path d="M87.7863549,247.467108 C97.3179486,249.729684 105.411356,247.987789 112.468601,242.792392 C118.230345,238.550715 123.081891,232.254983 127.863393,223.608722 C129.082562,221.404132 130.269758,219.103814 131.636308,216.333958 C132.296318,214.996186 134.491602,210.467158 134.913685,209.609206 C137.190987,204.980218 140.7097,201.614383 149.78323,194.39036 C149.940561,194.2651 149.940561,194.2651 150.097847,194.139865 C158.933511,187.104312 162.45152,183.70354 164.534138,179.253652 C167.230102,173.493241 165.598537,167.676991 158.566317,161.024946 C153.414476,156.151624 148.485853,154.887251 143.432541,156.550329 C139.461216,157.857318 135.830683,160.638542 130.697437,165.746223 C130.004571,166.435638 127.547549,168.920604 127.73104,168.735866 C126.570565,169.904227 125.72012,170.737277 124.902896,171.495467 C122.813974,173.433493 121.139072,174.677081 119.576057,175.354337 C115.704012,177.032096 112.659998,175.083995 110.141908,168.821825 C105.553732,157.411612 97.6804509,153.870337 87.8181107,157.137403 C79.4195521,159.919566 70.1322826,167.661585 63.5987093,176.806404 C62.4184089,178.45843 58.9981569,183.160834 58.7539186,183.500156 C57.1690602,185.70201 56.1676795,187.172128 55.3919767,188.467973 C53.6329879,191.406438 53.1298736,193.365463 53.6975266,195.258381 C54.4396634,197.733139 56.9191443,200.234985 63.3668915,205.244061 C66.3153395,207.534629 68.1546529,210.42095 69.2214682,214.065832 C70.0223948,216.802278 70.2988588,219.117884 70.6494811,224.414634 C70.6541473,224.485126 70.6541473,224.485126 70.6588144,224.555606 C71.1334725,231.722291 71.6861142,234.88244 73.5422293,238.255452 C75.9750653,242.676506 80.4187952,245.718222 87.7863549,247.467108 Z" transform="scale(-1 1) rotate(50.162 0 -32.065)"/>
    <path d="M88.7974335,242.376967 C97.6586732,244.498337 105.178075,242.875525 111.733537,238.023443 C117.087539,234.060633 121.595066,228.174987 126.036786,220.08938 C127.168854,218.02859 128.271207,215.87824 129.540178,213.288705 C130.152764,212.038627 132.19137,207.804254 132.583947,207.000878 C134.702904,202.664604 137.976785,199.515488 146.419363,192.758103 C146.565088,192.641467 146.565088,192.641467 146.710771,192.524854 C154.924327,185.949934 158.19327,182.772372 160.125413,178.616089 C162.624514,173.240209 161.106196,167.809538 154.566908,161.588404 C149.778391,157.032861 145.204987,155.850085 140.517037,157.398899 C136.829472,158.617203 133.456583,161.214847 128.686623,165.987932 C128.042856,166.63212 125.762545,168.951436 125.92871,168.783198 C124.849563,169.875808 124.058442,170.655076 123.298113,171.364352 C121.353115,173.178752 119.7927,174.343255 118.334151,174.977823 C114.710275,176.554455 111.858106,174.717378 109.504814,168.840901 C105.234106,158.176389 97.9246875,154.865967 88.7679509,157.910501 C80.9629985,160.505579 72.3318975,167.739314 66.2623541,176.286843 C65.1651169,177.832044 61.985357,182.23056 61.761014,182.544141 C60.2886733,184.602143 59.3585276,185.975954 58.6380904,187.186659 C57.0068131,189.928045 56.5404489,191.75282 57.0640995,193.513815 C57.7509295,195.823568 60.0567857,198.164436 66.0596223,202.855892 C70.9915834,206.710415 72.1970597,210.842917 72.8610852,220.822049 C72.8654842,220.888158 72.8654842,220.888158 72.8698839,220.954255 C73.3160915,227.656403 73.83201,230.611238 75.5586322,233.763675 C77.820804,237.89391 81.9497086,240.73763 88.7974335,242.376967 Z" transform="scale(-1 1) rotate(49.221 0 -38.073)"/>
    <path d="M89.9237609,237.277412 C104.974966,240.916197 115.200096,233.300389 124.325057,216.560118 C125.370026,214.64306 126.387538,212.642609 127.558929,210.23331 C128.124092,209.070891 130.006017,205.131037 130.369077,204.38221 C132.329628,200.338496 135.358671,197.40597 143.170234,191.115006 C143.304364,191.006987 143.304364,191.006987 143.438452,190.898993 C151.029897,184.784522 154.049764,181.830099 155.831455,177.967286 C158.133824,172.975615 156.728645,167.930133 150.682099,162.139617 C146.256884,157.901779 142.038807,156.800634 137.716365,158.235134 C134.312624,159.364742 131.197387,161.778851 126.790746,166.217434 C126.196078,166.816412 124.092408,168.970175 124.241324,168.818411 C123.24351,169.835306 122.511717,170.560819 121.808285,171.221207 C120.00721,172.912074 118.56128,173.997555 117.207163,174.589486 C113.831262,176.065207 111.170932,174.338901 108.982449,168.847855 C105.0291,158.928643 98.2835647,155.849079 89.8325857,158.671049 C82.6213082,161.079056 74.6464028,167.804668 69.0409073,175.755132 C68.0267422,177.193557 65.087479,181.288353 64.8830215,181.576166 C63.5231942,183.490383 62.6642799,184.767929 61.9991035,185.893538 C60.4954526,188.43801 60.0658054,190.128717 60.5455869,191.757999 C61.1771994,193.90288 63.3094495,196.082835 68.8674358,200.45689 C73.4442848,204.058804 74.5648703,207.915272 75.1876727,217.219119 C75.1918048,217.280849 75.1918048,217.280849 75.1959377,217.342567 C75.6137257,223.580479 76.092945,226.330158 77.6901535,229.262203 C79.7817386,233.101789 83.5958678,235.747578 89.9237609,237.277412 Z" transform="scale(-1 1) rotate(48.369 0 -43.972)"/>
    <path d="M91.1549641,232.173215 C104.973009,235.552478 114.350856,228.516004 122.717733,213.025564 C123.675608,211.252153 124.608281,209.401512 125.682091,207.172341 C126.199834,206.097536 127.92507,202.452029 128.258603,201.757715 C130.060669,198.006366 132.844864,195.29027 140.025334,189.465448 C140.147879,189.366041 140.147879,189.366041 140.270384,189.266657 C147.239715,183.612402 150.010491,180.881027 151.641762,177.311507 C153.74756,172.703635 152.455384,168.042852 146.901344,162.68258 C142.8394,158.76235 138.976785,157.742879 135.020037,159.063001 C131.9002,160.103897 129.042626,162.334532 124.999345,166.438733 C124.453776,166.992523 122.526661,168.980853 122.658425,168.845531 C121.741947,169.786758 121.069487,170.458551 120.422957,171.070085 C118.765805,172.637537 117.434357,173.644076 116.18463,174.193433 C113.056457,175.568519 110.58796,173.952662 108.564301,168.846712 C104.928171,159.672291 98.7465423,156.823591 91.0015173,159.422954 C84.3840012,161.643907 77.0653249,167.861604 71.9238998,175.215292 C70.992818,176.547002 68.2940579,180.338293 68.1094733,180.600303 C66.8621545,182.37082 66.0744672,183.552157 65.4645455,184.592723 C64.0884152,186.94049 63.6954443,188.497359 64.1315212,189.995194 C64.7080275,191.975375 66.6666968,193.9945 71.7799107,198.051437 C76.001496,201.400937 77.0371585,204.98143 77.6187978,213.610361 C77.6226639,213.667717 77.6226639,213.667717 77.6265306,213.725061 C78.0159386,219.49912 78.4584889,222.043843 79.9263829,224.755726 C81.847479,228.304885 85.3468979,230.752827 91.1549641,232.173215 Z" transform="scale(-1 1) rotate(47.61 0 -49.703)"/>
    <path d="M92.4688711,227.073541 C105.053397,230.193391 113.583821,223.736095 121.192509,209.494681 C122.063294,207.864806 122.911128,206.163859 123.887355,204.114677 C124.35768,203.127425 125.92622,199.77604 126.230211,199.136192 C127.873689,195.676959 130.413023,193.177082 136.962297,187.818042 C137.073271,187.727237 137.073271,187.727237 137.184208,187.636455 C143.531423,182.442108 146.053091,179.933661 147.53398,176.657203 C149.44341,172.4326 148.264066,168.155879 143.202226,163.225363 C139.503514,159.622611 135.996532,158.684873 132.405719,159.890532 C129.56989,160.842696 126.969991,162.889936 123.290125,166.659913 C122.793652,167.168543 121.042985,168.991597 121.157718,168.872676 C120.322582,169.738296 119.709462,170.356414 119.11984,170.919136 C117.606611,172.363327 116.389643,173.291029 115.244253,173.797893 C112.363487,175.072707 110.086818,173.566883 108.227999,168.845592 C104.908908,160.415293 99.2912134,157.797465 92.2523984,160.174165 C86.228755,162.208086 79.5663492,167.91814 74.8890232,174.67543 C74.0410391,175.900505 71.582791,179.388572 71.4180634,179.624733 C70.2832467,181.251659 69.5667809,182.336861 69.0121063,183.292454 C67.7633635,185.443788 67.4070177,186.867112 67.7995958,188.23384 C68.3211382,190.049548 70.1062613,191.907957 74.7748056,195.648147 C78.6409327,198.745483 79.5916324,202.050082 80.132187,210.004579 C80.1357879,210.057567 80.1357879,210.057567 80.1393892,210.110544 C80.500469,215.421248 80.9063892,217.761272 82.2450947,220.253296 C83.9958285,223.512317 87.1806238,225.762523 92.4688711,227.073541 Z" transform="scale(-1 1) rotate(46.944 0 -55.187)"/>
    <path d="M93.8709968,221.974938 C105.221527,224.835514 112.904346,218.957188 119.754704,205.96372 C120.538403,204.477232 121.301401,202.925824 122.180042,201.056443 C122.602954,200.156664 124.014784,197.099102 124.289214,196.513658 C125.77397,193.346207 128.068422,191.062269 133.986361,186.16853 C134.085782,186.086317 134.085782,186.086317 134.185168,186.004126 C139.910266,181.269275 142.182805,178.983594 143.513364,175.999885 C145.226687,172.157844 144.15995,168.264344 139.58991,163.762927 C136.254374,160.477476 133.10325,159.621549 129.878695,160.71263 C127.327007,161.576035 124.9848,163.439988 121.668416,166.875953 C121.221039,167.339461 119.646685,168.997442 119.74454,168.894873 C118.990754,169.684968 118.436983,170.249471 117.904278,170.763437 C116.534973,172.084573 115.432484,172.933575 114.391361,173.398058 C111.757577,174.573088 109.672734,173.176743 107.978774,168.839525 C104.976484,161.152455 99.9227532,158.765504 93.5904905,160.919463 C88.1608659,162.766385 82.1547832,167.969161 77.9415931,174.130561 C77.176726,175.249108 74.9590032,178.434324 74.8141112,178.644576 C73.7917889,180.128061 73.1465377,181.117224 72.6471003,181.987939 C71.5255738,183.943199 71.2057879,185.233363 71.5551295,186.469433 C72.0218931,188.120976 73.6335193,189.818823 77.857533,193.242765 C81.3679472,196.088271 82.2336346,199.117088 82.7332084,206.397798 C82.7365452,206.446429 82.7365452,206.446429 82.7398824,206.495048 C83.0727035,211.343058 83.4420447,213.478727 84.6517261,215.75129 C86.2322644,218.720563 89.1025555,220.773189 93.8709968,221.974938 Z" transform="scale(-1 1) rotate(46.374 0 -60.382)"/>
    <path d="M95.3517776,216.880612 C105.467662,219.482099 112.302632,214.182452 118.394468,202.435436 C119.091089,201.092127 119.769252,199.690044 120.550301,198.000205 C120.925803,197.187788 122.180907,194.423635 122.425748,193.892509 C123.751596,191.016388 125.801135,188.948007 131.087547,184.518907 C131.175439,184.44527 131.175439,184.44527 131.263297,184.371655 C136.36628,180.095726 138.389662,178.032586 139.56996,175.341186 C141.087519,171.88074 140.13309,168.369313 136.054312,164.296084 C130.700753,158.94981 126.506312,160.382775 120.124377,167.087693 C119.726095,167.506131 118.327877,168.999318 118.409057,168.913037 C117.73663,169.627718 117.242223,170.138689 116.766446,170.603977 C115.541071,171.802339 114.553061,172.572831 113.616113,172.995085 C111.228726,174.071008 109.335715,172.783387 107.806635,168.829431 C105.120824,161.884353 100.631086,159.728284 95.0058483,161.659391 C90.1704396,163.319355 84.8207473,168.015365 81.0717425,173.581579 C80.3900187,174.593747 78.4128413,177.47663 78.2877561,177.660889 C77.3779184,179.001136 76.8038727,179.894396 76.3596594,180.680363 C75.3651246,182.44004 75.0818135,183.597564 75.3882603,184.703581 C75.8004922,186.191393 77.238694,187.728897 81.0183719,190.837286 C84.1727299,193.431416 84.9533421,196.184617 85.412078,202.792435 C85.4151524,202.836721 85.4151524,202.836721 85.4182271,202.880994 C85.7228857,207.267222 86.0557176,209.199003 87.1365938,211.252656 C88.5471639,213.932723 91.1031201,215.78799 95.3517776,216.880612 Z" transform="scale(-1 1) rotate(45.901 0 -65.23)"/>
    <path d="M96.9018081,211.794178 C105.78212,214.136831 111.768911,209.41544 117.101953,198.91272 C117.711502,197.712295 118.304831,196.459229 118.98828,194.94856 C119.316377,194.223347 120.414725,191.752008 120.629941,191.275075 C121.796618,188.689644 123.601192,186.836273 128.255801,182.87087 C128.332195,182.805788 128.332195,182.805788 128.408557,182.740729 C132.88943,178.92289 134.66362,177.081963 135.693757,174.682232 C137.016012,171.602003 136.173478,168.471026 132.585208,164.824671 C127.890553,160.054021 124.237442,161.317476 118.648158,167.295009 C118.298968,167.668454 117.076655,168.997235 117.141427,168.927161 C116.550378,169.566586 116.115354,170.024143 115.696523,170.440866 C114.615088,171.516857 113.741563,172.209108 112.908663,172.58935 C110.766843,173.56715 109.065686,172.387182 107.701505,168.815315 C105.331718,162.61045 101.406,160.685261 96.488464,162.393351 C92.2475463,163.866419 87.5543321,168.056402 84.2695803,173.028454 C83.6710371,173.934455 81.9344372,176.515746 81.8291183,176.67389 C81.0317529,177.871196 80.5289006,178.668747 80.1398941,179.370154 C79.2720479,180.934945 79.0250982,181.960552 79.2891062,182.937358 C79.6471468,184.262077 80.9120361,185.639565 84.2476608,188.433409 C87.0454853,190.776804 87.740942,193.254641 88.1590438,199.190862 C88.1618581,199.23082 88.1618581,199.23082 88.1646726,199.270766 C88.4413076,203.19651 88.7377279,204.925067 89.6901008,206.760591 C90.9310226,209.15224 93.1728951,210.81048 96.9018081,211.794178 Z" transform="scale(-1 1) rotate(45.527 0 -69.672)"/>
    <path d="M98.5122955,206.720581 C106.155656,208.804757 111.293798,204.660973 115.867644,195.399281 C116.390128,194.34129 116.89862,193.236777 117.484452,191.904716 C117.76515,191.266466 118.706696,189.087045 118.892233,188.664119 C119.899345,186.368429 121.458868,184.729254 125.481256,181.22613 C125.546195,181.169574 125.546195,181.169574 125.611105,181.113041 C129.469883,177.752025 130.994837,176.132805 131.874954,174.023758 C133.002544,171.321689 132.27131,168.568759 129.172456,165.347282 C125.136792,161.151924 122.026529,162.245256 117.230206,167.496559 C116.930107,167.825126 115.88338,168.990074 115.932119,168.936099 C115.422472,169.500508 115.046863,169.904829 114.685005,170.273153 C113.747535,171.227375 112.988516,171.841784 112.259481,172.180342 C110.361993,173.061523 108.852743,171.987617 107.653472,168.796059 C105.599041,163.328712 102.237349,161.634387 98.0285362,163.119197 C94.3825088,164.405464 90.3458886,168.090555 87.5254871,172.470002 C82.703479,179.957492 82.8563306,179.674919 83.2480672,181.17141 C83.5524032,182.334018 84.6441613,183.552006 87.5361642,186.032841 C89.9767646,188.126452 90.5869625,190.329341 90.9647353,195.595925 C90.967293,195.631583 90.967293,195.631583 90.9698507,195.667229 C91.4670232,202.59507 92.7707346,205.154984 98.5122955,206.720581 Z" transform="scale(-1 1) rotate(45.251 0 -73.654)"/>
    <path d="M100.175996,201.668042 C106.58022,203.494264 110.869023,199.927016 114.683029,191.901047 C115.118453,190.984767 115.542099,190.028055 116.030281,188.873693 C116.263586,188.322018 117.048246,186.43307 117.204019,186.063847 C118.050947,184.056404 119.365256,182.630129 122.754749,179.587016 C122.808295,179.538942 122.808295,179.538942 122.861813,179.49089 C126.098532,176.584622 127.374194,175.186275 128.104511,173.366286 C129.038351,171.039108 128.417521,168.660436 125.806407,165.860596 C123.922091,163.840085 122.199006,163.313232 120.446519,163.943303 C119.034217,164.451066 117.722939,165.584409 115.861869,167.689132 C115.610858,167.973006 114.73927,168.975017 114.772513,168.936994 C114.344316,169.426772 114.028171,169.778142 113.723334,170.098333 C112.929887,170.931746 112.285421,171.468948 111.659983,171.766349 C110.004868,172.553372 108.68766,171.583018 107.653279,168.768866 C105.913161,164.034679 103.115437,162.571157 99.6169923,163.832237 C96.5664663,164.931857 93.1865933,168.113922 90.8306901,171.903313 C86.8079226,178.373801 86.9360071,178.128677 87.256416,179.406071 C87.507778,180.408191 88.4267207,181.467553 90.8758026,183.637895 C92.9581282,185.483223 93.4829359,187.411896 93.8208675,192.012032 C93.8231743,192.043434 93.8231743,192.043434 93.825481,192.074825 C94.2671297,198.084053 95.3656132,200.296318 100.175996,201.668042 Z" transform="scale(-1 1) rotate(45.075 0 -77.13)"/>
    <path d="M101.900607,196.67941 C107.06207,198.251196 110.499998,195.255244 113.552094,188.447171 C113.900305,187.670445 114.238923,186.859299 114.629209,185.879925 C114.815015,185.413666 115.442322,183.810877 115.568161,183.494395 C116.253534,181.770696 117.322126,180.55372 120.077135,177.963877 C120.119345,177.924198 120.119345,177.924198 120.16153,177.88454 C122.776033,175.426525 123.802162,174.246228 124.382857,172.710368 C125.124183,170.749658 124.611854,168.735672 122.485071,166.348102 C120.962113,164.638398 119.598642,164.194311 118.218793,164.70766 C117.093069,165.126466 116.039628,166.079946 114.543381,167.857011 C114.341511,168.096768 113.644723,168.938073 113.663075,168.916033 C113.316487,169.332301 113.059943,169.631551 112.812258,169.904371 C112.163075,170.61943 111.633361,171.080995 111.111091,171.338414 C109.694766,172.036501 108.569855,171.164162 107.699922,168.719233 C106.271579,164.704909 104.037331,163.470091 101.252491,164.507353 C98.7986424,165.421331 96.0760723,168.106711 94.1853629,171.314397 C90.9594241,176.787368 91.0639599,176.576519 91.3152138,177.641555 C91.5148121,178.487629 92.2617106,179.391359 94.2698897,181.258803 C95.9923192,182.860522 96.4317902,184.518331 96.7313459,188.462461 C96.7334171,188.489731 96.7334171,188.489731 96.735488,188.516991 C97.1235649,193.62441 98.0194826,195.497518 101.900607,196.67941 Z" transform="scale(-1 1) rotate(45 0 -80.075)"/>
  </g>
</svg>
