<svg xmlns="http://www.w3.org/2000/svg" width="400" height="400" viewBox="0 0 400 400">
  <defs>
    <linearGradient id="a" x1="0%" x2="96.353%" y1="50%" y2="50%">
      <stop offset="0%" stop-color="#1E3888"/>
      <stop offset="20%" stop-color="#605283"/>
      <stop offset="40%" stop-color="#8B6E7D"/>
      <stop offset="60%" stop-color="#B28C76"/>
      <stop offset="80%" stop-color="#D8AC6B"/>
      <stop offset="100%" stop-color="#FDCD5C"/>
    </linearGradient>
  </defs>
  <g fill="none" fill-rule="evenodd" stroke="url(#a)" transform="translate(12 -43)">
    <path d="M122.327857,369.640675 C154.461576,376.545246 181.92064,370.815825 205.931632,354.193596 C225.480114,340.660654 241.979741,320.709739 258.271762,293.404722 C262.448683,286.404307 266.517248,279.102275 271.196981,270.319594 C273.47027,266.0532 280.986942,251.695387 282.405253,249.025321 C286.662863,241.010082 293.501431,233.045495 303.164138,224.370663 C310.483621,217.799494 317.138563,212.588388 332.251674,201.260752 C332.808232,200.843604 332.808232,200.843604 333.364693,200.426489 C348.069346,189.403417 355.033287,183.925573 362.291879,177.337998 C371.756986,168.747887 378.37779,160.864098 382.366806,152.968708 C391.755005,134.386806 386.311294,115.727707 362.640052,94.770085 C345.24171,79.3662514 328.340208,75.4224014 310.962495,80.8961246 C297.411745,85.1644105 285.067475,94.0641837 267.650655,110.313676 C265.293255,112.513076 256.807263,120.560107 257.628589,119.784569 C253.714627,123.480334 250.85767,126.106743 248.115786,128.496782 C241.155485,134.56392 235.607298,138.451085 230.507959,140.560894 C218.218989,145.645354 208.701965,139.992689 200.648167,120.901734 C185.378777,84.7067282 158.48432,73.5439093 124.79812,84.2462854 C96.349274,93.2847118 64.8698136,117.969983 42.6245643,147.007062 C38.6323761,152.218129 27.0695073,167.047891 26.1298789,168.266008 C20.7305175,175.265641 17.3138992,179.948424 14.6655595,184.08356 C8.57036084,193.600644 6.82446138,200.047944 8.91504842,206.355912 C11.5489487,214.30323 19.8840617,222.13787 41.2962828,237.654908 C50.9027606,244.616544 56.8529099,253.432261 60.2635817,264.635896 C62.8404635,273.100634 63.6974941,280.308291 64.7235904,296.838381 C64.7369682,297.053895 64.7369682,297.053895 64.7503506,297.269398 C65.446291,308.474245 65.9273985,313.745441 67.0206405,319.881055 C68.4514659,327.911293 70.7012221,334.648747 74.1603765,340.601482 C82.345688,354.687292 97.4129463,364.287208 122.327857,369.640675 Z" transform="scale(1 -1) rotate(-72.642 -109.394 0)"/>
    <path d="M123.85272,366.659002 C155.306428,373.423467 182.182978,367.814096 205.683993,351.536225 C224.817681,338.283362 240.966879,318.744198 256.912659,292.001863 C261.000609,285.146046 264.982506,277.994819 269.562584,269.393431 C271.787351,265.215319 279.143974,251.153845 280.532326,248.53844 C284.700194,240.686935 291.394656,232.885593 300.853708,224.388921 C308.018603,217.952994 314.53291,212.849307 329.326607,201.755272 C329.871146,201.346919 329.871146,201.346919 330.41559,200.938599 C344.809254,190.143004 351.625527,184.778484 358.730202,178.327067 C367.994212,169.914861 374.474055,162.194413 378.377739,154.462804 C387.564406,136.267757 382.235661,117.996329 359.065497,97.4703642 C342.035761,82.3840775 325.494397,78.5210072 308.487314,83.8800159 C295.224711,88.0591217 283.142594,96.7744795 266.095295,112.688103 C263.78797,114.841988 255.483431,122.721355 256.285493,121.963585 C252.454366,125.583146 249.657773,128.155479 246.973791,130.496312 C240.160055,136.438906 234.728414,140.246332 229.735532,142.312919 C217.700101,147.294467 208.377906,141.753868 200.490734,123.049951 C185.543074,87.6025446 159.220991,76.669526 126.251426,87.1479974 C98.405783,95.9979708 67.5939718,120.17251 45.8213633,148.609849 C41.913754,153.713602 30.5958536,168.237939 29.6771141,169.429692 C24.392509,176.284671 21.0485517,180.870594 18.456555,184.920119 C12.4919537,194.238728 10.7835096,200.550487 12.8280596,206.725084 C15.4049095,214.507242 23.5637746,222.181027 44.525453,237.380889 C53.9316364,244.201559 59.7581322,252.838452 63.0982549,263.814173 C65.621675,272.10619 66.4611957,279.166327 67.4668667,295.35766 C67.4799805,295.568794 67.4799805,295.568794 67.4930988,295.779917 C68.1751258,306.754176 68.6464391,311.916888 69.7169662,317.926025 C71.1179856,325.790298 73.3203933,332.388396 76.7063405,338.217956 C84.7183761,352.012218 99.4658559,361.41434 123.85272,366.659002 Z" transform="scale(1 -1) rotate(-74.317 -100.252 0)"/>
    <path d="M125.377358,363.675517 C156.151051,370.299876 182.445083,364.810555 205.436119,348.877041 C224.155014,335.904256 239.953782,316.77684 255.55332,290.59718 C259.5523,283.885958 263.447528,276.885534 267.927952,268.465438 C270.104196,264.375606 277.30077,250.610467 278.659164,248.049724 C282.737287,240.361949 289.287644,232.72385 298.543041,224.405335 C305.553347,218.10465 311.927018,213.10838 326.401303,202.247943 C326.933823,201.848384 326.933823,201.848384 327.466249,201.448858 C341.548923,190.88074 348.217528,185.629541 355.168287,179.314281 C364.2312,171.07998 370.570081,163.522871 374.388434,155.955042 C383.373573,138.14684 378.15979,120.263072 355.490699,100.168759 C338.82957,85.4000171 322.648346,81.6177273 306.011897,86.8620205 C293.037443,90.9519458 281.217478,99.4828893 264.539703,115.060647 C262.282452,117.169017 254.159364,124.880722 254.942165,124.14072 C251.193872,127.684078 248.457643,130.202335 245.831563,132.493962 C239.164393,138.312014 233.849297,142.039703 228.962871,144.063071 C217.180974,148.94171 208.053607,143.513172 200.333061,125.196285 C185.70713,90.4964691 159.957421,79.793251 127.704495,90.0478171 C100.462057,98.7093378 70.3178959,122.373148 49.0179289,150.210754 C45.1948987,155.207194 34.1219668,169.426111 33.2241157,170.591498 C28.0542668,177.301824 24.7829703,181.79089 22.2473165,185.754805 C16.4133097,194.874942 14.74232,201.051167 16.740838,207.092399 C19.2606402,214.709398 27.2432576,222.222331 47.7543941,237.105022 C56.9602816,243.784728 62.6631224,252.242798 65.9326955,262.990607 C68.4026536,271.109905 69.2246646,278.022523 70.2099109,293.875101 C70.2227608,294.081856 70.2227608,294.081856 70.2356149,294.2886 C71.5847544,315.983571 73.2913815,325.564971 79.2520764,335.832611 C87.0908379,349.335329 101.51854,358.539657 125.377358,363.675517 Z" transform="scale(1 -1) rotate(-76.044 -91.183 0)"/>
    <path d="M126.902027,360.690006 C156.995702,367.174261 182.707212,361.804991 205.188266,346.215833 C223.492366,333.523123 238.940705,314.807449 254.194,289.190458 C258.104011,282.62383 261.91257,275.774206 266.293339,267.535401 C268.421062,263.533847 275.457586,250.065041 276.786022,247.558958 C280.7744,240.034911 287.18065,232.560052 296.232391,224.419692 C303.088109,218.254246 309.321144,213.365393 323.476015,202.73855 C323.996516,202.347786 323.996516,202.347786 324.516926,201.957054 C338.288609,191.616409 344.809546,186.478531 351.606388,180.299428 C360.468204,172.243028 366.666124,164.849257 370.399146,157.445206 C379.182763,140.02384 374.083937,122.527722 351.915913,102.865051 C335.623391,88.4138535 319.802311,84.7123448 303.536499,89.8419213 C290.850197,93.8426659 279.292384,102.189196 262.984134,117.43109 C260.776957,119.493946 252.835316,127.037993 253.59886,126.315757 C249.933402,129.782913 247.257536,132.247095 244.689359,134.489518 C238.168754,140.183029 232.970202,143.830983 228.190231,145.811132 C216.661863,150.58687 207.729325,145.270384 200.175405,127.340521 C185.871198,93.3882845 160.693865,82.9148672 129.157583,92.9455273 C102.518352,101.418596 73.0418417,124.571681 52.2145167,151.80956 C48.4760659,156.698689 37.6481022,170.612189 36.7711393,171.75121 C31.7160462,178.316885 28.5174105,182.709094 26.0380995,186.587401 C20.3346843,195.509071 18.7011479,201.549767 20.653639,207.45764 C23.1163966,214.909484 30.9227665,222.261565 50.9833621,236.827091 C59.9889521,243.365838 65.5681363,251.645086 68.7671591,262.164984 C71.183655,270.111564 71.9881565,276.876665 72.9529787,292.390493 C72.9655646,292.592868 72.9655646,292.592868 72.9781547,292.795232 C74.2991516,314.023807 75.9687476,323.399016 81.7978398,333.445234 C89.4633297,346.656412 103.571255,355.662948 126.902027,360.690006 Z" transform="scale(1 -1) rotate(-77.821 -82.216 0)"/>
    <path d="M128.426994,357.702288 C157.840647,364.04644 182.969631,358.797221 204.940701,343.552419 C222.830006,331.139781 237.927914,312.835845 252.834967,287.781514 C256.656008,281.359479 260.377898,274.660653 264.659014,266.603136 C266.738214,262.68986 273.61469,249.517381 274.913165,247.065958 C278.811798,239.705637 285.073941,232.394015 293.922024,224.431807 C300.623153,218.401598 306.715553,213.62016 320.551009,203.226908 C321.059493,202.844938 321.059493,202.844938 321.567886,202.463 C335.028578,192.349826 341.401847,187.325267 348.044771,181.282319 C356.705491,173.403819 362.762451,166.173385 366.410142,158.93311 C374.99224,141.898571 370.008369,124.79009 348.341406,105.559054 C332.41749,91.4253983 316.956558,87.8046716 301.061388,92.8195301 C288.663238,96.7310936 277.367579,104.893212 261.428855,119.799245 C259.271751,121.816587 251.511554,129.192979 252.255845,128.488507 C248.673222,131.879464 246.05772,134.289571 243.547444,136.48279 C237.173405,142.051764 232.091398,145.619984 227.417881,147.556916 C216.143036,152.229758 207.405324,147.025317 200.018032,129.482471 C186.035546,96.2778021 161.43059,86.0341858 130.610956,95.8409392 C104.574933,104.125556 75.7660756,126.767922 55.4113933,153.406079 C51.7575221,158.187897 41.1745268,171.795987 40.3184515,172.90864 C35.3781141,179.329667 32.252139,183.62502 29.8291706,187.417719 C24.2563439,196.140928 22.6602596,202.046101 24.5667295,207.820622 C26.9724456,215.107314 34.6025681,222.298545 54.212624,236.546912 C63.0179148,242.944701 68.4734406,251.045131 71.6019126,261.33712 C73.9649458,269.110982 74.751938,275.728568 75.6963368,290.903649 C75.7086587,291.101645 75.7086587,291.101645 75.7209847,291.29963 C77.01384,312.061817 78.6464056,321.23084 84.3438981,331.055641 C91.8361186,343.975284 105.624269,352.784029 128.426994,357.702288 Z" transform="scale(1 -1) rotate(-79.641 -73.376 0)"/>
    <path d="M129.952536,354.712209 C158.686163,360.91626 183.232615,355.787093 204.693698,340.886645 C222.168207,328.754078 236.915686,310.861874 251.476496,286.370195 C255.208567,280.09275 258.843788,273.544722 263.02525,265.668489 C265.055928,261.84349 271.772355,248.967335 273.040871,246.57057 C276.849756,239.373972 282.967791,232.225585 291.612217,224.441525 C298.158757,218.546551 304.11052,213.872526 317.626562,203.712863 C318.123029,203.339687 318.123029,203.339687 318.619406,202.966542 C331.769105,193.080836 337.994706,188.169595 344.483713,182.262801 C352.943335,174.562199 358.859335,167.495099 362.421697,160.418598 C370.802282,143.770876 365.933361,127.05002 344.767453,108.25061 C329.212142,94.4344935 314.111361,90.8945496 298.586838,95.7946888 C286.476843,99.6170709 275.443338,107.594779 259.874141,122.164953 C257.767111,124.136782 250.188353,131.345524 250.913395,130.658815 C247.413607,133.973571 244.858469,136.329606 242.406096,138.473621 C236.178621,143.918061 231.213158,147.40655 226.646094,149.300266 C215.624766,153.870218 207.081881,148.777814 199.861217,131.621976 C186.200449,99.1648635 162.16787,89.1510485 132.064889,98.7338944 C106.632077,106.83006 78.4908732,128.96171 58.6088343,155.000153 C55.0395431,159.674663 44.7015159,172.977347 43.8663278,174.063632 C39.0407459,180.340012 35.9874312,184.53851 33.6208053,188.245604 C28.1785638,196.770356 26.6199305,202.540012 28.480385,208.181189 C30.829063,215.302733 38.2829385,222.333115 57.4424557,236.264329 C66.0474455,242.521164 71.3793109,250.442778 74.4372316,260.506859 C76.7468018,268.108006 77.5162849,274.578079 78.4402609,289.414417 C78.4523189,289.608034 78.4523189,289.608034 78.4643809,289.80164 C79.7290954,310.097448 81.3246315,319.060291 86.890527,328.66368 C94.2094809,341.291794 107.677857,349.90275 129.952536,354.712209 Z" transform="scale(1 -1) rotate(-81.5 -64.685 0)"/>
    <path d="M131.478934,351.719651 C159.532531,357.783601 183.496447,352.774488 204.447539,338.218393 C221.507252,326.365893 235.904302,308.885415 250.118868,284.956381 C253.76197,278.823524 257.310523,272.426289 261.392331,264.731339 C263.374486,260.994615 269.930865,248.41478 271.169421,246.072673 C274.888557,239.039795 280.862483,232.054639 289.30325,224.448724 C295.6952,218.688983 301.506327,214.122369 314.702955,204.19629 C315.187405,203.831908 315.187405,203.831908 315.671766,203.467556 C328.510471,193.809316 334.588405,189.011391 340.923494,183.240749 C349.18202,175.718044 354.957059,168.814277 358.434093,161.901546 C366.613169,145.64063 361.859194,129.307385 341.194334,110.939592 C326.007629,97.4410128 311.267003,93.9818528 296.113131,98.7672711 C284.291294,102.500472 273.519943,110.29377 258.320274,124.52809 C256.263318,126.454406 248.865996,133.495501 249.571793,132.826552 C246.15484,136.065111 243.660066,138.367073 241.265595,140.461886 C235.184686,145.781795 230.335767,149.190554 225.875153,151.041056 C215.107336,155.508125 206.759277,150.527749 199.705241,133.758911 C186.366186,102.049342 162.905987,92.2653285 133.519663,101.624266 C108.690066,109.53198 81.2165164,131.152921 61.8071217,156.591657 C58.3224107,161.158859 48.2293517,174.156144 47.4150503,175.21606 C42.7042236,181.347794 39.7235692,185.44944 37.4132856,189.070929 C32.1016257,197.39723 30.5804421,203.031377 32.3948876,208.539218 C34.6865312,215.495616 41.9641598,222.365152 60.6731396,235.979219 C69.0778264,242.095105 74.2860295,249.837904 77.273398,259.674081 C79.529505,267.102513 80.2814792,273.425074 81.1850332,287.922674 C81.1968273,288.111912 81.1968273,288.111912 81.2086252,288.301139 C82.4452,308.13058 84.0037074,316.887247 89.4380092,326.269231 C96.583699,338.60582 109.732302,347.018989 131.478934,351.719651 Z" transform="scale(1 -1) rotate(-83.394 -56.16 0)"/>
    <path d="M133.006476,348.724527 C160.380039,354.648379 183.761413,349.759318 204.202511,335.547575 C220.847427,323.97514 234.894047,306.906382 248.762368,283.539984 C252.316501,277.551711 255.778386,271.305269 259.76054,263.791598 C261.694174,260.143148 268.090504,247.859627 269.299099,245.572177 C272.928485,238.703016 278.758301,231.881087 286.995408,224.453315 C293.232769,218.828803 298.90326,214.369598 311.780472,204.6771 C312.252905,204.321511 312.252905,204.321511 312.725253,203.965953 C325.252962,194.535176 331.183228,189.850566 337.364399,184.216073 C345.421829,176.871262 351.055908,170.130826 354.447613,163.381864 C362.425188,147.507742 357.786154,131.562093 337.622334,113.625907 C322.804234,100.444862 308.423767,97.0664873 293.640553,101.737183 C282.106875,105.381201 271.59768,112.990092 256.767541,126.88856 C254.760658,128.769365 247.544767,135.642816 248.231324,134.991628 C244.897206,138.15399 242.462796,140.40188 240.126228,142.447492 C234.191883,147.642873 229.459508,150.971905 225.105344,152.779195 C214.59103,157.143388 206.437796,152.275031 199.550389,135.893183 C186.533044,104.931143 163.645226,95.3769314 134.975565,104.51196 C110.749184,112.231224 83.9432906,133.34146 65.0065409,158.180496 C61.6064106,162.640393 51.7583196,175.332284 50.9649043,176.36583 C46.3688327,182.352922 43.4608384,186.357717 41.2068968,189.893602 C36.0258147,198.021459 34.5420794,203.520104 36.3105228,208.894616 C38.5451359,215.685874 45.6465179,222.394565 63.9049616,235.691494 C72.1093433,241.666432 77.1938819,249.230419 80.1106976,258.838694 C82.3133408,266.094414 83.0478064,272.269465 83.9309392,286.428332 C83.9424694,286.613191 83.9424694,286.613191 83.9540033,286.798039 C85.1624395,306.161123 86.6839191,314.711621 91.9866305,323.872207 C98.9590592,335.917277 111.787891,344.13266 133.006476,348.724527 Z" transform="scale(1 -1) rotate(-85.318 -47.817 0)"/>
    <path d="M134.535448,345.726783 C161.228972,351.510539 184.027798,346.741532 203.958898,332.87414 C220.189017,321.581766 233.885208,304.924721 247.407283,282.120948 C250.872447,276.277259 254.247664,270.181606 258.130164,262.84921 C260.015277,259.289033 266.251558,247.301821 267.430192,245.069027 C270.969826,238.36358 276.655531,231.704875 284.688977,224.45524 C290.771749,218.965956 296.301602,214.614158 308.859399,205.155237 C309.319817,204.808441 309.319817,204.808441 309.78015,204.461675 C321.996863,195.258357 327.779462,190.68706 333.806714,185.188716 C341.663048,178.021797 347.156167,171.44469 350.462545,164.859493 C358.238624,149.372152 353.714527,133.814083 334.051739,116.309493 C319.602243,103.445981 305.58194,100.148392 291.169389,104.704364 C279.923873,108.2592 269.676834,115.683685 255.216226,129.246304 C253.259417,131.081597 246.224953,137.787411 246.892274,137.15398 C243.640991,140.240146 241.266946,142.433967 238.98828,144.430378 C233.2005,149.501235 228.584668,152.750542 224.336953,154.514621 C214.076134,158.775947 206.117724,154.019598 199.396947,138.024731 C186.701307,107.810205 164.385872,98.4857957 136.43288,107.396914 C112.809718,114.927728 86.6714818,135.527266 68.2073779,159.766611 C64.8918286,164.119205 55.2887056,176.505709 54.5161759,177.512883 C50.034859,183.355335 47.1995246,187.26328 45.0019249,190.713564 C39.9514165,198.642983 38.5051281,204.006134 40.2275765,209.247327 C42.4051634,215.873448 49.3302991,222.421296 67.1382081,235.401094 C75.1422824,241.23509 80.1031542,248.620269 82.9494163,258.000642 C85.0985954,265.083652 85.8155527,271.111195 86.6782651,284.931334 C86.6895314,285.111815 86.6895314,285.111815 86.7008014,285.292284 C87.8811,304.189023 89.3655529,312.533358 94.5366775,321.472553 C101.335848,333.226111 113.844909,341.243711 134.535448,345.726783 Z" transform="scale(1 -1) rotate(-87.267 -39.668 0)"/>
    <path d="M136.066134,342.726401 C162.079614,348.370062 184.295885,343.72111 203.716984,330.198067 C219.532305,319.185752 232.878066,302.940413 246.053895,280.699254 C249.430091,275.000144 252.71864,269.055278 256.501487,261.904155 C258.338078,258.432249 264.41431,246.74134 265.562983,244.563201 C269.012863,238.021464 274.554456,231.525979 282.384241,224.454478 C288.312422,219.100418 293.701639,214.856025 305.940019,205.630675 C306.388422,205.292672 306.388422,205.292672 306.836742,204.954699 C318.742457,195.978837 324.377388,191.520851 330.250722,186.158653 C337.905959,179.169624 343.258119,172.755843 346.479171,166.334409 C354.05376,151.233835 349.644594,136.063329 330.48283,118.990323 C316.401939,106.444342 302.741804,103.227539 288.699922,107.668785 C277.742572,111.134438 267.757688,118.374519 253.666614,131.601294 C251.759878,133.391076 244.906836,139.929257 245.554927,139.313581 C242.386479,142.323554 240.072798,144.463305 237.852035,146.410517 C232.210819,151.356854 227.71153,154.526439 223.570263,156.24731 C213.562931,160.405777 205.799343,155.761425 199.245198,140.153528 C186.871258,110.686499 165.128207,101.591893 137.891889,110.2791 C114.87195,117.621465 89.4013732,137.710311 71.4099162,161.349973 C68.1789482,165.595266 58.8207931,177.67639 58.0691484,178.657192 C53.7025859,184.355007 50.9399112,188.166104 48.7986531,191.530788 C43.878714,199.261776 42.4698709,204.489442 44.1463323,209.597325 C46.2668975,216.058313 53.0157871,222.445321 70.3731631,235.107998 C78.1769276,240.801056 83.01413,248.007428 85.7898377,257.159904 C87.8855521,264.070205 88.5850014,269.950242 89.4272944,283.43166 C89.4382969,283.607761 89.4382969,283.607761 89.4493029,283.783852 C90.6014653,302.214259 92.0488926,310.352439 97.0884343,319.07025 C103.71435,330.532302 115.903643,338.352121 136.066134,342.726401 Z" transform="scale(1 -1) rotate(-89.236 -31.724 0)"/>
    <path d="M137.598813,339.723394 C162.932244,345.226963 184.565954,340.698066 203.477046,327.519371 C218.877568,316.78711 231.8729,300.953469 244.702482,279.274913 C247.989709,273.720381 251.191591,267.926297 254.874784,260.956443 C256.662854,257.572807 262.579038,246.178196 263.697749,244.05471 C267.057874,237.676678 272.455353,231.344409 280.081475,224.451038 C285.855065,219.232198 291.103645,215.095208 303.022609,206.103425 C303.458997,205.774214 303.458997,205.774214 303.895304,205.445034 C315.49002,196.696624 320.977284,192.351946 326.696699,187.125892 C334.15084,180.31475 339.362041,174.064294 342.497767,167.806618 C349.870874,153.092797 345.576634,138.309836 326.915884,121.668402 C313.203596,109.439947 299.903636,106.303933 286.232429,110.630451 C275.563247,114.00692 265.840521,121.062599 252.118981,133.953534 C250.262319,135.697806 243.590693,142.068359 244.21956,141.470436 C241.133948,144.404217 238.880631,146.4899 236.717771,148.387914 C231.223119,153.209735 226.840373,156.299601 222.80555,157.977266 C213.051697,162.032882 205.482931,157.500517 199.095418,142.279578 C187.043172,113.560029 165.872507,104.695225 139.352872,113.15852 C116.936159,120.312437 92.1332421,139.890598 74.6144329,162.930588 C71.4680468,167.068581 62.3548595,178.844333 61.6240991,179.798761 C57.3722907,185.351942 54.6822755,189.066193 52.5973588,192.345279 C47.8079843,199.877845 46.4365846,204.970035 48.0670675,209.944618 C50.1306158,216.240479 56.7032599,222.466648 73.6101044,234.812213 C81.2135565,240.364338 85.9270868,247.391907 88.6322392,256.316488 C90.6744885,263.054083 91.3564301,268.786617 92.1783047,281.929319 C92.1890433,282.101042 92.1890433,282.101042 92.1997853,282.272754 C93.3238129,300.236843 94.7342157,308.168874 99.6421787,316.665311 C106.094844,327.835864 117.96437,335.457904 137.598813,339.723394 Z" transform="scale(-1 1) rotate(88.78 0 24.508)"/>
    <path d="M139.133755,336.717808 C163.78713,342.081286 184.838271,337.672446 203.239353,324.838097 C218.225075,314.385887 230.869977,298.963935 243.353312,277.84797 C246.551571,272.438011 249.666785,266.794708 253.250325,260.006118 C254.989874,256.71075 260.746009,245.612429 261.834758,243.543595 C265.105125,237.329266 270.35849,231.160207 277.780947,224.444961 C283.399946,219.361338 288.507889,215.331749 300.107436,206.573527 C300.53181,206.253108 300.53181,206.253108 300.956105,205.932719 C312.23982,197.411757 317.579418,193.180387 323.144912,188.090474 C330.397958,181.457216 335.4682,175.370081 338.518601,169.276161 C345.690235,154.949076 341.510914,140.553639 323.351168,124.343763 C310.007482,112.432832 297.067702,109.377608 283.767179,113.589396 C273.386169,116.876681 263.9256,123.747959 250.573597,136.303059 C248.767008,138.001822 242.276792,144.204753 242.886442,143.624581 C239.883665,146.482172 237.690713,148.513788 235.585756,150.362605 C230.237667,155.059915 225.971463,158.070065 222.043084,159.704526 C212.542699,163.657302 205.168755,159.23691 198.947874,144.402916 C187.217317,116.430828 166.619041,107.795828 140.816094,116.035209 C119.002611,123.000678 94.8673566,142.068162 77.8211963,164.508491 C74.7593925,168.539186 65.8911729,180.009575 65.1812961,180.937628 C61.0442416,186.346177 58.4268856,189.963585 56.39831,193.157075 C51.7394949,200.491226 50.4055369,205.44795 51.9900503,210.289245 C53.9965872,216.419985 60.392986,222.485318 76.8493009,234.513781 C84.2524377,239.924977 88.842293,246.773747 91.4768891,255.470437 C93.4656728,262.035327 94.130107,267.62036 94.9315643,280.424353 C94.9420391,280.591698 94.9420391,280.591698 94.9525172,280.759033 C96.0484113,298.256819 97.421791,305.982709 102.19818,314.25778 C108.477598,325.136843 120.027359,332.561106 139.133755,336.717808 Z" transform="scale(-1 1) rotate(86.786 0 17.43)"/>
    <path d="M140.671216,333.709719 C164.644529,338.93311 185.113093,334.644326 203.004159,322.154323 C217.575081,311.982159 229.869553,296.971887 242.006639,276.418499 C245.115931,271.15311 248.144478,265.660583 251.628365,259.053253 C253.319393,255.846152 258.91548,245.044114 259.974266,243.029931 C263.154873,236.979298 268.264121,230.973445 275.482912,224.436318 C280.94732,219.487909 285.914625,215.565717 297.194754,207.041051 C297.607116,206.729424 297.607116,206.729424 298.019399,206.417826 C308.992112,198.124307 314.184043,194.006241 319.595618,189.052468 C326.647568,182.59709 331.576851,176.673274 334.541929,170.743105 C341.512097,156.802739 337.447688,142.794806 319.788936,127.016473 C306.813852,115.423062 294.234259,112.448629 281.304426,116.545684 C271.211591,119.743785 262.013181,126.430665 249.030717,138.649934 C247.274201,140.303189 240.965389,146.338505 241.555828,145.77608 C238.635886,148.557483 236.5033,150.535034 234.456245,152.334656 C229.25472,156.907459 225.105058,159.837897 221.28312,161.429157 C212.036194,165.279104 204.857069,160.97067 198.802822,146.523608 C187.393948,119.298961 167.368061,110.893765 142.281812,118.909231 C121.071562,125.686252 97.6039725,144.243067 81.0304623,166.083746 C78.0532413,170.007147 69.4299893,181.172181 68.7409952,182.073857 C64.7186942,187.337779 62.1739971,190.858345 60.2017624,193.966241 C55.6735012,201.101987 54.3769829,205.923256 55.9155366,210.631276 C57.8650678,216.596899 64.0852218,222.5014 80.0910092,234.212771 C87.2938275,239.483045 91.7600046,246.153019 94.3240435,254.621821 C96.2593609,261.01401 96.9062881,266.451544 97.6873293,278.916836 C97.6975403,279.079803 97.6975403,279.079803 97.7077546,279.24276 C98.7755168,296.274259 100.111875,303.794018 104.756694,311.847733 C110.86287,322.435313 122.092868,329.661803 140.671216,333.709719 Z" transform="scale(-1 1) rotate(84.787 0 10.064)"/>
    <path d="M142.211439,330.699234 C165.504683,335.782539 185.39066,331.613814 202.771705,319.468153 C216.927826,309.57603 228.871868,294.977429 240.662705,274.986602 C243.683029,269.86578 246.624909,264.524025 250.009143,258.097951 C251.65165,254.979113 257.087689,244.47335 258.116511,242.513817 C261.207356,236.626876 266.172487,230.784223 273.18761,224.42521 C278.497427,219.61201 283.324094,215.797213 294.284804,207.506096 C294.685154,207.20326 294.685154,207.20326 295.085427,206.900453 C305.747136,198.834373 310.7914,194.829609 316.049054,190.011972 C322.899909,183.734471 327.688234,177.97397 330.567989,172.207549 C337.336701,158.653883 333.387197,145.033429 316.229426,129.686622 C303.622944,118.410727 291.403544,115.517087 278.84441,119.499408 C269.039755,122.608323 260.103504,129.110808 247.490581,140.994252 C245.784139,142.602 239.656724,148.469707 240.227959,147.925027 C237.390853,150.630243 235.318631,152.553731 233.32948,154.304159 C228.274518,158.752461 224.241398,161.603191 220.525899,163.151252 C211.532419,166.898381 204.548112,162.701892 198.660502,148.641747 C187.573303,122.164517 168.119809,113.989125 143.750266,121.780675 C123.143253,128.36925 100.34333,146.415405 84.2424712,167.656446 C81.3498335,171.472555 72.971549,182.332246 72.3034369,183.207543 C68.3958889,188.326841 65.9238506,191.750567 64.0079563,194.772872 C59.610243,201.710223 58.3511623,206.396049 59.8437671,210.970807 C61.7362987,216.77132 67.7802084,222.514991 83.3354704,233.909284 C90.3379669,239.038641 94.6804625,245.529822 97.1739429,253.77074 C99.0557935,259.99023 99.6852141,265.28027 100.44584,277.406868 C100.455788,277.565458 100.455788,277.565458 100.465738,277.724036 C101.50537,294.289266 102.804708,301.602903 107.317964,309.435273 C113.250902,319.731381 124.161139,326.7601 142.211439,330.699234 Z" transform="scale(-1 1) rotate(82.787 0 2.41)"/>
    <path d="M143.754648,327.686482 C166.367815,332.629706 185.671196,328.581039 202.542214,316.779719 C216.283531,307.167633 227.877145,292.98069 239.32173,273.55241 C242.253087,268.57615 245.108301,263.385163 248.392882,257.140338 C249.986869,254.109762 255.26286,243.900266 256.261718,241.99538 C259.262798,236.272127 264.083809,230.592667 270.895263,224.411762 C276.050487,219.733767 280.736516,216.02636 291.377807,207.968786 C291.766146,207.67474 291.766146,207.67474 292.154409,207.380724 C302.505111,199.542077 307.40171,195.650612 312.505443,190.969109 C319.155203,184.869481 323.80257,179.272292 326.597004,173.669613 C333.164269,160.502626 329.329663,147.269626 312.67286,132.354329 C300.434979,121.395945 288.575779,118.5831 276.387354,122.450683 C266.870883,125.470412 258.196792,131.788505 245.953413,143.336129 C244.297044,144.898371 238.351019,150.598476 238.903057,150.071539 C236.148787,152.700571 234.136931,154.569998 232.205683,156.271233 C227.297284,160.59504 223.380704,163.366065 219.771643,164.870931 C211.031597,168.515256 204.242107,164.430694 198.521133,150.757449 C187.755603,125.027612 168.874503,117.082025 145.221676,124.649657 C125.217906,131.049787 103.085651,148.585292 87.4574453,169.226709 C84.6493916,172.935529 76.5160745,183.489886 75.8688434,184.338803 C72.0760481,189.313481 69.6766681,192.640371 67.817114,195.577087 C63.5499421,202.316053 62.3282965,206.866449 63.7749639,211.307959 C65.6105029,216.94337 71.4781688,222.526214 86.5829079,233.603442 C93.3850789,238.591889 97.603889,244.904283 100.02681,252.91732 C101.855193,258.964114 102.467107,264.106662 103.20732,275.894576 C103.217004,276.048788 103.217004,276.048788 103.22669,276.202989 C104.238194,292.30197 105.500513,299.409495 109.882211,307.020532 C115.641916,317.025177 126.232395,323.856129 143.754648,327.686482 Z" transform="scale(-1 1) rotate(80.793 0 -5.535)"/>
    <path d="M145.301045,324.67162 C167.234127,329.474765 185.954902,325.546159 202.315886,314.089178 C215.6424,304.757122 226.885584,290.981826 237.983916,272.116074 C240.826307,267.284371 243.594855,262.244147 246.779783,256.180567 C248.325251,253.23825 253.441194,243.325012 254.410086,241.474771 C257.321398,235.915198 261.998287,230.398926 268.606071,224.396122 C273.606702,219.853326 278.152092,216.253307 288.473963,208.429268 C288.850292,208.144012 288.850292,208.144012 289.226547,207.858785 C309.602751,192.411326 317.745706,184.933715 322.629174,175.129443 C328.995003,162.349112 325.275286,149.503537 309.119437,135.01973 C297.250156,124.378854 285.751164,121.646806 273.933459,125.399648 C264.705176,128.33019 256.293246,134.463893 244.419413,145.675704 C242.813117,147.192441 237.048474,152.724953 237.581325,152.215755 C234.90989,154.768606 232.958401,156.583972 231.085056,158.236017 C226.323219,162.435336 222.52318,165.126661 219.020553,166.588334 C210.533927,170.129869 203.939253,166.157216 198.384917,152.870854 C187.941047,127.888383 169.632345,120.172602 146.696244,127.516314 C127.295722,133.728 105.831138,150.752865 90.6755864,170.794674 C87.9521173,174.396208 80.0637674,184.645243 79.4374163,185.467777 C75.7593732,190.297841 73.4326513,193.527897 71.629437,196.379027 C67.4927992,202.919621 66.3085863,207.334601 67.7093289,211.642879 C69.4878826,217.113194 75.1793053,222.535216 89.8335242,233.295393 C96.4353657,238.142937 100.530486,244.276548 102.882846,252.06171 C104.657761,257.935811 105.25217,262.930871 105.971971,274.38011 C105.981391,274.529945 105.981391,274.529945 105.990814,274.679769 C106.974191,290.312521 108.199493,297.213946 112.449639,304.603662 C118.036118,314.316855 128.306841,320.950044 145.301045,324.67162 Z" transform="scale(-1 1) rotate(78.809 0 -13.772)"/>
    <path d="M146.850812,321.654824 C168.1038,326.317894 186.241956,322.509349 202.0929,311.396704 C215.004609,302.344673 225.897363,288.98101 236.649443,270.677766 C239.402867,265.990617 242.084749,261.10115 245.170024,255.218808 C246.666973,252.364748 251.622868,242.747756 252.561794,240.95216 C255.383335,235.556261 259.916101,230.203169 266.320211,224.378458 C271.166249,219.970857 275.571,216.478221 285.57345,208.887708 C285.93777,208.611242 285.93777,208.611242 286.302018,208.334805 C306.04538,193.350144 313.934776,186.096789 318.664676,176.587202 C324.829082,164.193503 321.224244,151.735323 305.569333,137.682984 C294.068651,127.359611 282.929877,124.708361 271.482902,128.346459 C262.542813,131.187814 254.393045,137.13713 242.888762,148.013135 C241.332539,149.484368 235.749269,154.849296 236.262942,154.357833 C233.674343,156.834506 231.783219,158.595814 229.967778,160.198671 C225.352503,164.273508 221.669004,166.885137 218.272808,168.303623 C210.039588,171.742382 203.639728,167.881619 198.252032,154.98212 C188.129813,130.746986 170.393512,123.261011 148.174147,130.380801 C129.376879,136.404043 108.579969,152.918281 93.8970731,172.360498 C91.2581893,175.85475 83.6148067,185.798477 83.0093344,186.594626 C79.446043,191.280079 77.1919788,194.413306 75.4451039,197.178853 C71.4389926,203.521086 70.2922094,207.800666 71.6470411,211.97573 C73.3686176,217.280958 78.8837978,222.542162 93.0874994,232.985303 C99.4890069,237.691952 103.460434,243.646786 105.742231,251.204076 C107.463677,256.905488 108.040581,261.753065 108.739971,272.863639 C108.749128,273.009097 108.749128,273.009097 108.758287,273.154544 C109.713541,288.321091 110.901828,295.016429 115.020429,302.184838 C120.433686,311.606592 130.384657,318.042021 146.850812,321.654824 Z" transform="scale(-1 1) rotate(76.84 0 -22.299)"/>
    <path d="M148.404107,318.636287 C168.97699,323.159285 186.532515,319.470804 201.87341,308.702492 C214.370313,299.930479 224.912637,286.978434 235.318462,269.237678 C237.982921,264.695076 240.578138,259.956361 243.56376,254.25525 C245.01219,251.489443 249.808037,242.168688 250.716996,240.427733 C255.614776,231.046873 263.180192,224.157184 282.676421,209.34429 C283.028733,209.076613 283.028733,209.076613 283.380975,208.808964 C302.491494,194.287088 310.127329,187.257983 314.703664,178.043071 C320.66666,166.035976 317.17669,153.965157 302.022701,140.344263 C290.890617,130.338386 280.11207,127.767938 269.035838,131.291287 C260.383948,134.043454 252.496343,139.808388 241.361612,150.348594 C239.855462,151.774325 234.453556,156.971678 234.948061,156.497947 C232.442298,158.898444 230.611541,160.605697 228.854004,162.159367 C224.38529,166.109731 220.818331,168.64167 217.528563,170.016971 C209.548732,173.352973 203.343684,169.604078 198.122629,157.09142 C188.322053,133.60359 171.158155,126.347422 149.65554,133.243288 C131.461531,139.078089 111.332298,155.081712 97.1220597,173.924354 C94.5677621,177.311329 87.1693465,186.949761 86.584752,187.719523 C83.1362116,192.260371 80.9548047,195.296771 79.2642688,197.976738 C75.3886754,204.120627 74.279319,208.264823 75.5882547,212.306691 C77.2528629,217.446843 82.5918014,222.547233 96.3449891,232.673356 C102.546158,237.239119 106.393886,243.015181 108.605119,250.344605 C110.273095,255.873332 110.832494,260.57343 111.511477,271.345351 C111.520369,271.486433 111.520369,271.486433 111.529265,271.627503 C112.456397,286.32787 113.607672,292.817134 117.594736,299.764252 C122.834779,308.89458 132.466,315.132255 148.404107,318.636287 Z" transform="scale(-1 1) rotate(74.891 0 -31.114)"/>
    <path d="M149.961059,315.616217 C169.853826,319.999149 186.826706,316.430731 201.657544,306.006751 C213.739639,297.514748 223.931534,284.974305 233.991102,267.796013 C236.566597,263.397952 239.075148,258.809983 241.961118,253.290095 C243.361029,250.612538 247.996829,241.588006 248.875819,239.90169 C253.612388,230.81473 260.928592,224.142954 279.783002,209.799209 C280.123308,209.54032 280.123308,209.54032 280.463545,209.281459 C298.94122,195.222352 306.323493,188.417491 310.746265,179.497241 C316.507864,167.876721 313.132752,156.193225 298.479666,143.00375 C287.716178,133.315363 277.297869,130.825719 266.592393,134.234317 C258.228709,136.897294 250.603269,142.477849 239.838094,152.682266 C238.382017,154.062496 233.161463,159.092285 233.636813,158.63628 C231.213885,160.960605 229.443495,162.613805 227.743862,164.118292 C223.421709,167.94419 219.971289,170.396446 216.787946,171.728567 C209.061486,174.961829 203.051249,171.324779 197.996837,159.198939 C188.517891,136.458376 171.9264,129.432016 151.140549,136.103956 C133.549806,141.750316 114.088253,157.243339 100.350675,175.486427 C97.8809641,178.766128 90.7275155,188.099281 90.1637972,188.842654 C86.8300074,193.238904 84.7212573,196.17848 83.0870599,198.772872 C79.3419751,204.718431 78.2700421,208.727262 79.5330982,212.635956 C81.140748,217.611041 86.3034457,222.550622 99.606123,232.359746 C105.606947,236.784633 109.330971,242.38193 111.471639,249.483494 C113.086144,254.83954 113.628039,259.392164 114.286615,269.825445 C114.295245,269.96215 114.295245,269.96215 114.303876,270.098845 C115.20289,284.33306 116.317154,290.616265 120.172689,297.342109 C125.239526,306.181027 134.551002,312.220951 149.961059,315.616217 Z" transform="scale(-1 1) rotate(72.967 0 -40.21)"/>
    <path d="M151.521774,312.594833 C170.734413,316.837703 187.124632,313.389352 201.445404,303.309698 C213.112689,295.097697 222.954155,282.968839 232.667464,266.352984 C235.153995,262.099457 237.575881,257.662227 240.3622,252.323553 C241.713592,249.734243 246.189344,241.00592 247.038365,239.374241 C251.613717,230.581164 258.680709,224.127288 276.893293,210.252669 C277.221594,210.002568 277.221594,210.002568 277.549828,209.752494 C295.394658,196.156138 302.523367,189.575514 306.792578,180.949914 C312.352797,169.715935 309.092529,158.419721 294.940326,145.661636 C284.545433,136.290733 274.487373,133.881895 264.152669,137.175737 C256.077197,139.749523 248.713924,145.145704 238.318309,155.014341 C236.912304,156.349072 231.873092,161.211309 232.329297,160.773026 C229.989206,163.021183 228.279183,164.620333 226.637455,166.075638 C222.461862,169.777081 219.12798,172.149659 216.051058,173.438606 C208.577949,176.56915 202.76252,173.043917 197.874753,161.304869 C188.717427,139.311533 172.698346,132.514982 152.629274,138.962993 C135.641805,144.420913 116.847936,159.403352 103.58302,177.046908 C101.197897,180.219341 94.2894151,189.247233 93.7465716,189.964212 C90.5275317,194.21587 88.491438,197.058629 86.9135785,199.567449 C83.298992,205.314696 82.2644786,209.188182 83.4816734,212.963725 C85.0323756,217.773755 90.0188334,222.552532 102.871004,232.04468 C108.671479,236.3287 112.271792,241.747239 114.341892,248.62095 C115.902926,253.80432 116.427318,258.209475 117.06549,268.30413 C117.073856,268.43646 117.073856,268.43646 117.082224,268.568779 C117.953122,282.336874 119.030378,288.414037 122.754394,294.918626 C127.648032,303.466149 136.639766,309.308329 151.521774,312.594833 Z" transform="scale(-1 1) rotate(71.073 0 -49.582)"/>
    <path d="M153.086329,309.572361 C171.618827,313.675174 187.426368,310.346891 201.237062,300.611561 C212.489536,292.679553 221.980573,280.962259 231.347622,264.908812 C233.745188,260.799812 236.080411,256.513313 238.767078,251.355844 C240.069952,248.854777 244.385657,240.422648 245.204708,238.845601 C249.618835,230.346389 256.436614,224.110399 274.007366,210.704881 C274.323664,210.463566 274.323664,210.463566 274.639897,210.222279 C291.85188,197.088654 298.727024,190.732259 302.842676,182.401295 C308.201532,171.553819 305.056095,160.644842 291.404751,148.318115 C281.378452,139.264688 271.680655,136.936661 261.716739,140.11574 C253.929488,142.600335 246.828381,147.812147 236.802332,157.345013 C235.446399,158.634247 230.588515,163.328945 231.02559,162.908379 C228.768336,165.080372 227.11868,166.625475 225.534857,168.031602 C221.505824,171.6086 218.288479,173.901508 215.317974,175.147286 C208.098194,178.175134 202.477571,174.76169 197.756451,163.409404 C188.920731,142.163252 173.474065,135.59651 154.121789,141.820589 C137.737602,147.090072 119.61142,161.561944 106.819168,178.605993 C104.518635,181.671162 97.8551197,190.393813 97.3331494,191.084396 C94.2288587,195.19147 92.2654208,197.937414 90.7438985,200.360668 C87.259799,205.909622 86.2627012,209.647786 87.4340547,213.290204 C88.9278211,217.935191 93.7380402,222.553172 106.13971,231.728367 C111.739827,235.871533 115.216424,241.111321 117.215954,247.757186 C118.723515,252.767886 119.230405,257.025578 119.848175,266.781622 C119.856277,266.909577 119.856277,266.909577 119.864382,267.037521 C120.707168,280.33953 121.74742,286.210669 125.339925,292.494025 C130.060374,300.750171 138.732371,306.394614 153.086329,309.572361 Z" transform="scale(-1 1) rotate(69.214 0 -59.217)"/>
    <path d="M154.654777,306.549031 C172.507118,310.511792 187.731961,307.30358 201.032566,297.91257 C211.870227,290.260544 221.010835,278.954792 230.031621,263.463721 C232.340225,259.499239 234.588783,255.363462 237.175798,250.387188 C238.430156,247.974358 242.585813,239.838406 243.374892,238.315989 C247.627788,230.110622 254.196354,224.092501 271.125266,211.156056 C271.429563,210.923527 271.429563,210.923527 271.733796,210.691025 C288.31293,198.020109 294.934507,191.887935 298.896604,183.85159 C304.054117,173.390577 301.023495,162.868785 287.872984,150.97338 C278.215277,142.237421 268.877758,139.990207 259.284649,143.054519 C251.785626,145.449921 244.946689,150.477369 235.290209,159.674478 C233.984348,160.918217 229.307779,165.44539 229.725739,165.042535 C227.551321,167.138369 225.962033,168.629428 224.436115,169.98638 C220.553642,173.438945 217.452834,175.652191 214.588741,176.854805 C207.622264,179.779985 202.196445,176.478296 197.641975,165.512739 C189.127846,145.013722 174.253599,138.676789 155.618139,144.676934 C139.837242,149.757981 122.378752,163.719306 110.059168,180.163876 C107.843225,183.121788 101.424676,191.539219 100.923577,192.203402 C97.9340349,196.165899 96.0432522,198.815036 94.5780667,201.152728 C91.2244415,206.50341 90.2647548,210.106278 91.390289,213.615599 C92.827133,218.095559 97.4611148,222.552749 109.412288,231.411018 C114.812041,235.413342 118.164914,240.474388 120.093872,246.892416 C121.547958,251.730452 122.037347,255.840688 122.634718,265.25814 C122.642557,265.38172 122.642557,265.38172 122.650399,265.505289 C123.465076,278.341251 124.468326,284.006388 127.929334,290.068532 C132.476603,298.033324 140.828869,303.480035 154.654777,306.549031 Z" transform="scale(-1 1) rotate(67.394 0 -69.101)"/>
    <path d="M156.227141,303.525075 C173.399308,307.347791 188.041431,304.259652 200.831935,295.212957 C211.254781,287.840901 220.044959,276.946666 228.71948,262.017935 C230.939122,258.197961 233.101018,254.212896 235.588381,249.417805 C236.794223,247.093208 240.789833,239.253414 241.548938,237.785623 C245.640593,229.874076 251.959946,224.073807 268.24701,211.606404 C268.539308,211.382659 268.539308,211.382659 268.831543,211.158942 C284.777826,198.95071 291.145835,193.042746 294.95438,185.301003 C299.91057,175.226406 296.994746,165.091742 284.34504,153.62762 C275.055923,145.209118 266.078698,143.042723 256.856416,145.992261 C249.645632,148.298468 243.068866,153.141558 233.781961,162.002922 C232.526172,163.201169 228.030902,167.560833 228.429763,167.175684 C226.338182,169.195363 224.809263,170.632383 223.341251,171.940164 C219.605336,175.268309 216.621064,177.401901 213.863378,178.56136 C207.150176,181.383899 201.919159,178.19393 197.531341,167.615066 C189.338787,147.863126 175.036965,141.756005 157.118341,147.532211 C141.940746,152.424824 125.149953,165.875625 113.303039,181.720747 C111.171687,184.571407 104.998105,192.683643 104.517875,193.321422 C101.64308,197.139352 99.8249522,199.691687 98.4161026,201.943823 C95.1929376,207.096258 94.270657,210.563858 95.3503965,213.940115 C96.7303329,218.255063 101.188079,222.551471 112.688761,231.092844 C117.888142,234.954341 121.117282,239.836655 122.975666,246.026854 C124.376277,250.692232 124.848165,254.65502 125.425141,263.7339 C125.432717,263.853106 125.432717,263.853106 125.440295,263.972301 C126.226868,276.342259 127.19312,281.801416 130.522642,287.642376 C134.896744,295.315835 142.929284,300.564823 156.227141,303.525075 Z" transform="scale(-1 1) rotate(65.618 0 -79.215)"/>
    <path d="M157.803422,300.500721 C174.295396,304.1834 188.354775,301.215336 200.635162,292.512951 C210.64319,285.420853 219.08294,274.938106 227.411192,260.571673 C229.541873,256.896198 231.617107,253.061834 234.00482,248.447912 C235.162145,246.211543 238.997708,238.667884 239.726838,237.254714 C243.657242,229.636964 249.727381,224.054525 265.372588,212.056129 C265.652889,211.841168 265.652889,211.841168 265.933128,211.626233 C281.246559,199.880658 287.360997,194.196893 291.015994,186.749731 C295.770886,177.061499 292.969841,167.313899 280.820908,156.281014 C271.900378,148.179959 263.283464,146.094386 254.432034,148.929144 C247.509499,151.146154 241.194907,155.804894 232.277582,164.330528 C231.071865,165.483284 226.757877,169.675459 227.137658,169.308007 C225.128915,171.251538 223.660365,172.634522 222.250258,173.893136 C218.660901,177.096876 215.793164,179.150826 213.141879,180.267136 C206.681922,182.987068 201.645703,179.908776 197.42454,169.716564 C189.553543,150.71164 175.824151,144.834332 158.622387,150.386594 C144.048106,155.090776 127.925014,168.031078 116.550774,183.276786 C114.504015,186.020203 108.5754,193.827271 108.116037,194.438641 C105.355988,198.112015 103.610514,200.567554 102.258,202.734141 C99.1652793,207.688356 98.2803991,211.020719 99.3143713,214.263947 C100.637417,218.413903 104.918929,222.549538 115.969127,230.774048 C120.968126,234.494735 124.073525,239.198328 125.861331,245.160709 C127.208465,249.653437 127.662854,253.468786 128.219438,262.209115 C128.226751,262.323948 128.226751,262.323948 128.234065,262.43877 C128.99254,274.342772 129.921798,279.595975 133.119848,285.21578 C137.320794,292.597933 145.033615,297.649207 157.803422,300.500721 Z" transform="scale(-1 1) rotate(63.89 0 -89.534)"/>
    <path d="M159.383595,297.476195 C175.195354,301.018844 188.671961,298.170859 200.442215,289.812779 C210.035423,283.000623 218.124744,272.929333 226.106726,259.125151 C228.148446,255.594162 230.137018,251.910487 232.42508,247.47772 C233.533891,245.329571 237.209407,238.082024 237.908559,236.723471 C241.677702,229.399487 247.498627,224.034856 262.501966,212.505426 C262.770272,212.299247 262.770272,212.299247 263.038518,212.093095 C277.719094,200.810144 283.57996,195.350567 287.081411,188.197962 C291.635032,178.896036 288.948744,169.535428 277.300549,158.933729 C268.748604,151.150108 260.492022,149.145363 252.01147,151.865331 C245.377196,153.993143 239.324779,158.46754 230.777043,166.657461 C229.621397,167.76473 225.488671,171.789435 225.849394,171.439673 C223.923487,173.307063 222.515307,174.636016 221.163108,175.845468 C217.720308,178.92482 214.969104,180.899139 212.424214,181.972309 C206.217466,184.589671 201.376042,181.623011 197.321538,171.817404 C189.772077,153.559425 176.61512,147.91193 160.130243,153.240244 C146.159289,157.755997 130.703906,170.185828 119.802342,184.832163 C117.840178,187.468345 112.156529,194.970276 111.718031,195.555232 C109.072728,199.084061 107.399907,201.442813 106.103726,203.523858 C103.141433,208.279883 102.293947,211.477045 103.282182,214.587285 C104.548356,218.572269 108.653636,222.547141 119.253357,230.454827 C124.051965,234.034722 127.033612,238.559606 128.750837,244.29418 C130.044493,248.614268 130.481384,252.282187 131.01758,260.683992 C131.024629,260.794452 131.024629,260.794452 131.03168,260.904901 C131.762061,272.343003 132.65433,277.390281 135.720925,282.788964 C139.74873,289.879841 147.141839,294.733411 159.383595,297.476195 Z" transform="scale(-1 1) rotate(62.215 0 -100.03)"/>
    <path d="M160.967614,294.451717 C176.099133,297.854346 188.992937,295.126443 200.253039,287.112661 C209.431425,280.580431 217.170317,270.920559 224.806023,257.678576 C226.758785,254.29206 228.660696,250.75906 230.849108,246.50743 C231.909405,244.447494 235.424874,237.49603 236.094047,236.192088 C239.701915,229.161839 245.273626,224.014988 259.635084,212.954481 C259.891398,212.757082 259.891398,212.757082 260.147655,212.55971 C274.195373,201.739349 279.802663,196.503943 283.150575,189.645871 C287.502955,180.730183 284.931399,171.756484 273.7839,161.585914 C265.600536,154.119712 257.704311,152.195802 249.594667,154.800972 C243.248668,156.839582 237.458429,161.129646 229.280288,168.983873 C228.174714,170.045659 224.223228,173.902917 224.564915,173.570836 C222.721847,175.362092 221.374038,176.63702 220.079745,177.797315 C216.783501,180.752298 214.14883,182.646998 211.710327,183.677039 C205.756748,186.191874 201.110115,183.336792 197.222274,173.917737 C189.994325,156.406622 177.409811,150.988943 161.641853,156.093303 C148.274239,160.42063 133.486571,172.340022 123.05769,186.387028 C121.180122,188.915986 115.741439,196.112815 115.323803,196.67135 C112.793244,200.055649 111.193074,202.317622 109.953227,204.313134 C107.121341,208.871004 106.311242,211.933005 107.253775,214.910302 C108.463098,218.730339 112.392148,222.544459 122.541402,230.135365 C127.139606,233.574488 129.99749,237.920678 131.64413,243.427459 C132.884305,247.574916 133.3037,251.095417 133.819512,259.158726 C133.826299,259.264814 133.826299,259.264814 133.833087,259.370891 C134.53538,270.343155 135.390665,275.184542 138.325822,280.362141 C142.180503,287.161776 149.253909,291.817653 160.967614,294.451717 Z" transform="scale(-1 1) rotate(60.597 0 -110.666)"/>
    <path d="M162.555411,291.427498 C177.006663,294.690117 189.317628,292.082301 200.067557,284.412809 C208.831116,278.160485 216.21958,268.911991 223.509008,256.232146 C225.372812,252.990087 227.188063,249.607745 229.276825,245.537232 C230.288609,243.565501 233.644031,236.910089 234.283222,235.660752 C237.729802,228.9242 243.052296,223.9951 256.77186,213.403462 C257.016186,213.214843 257.016186,213.214843 257.260455,213.02625 C270.675314,202.668435 276.029025,197.657186 279.223403,191.093615 C283.374576,182.56409 280.917725,173.977207 270.270875,164.237698 C262.45609,157.088899 254.920247,155.24583 247.181545,157.736191 C241.123837,159.685598 235.595779,163.791339 227.787242,171.309894 C226.731739,172.3262 222.961469,176.016038 223.284147,175.701627 C221.523917,177.416758 220.23648,178.637668 219.000095,179.748812 C215.850407,182.579448 213.332266,184.394545 211.000142,185.381468 C205.299686,187.793823 200.847842,185.050259 197.126666,176.017696 C190.220204,159.253353 178.208139,154.06549 163.157135,158.94589 C150.392879,163.084795 136.272934,174.493786 126.316739,187.941515 C124.52377,190.363259 119.330054,197.255026 118.933275,197.787134 C116.517459,201.026917 114.989941,203.192121 113.806425,205.10211 C111.104924,209.461864 110.332204,212.388751 111.229074,215.233158 C112.381569,218.888274 116.134393,222.541657 125.833189,229.815833 C130.230976,233.114209 132.965083,237.281719 134.541136,242.560723 C135.727828,246.535561 136.129728,249.908657 136.625162,257.633502 C136.631686,257.73522 136.631686,257.73522 136.638211,257.836926 C137.312423,268.343423 138.13073,272.978957 140.934469,277.935515 C144.616045,284.443945 151.369758,288.902144 162.555411,291.427498 Z" transform="scale(-1 1) rotate(59.04 0 -121.403)"/>
    <path d="M164.146903,288.403742 C177.917855,291.526363 189.645939,289.038638 199.885671,281.713429 C208.234401,275.740988 215.272437,266.903824 222.215581,254.786046 C223.990429,251.688426 225.719022,248.456724 227.708134,244.567306 C228.671405,242.68377 231.866781,236.324373 232.475986,235.129633 C235.761261,228.686735 240.834539,223.975351 253.912193,213.852524 C254.144533,213.672682 254.144533,213.672682 254.37682,213.492866 C267.158815,203.597551 272.258944,198.810439 275.299793,192.541334 C279.249799,184.397885 276.907622,176.197711 266.761368,166.889185 C259.315156,160.057771 252.139726,158.295552 244.772007,160.671091 C239.002606,162.531292 233.736733,166.452721 226.297811,173.63563 C225.292378,174.60646 221.703296,178.128908 222.006995,177.832157 C220.329604,179.471172 219.10254,180.638071 217.924063,181.700071 C214.920929,184.406385 212.519319,186.141896 210.293563,187.085715 C204.846178,189.395647 200.589117,186.763531 197.034613,178.11739 C190.449605,162.099712 179.009998,157.141668 164.675989,161.798101 C152.515111,165.748587 139.062897,176.647218 129.579394,189.49573 C127.871027,191.810273 122.922277,198.397025 122.546352,198.902698 C120.245277,201.997983 118.790409,204.06643 117.663224,205.890906 C115.092082,210.052591 114.356732,212.844415 115.207983,215.555991 C116.303678,219.046221 119.880279,222.538881 129.128629,229.496385 C133.325983,232.65404 135.936299,236.64289 137.441758,241.694134 C138.574965,245.496367 138.959373,248.722072 139.434434,256.108492 C139.440695,256.20584 139.440695,256.20584 139.446958,256.303177 C140.093098,266.343989 140.874433,270.773713 143.546778,275.50928 C147.055269,281.726551 153.489302,285.987086 164.146903,288.403742 Z" transform="scale(-1 1) rotate(57.549 0 -132.19)"/>
    <path d="M165.74199,285.380646 C178.832605,288.363283 189.97776,285.995655 199.707267,279.014718 C207.641163,273.322134 214.328771,264.896243 220.925626,253.340452 C222.61152,250.387251 224.253455,247.306166 226.142918,243.597817 C227.057679,241.802465 230.093008,235.73904 230.672225,234.59889 C233.796175,228.449596 238.620236,223.955888 251.05596,214.301803 C251.27632,214.130736 251.27632,214.130736 251.496627,213.959694 C263.645756,204.526825 268.492299,199.963828 271.379627,193.989149 C275.128511,186.231673 272.900969,178.418083 263.255251,169.540453 C256.177607,163.026401 249.362625,161.34504 242.365933,163.605743 C236.884862,165.376734 231.881177,169.113866 224.811881,175.961157 C223.856517,176.886518 220.448592,180.241611 220.733347,179.962506 C219.138795,181.525417 217.972105,182.638314 216.851538,183.651178 C213.994957,186.233199 211.709874,187.889144 209.590477,188.789873 C204.396101,190.997446 200.333819,188.4767 196.945991,180.2169 C190.682403,164.945764 179.815264,160.21754 166.198296,164.649997 C154.640818,168.412069 141.856345,178.800391 132.845541,191.049754 C131.221778,193.257111 126.517994,199.538901 126.16292,200.01813 C123.976584,202.968938 122.594363,204.940641 121.523508,206.679618 C119.082696,210.643285 118.384705,213.300107 119.190388,215.878921 C120.229315,219.204301 123.629697,222.536258 132.427615,229.177156 C136.424518,232.194123 138.911025,236.004333 140.345886,240.827838 C141.425606,244.457481 141.792523,247.535813 142.247219,254.583853 C142.253217,254.676833 142.253217,254.676833 142.259217,254.769801 C142.877295,264.345023 143.621666,268.568987 146.162644,273.083621 C149.498075,279.009784 155.61244,283.072674 165.74199,285.380646 Z" transform="scale(-1 1) rotate(56.126 0 -142.974)"/>
    <path d="M167.340559,282.3584 C179.750794,285.201069 190.312965,282.953545 199.532214,276.316869 C207.051272,270.904111 213.388453,262.889428 219.639013,251.895528 C221.235955,249.086721 222.791233,246.156229 224.581048,242.628918 C225.447299,240.921737 228.322582,235.154235 228.871806,234.068664 C231.834409,228.212916 236.409251,223.936837 248.203023,214.751415 C248.411407,214.58912 248.411407,214.58912 248.61974,214.42685 C260.135999,205.456361 264.728952,201.117454 267.462767,195.437152 C271.010579,188.065532 268.897632,180.638383 259.752378,172.191543 C253.043296,165.994827 246.588802,164.394336 239.963192,166.540186 C234.770473,168.221963 230.028981,171.774815 223.329324,178.286523 C222.42403,179.166419 219.197224,182.354196 219.463074,182.092724 C217.951363,183.579545 216.845048,184.638448 215.782391,185.602186 C213.072363,188.059949 210.903807,189.636351 208.890754,190.494008 C203.949316,192.599299 200.081809,190.189828 196.860663,182.316274 C190.918452,167.791536 180.623792,163.293135 167.723921,167.501605 C156.769869,171.075269 144.653149,180.953339 136.11505,192.603634 C134.575894,194.703823 130.117077,200.680714 129.782848,201.133488 C127.711249,203.939842 126.401675,205.814818 125.387147,207.46831 C123.076631,211.234021 122.415988,213.75591 123.176161,216.202043 C124.158357,219.362618 127.382525,222.533893 135.730026,228.858264 C139.526457,231.734578 141.889136,235.366174 143.253393,239.961964 C144.279622,243.419036 144.629051,246.350015 145.06339,253.059726 C145.069126,253.148339 145.069126,253.148339 145.074864,253.23694 C145.664889,262.346682 146.372305,266.364946 148.781947,270.658713 C151.944348,276.293829 157.739061,280.159096 167.340559,282.3584 Z" transform="scale(-1 1) rotate(54.775 0 -153.689)"/>
    <path d="M168.942491,279.337193 C180.672294,282.039912 190.651416,279.912499 199.360369,273.62007 C206.464584,268.487103 212.451338,260.883549 218.355596,250.451429 C219.863587,247.786988 221.332211,245.007059 223.022378,241.660749 C223.840121,240.041723 226.555357,234.570086 227.074584,233.539082 C229.875814,227.976814 234.201435,223.918309 245.35323,215.201454 C245.549643,215.047929 245.549643,215.047929 245.746007,214.894429 C256.629392,206.386243 260.968749,202.271395 263.549061,196.885415 C266.895863,189.899512 264.89746,182.858633 256.252587,174.84246 C249.912059,168.963049 243.818101,167.443441 237.563635,169.474419 C232.659297,171.066977 228.180003,174.435567 221.85,180.611732 C220.994775,181.446173 217.949047,184.466681 218.196038,184.222823 C216.767168,185.633569 215.72123,186.638492 214.716486,187.553115 C212.153008,189.886659 210.100976,191.383545 208.194253,192.198151 C203.50567,194.201249 199.832932,191.902944 196.778474,184.415526 C191.157593,170.637016 181.435423,166.36844 169.252714,170.352911 C158.902117,173.738172 147.453164,183.106059 139.387779,194.157382 C137.933235,196.150422 133.719385,201.822489 133.405994,202.248795 C131.44913,204.910724 130.212202,206.68899 129.253998,208.257017 C127.073739,211.824842 126.450431,214.211881 127.165159,216.525425 C128.090667,219.521248 131.138627,222.531867 139.035732,228.539804 C142.631667,231.275509 144.870493,234.728519 146.164139,239.096623 C147.136875,242.381146 147.468819,245.164796 147.88281,251.53624 C147.888284,251.620487 147.888284,251.620487 147.89376,251.704723 C148.455747,260.349116 149.126218,264.161747 151.40456,268.234726 C154.393963,273.578868 159.869045,277.246537 168.942491,279.337193 Z" transform="scale(-1 1) rotate(53.5 0 -164.265)"/>
    <path d="M170.54766,276.317212 C181.596972,278.880005 190.992967,276.872712 199.191578,270.924514 C205.880944,266.071294 211.517274,258.878777 217.075219,249.008303 C218.494263,246.488193 219.876234,243.858792 221.466753,240.693441 C222.235991,239.162552 224.79118,233.98671 225.280404,233.01026 C227.92023,227.741391 231.996627,223.900395 242.506415,215.651996 C242.690863,215.507236 242.690863,215.507236 242.875264,215.362502 C253.12577,207.316529 257.211526,203.425704 259.638346,198.333977 C262.784208,191.733627 260.900292,185.078818 252.7557,177.493166 C246.783718,171.931023 241.050351,170.492314 235.167104,172.408395 C230.551181,173.911728 226.334089,177.096081 220.37376,182.93675 C219.568603,183.725743 216.703904,186.579038 216.932089,186.352775 C215.586061,187.687465 214.600502,188.638421 213.653671,189.503942 C211.236743,191.713314 209.301233,193.130717 207.500823,193.902298 C203.064995,195.80331 199.58702,193.616041 196.699257,186.514625 C191.39965,173.482141 182.249983,169.443392 170.784513,173.20385 C161.037408,176.400716 150.256236,185.258501 142.663576,195.710966 C141.293648,197.596882 137.324766,202.964211 137.032207,203.364035 C135.190074,205.881573 134.025788,207.563152 133.123908,209.045733 C131.07386,212.415759 130.487869,214.668042 131.157233,216.849108 C132.026101,219.680244 134.897862,222.530237 142.344594,228.221851 C145.740004,230.816997 147.85495,234.091456 149.077977,238.231908 C149.997215,241.343908 150.311679,243.980258 150.705333,250.013507 C150.710545,250.093392 150.710545,250.093392 150.715759,250.173265 C151.249723,258.352462 151.883263,261.959543 154.030346,265.811827 C156.846792,270.865079 162.002265,274.335182 170.54766,276.317212 Z" transform="scale(-1 1) rotate(52.305 0 -174.626)"/>
    <path d="M172.155942,273.298657 C182.52469,275.721549 191.337464,273.834387 199.025681,268.230402 C205.300191,263.656876 210.586097,256.875285 215.79772,247.566297 C217.12782,245.190477 218.423139,242.71156 219.914012,239.727117 C220.634747,238.284343 223.029888,233.404213 223.489103,232.4823 C225.967487,227.506734 229.794657,223.883169 239.6624,216.103091 C239.834892,215.967094 239.834892,215.967094 240.007337,215.831122 C249.624959,208.247251 253.457106,204.580406 255.730449,199.782851 C258.675452,193.567856 256.905955,187.298878 249.261529,180.143569 C243.658079,174.898648 238.285371,173.540857 232.773432,175.342012 C228.445962,176.756114 224.49108,179.756257 218.900446,185.26149 C218.145356,186.005044 215.461628,188.691192 215.671069,188.482501 C214.407885,189.741158 213.482709,190.638163 212.593793,191.454598 C210.323412,193.539856 208.504422,194.877814 206.810303,195.606399 C202.627113,197.405454 199.343893,195.329066 196.622836,188.613494 C191.644433,176.326791 183.067285,172.517873 172.319147,176.054299 C163.175576,179.062779 153.062204,187.410562 145.94228,197.264305 C144.656974,199.043126 140.93306,204.105822 140.661324,204.479146 C138.93392,206.852333 137.842275,208.437251 136.996713,209.834413 C135.076823,213.00674 134.52813,215.124383 135.152221,217.173102 C135.964511,219.839627 138.660082,222.529033 145.65647,227.904458 C148.851319,230.359106 150.842354,233.455054 151.994752,237.367895 C152.860488,240.307405 153.157475,242.796489 153.530807,248.491632 C153.535757,248.567156 153.535757,248.567156 153.540709,248.642669 C154.046669,256.356856 154.643292,259.758483 156.659167,263.390184 C159.302704,268.152651 164.138597,271.425225 172.155942,273.298657 Z" transform="scale(-1 1) rotate(51.191 0 -184.687)"/>
    <path d="M173.767216,270.281747 C183.455314,272.564769 191.684753,270.797753 198.862512,265.537957 C204.722159,261.244061 209.657642,254.87326 214.522931,246.125561 C215.764089,243.893982 216.97276,241.565498 218.363986,238.761899 C219.03622,237.407213 221.271313,232.822694 221.700512,231.955297 C224.017408,227.27292 227.595346,223.86669 236.820999,216.554772 C236.981543,216.427532 236.981543,216.427532 237.142042,216.300317 C246.126774,209.178415 249.705305,205.735496 251.825186,201.232012 C254.56943,195.402133 252.914269,189.518695 245.769867,182.793514 C240.534935,177.86576 235.522966,176.58891 230.382443,178.275105 C226.343476,179.599967 222.65081,182.415934 217.429897,187.5858 C216.724874,188.28393 214.222049,190.803008 214.412821,190.611862 C213.232482,191.794514 212.367691,192.637589 211.536693,193.404957 C209.412858,195.366169 207.710385,196.624729 206.122532,197.310356 C202.191835,199.007611 199.103365,197.041916 196.549022,190.711993 C191.89174,179.170776 183.887129,175.591692 173.856435,178.904064 C165.316451,181.724168 155.8709,189.562067 149.223726,198.817256 C148.023048,200.489018 144.544105,205.24721 144.293182,205.594011 C142.680502,207.822897 141.661494,209.311186 140.872249,210.622959 C139.082451,213.597712 138.571035,215.580852 139.149961,217.497382 C139.905743,219.999393 142.425137,222.528257 148.971217,227.587656 C151.965463,229.901879 153.832547,232.819367 154.914306,236.504648 C155.726535,239.271706 156.006051,241.613567 156.359076,246.970711 C156.363766,247.041878 156.363766,247.041878 156.368457,247.113033 C156.846435,254.362434 157.40616,257.558725 159.290886,260.969979 C161.761571,265.441787 166.27792,268.516879 173.767216,270.281747 Z" transform="scale(-1 1) rotate(50.162 0 -194.36)"/>
    <path d="M175.381375,267.266739 C184.388716,269.409929 192.034682,267.763076 198.701905,262.84744 C204.146679,258.833095 208.731742,252.872915 213.250681,244.686263 C214.402902,242.598863 215.524927,240.420748 216.816507,237.797917 C217.440244,236.531286 219.515288,232.242253 219.91446,231.429347 C222.069813,227.040017 225.398514,223.851006 233.98202,217.007046 C234.130627,216.888557 234.130627,216.888557 234.27919,216.770093 C242.631025,210.109994 245.955929,206.890935 247.922371,202.6814 C250.465974,197.236342 248.925049,191.738089 242.280499,185.44277 C237.414066,180.832112 232.762934,179.636234 227.99396,181.207423 C224.243552,182.443034 220.813112,185.074869 215.961952,189.909456 C215.306994,190.562176 212.984991,192.914282 213.157183,192.740648 C212.059692,193.847327 211.25529,194.636498 210.482213,195.354823 C208.504922,197.192075 206.918964,198.371295 205.437346,199.014007 C201.758965,200.609657 198.865237,198.754423 196.477619,192.809912 C192.141359,182.013813 184.709304,178.664566 175.396194,181.752856 C167.459858,184.384599 158.682154,191.712763 152.507747,200.369604 C151.391706,201.934351 148.157735,206.388195 147.927613,206.708447 C146.429653,208.793092 145.483278,210.184793 144.750345,211.411216 C143.090563,214.188545 142.616395,216.037349 143.150288,217.821883 C143.84965,220.159498 146.192883,222.52788 152.288699,227.271456 C157.29765,231.169267 158.520451,235.351002 159.18999,245.450839 C159.194419,245.517653 159.194419,245.517653 159.198849,245.584454 C159.648875,252.369345 160.171722,255.360445 161.925374,258.551418 C164.223278,262.732723 168.420127,265.610392 175.381375,267.266739 Z" transform="scale(-1 1) rotate(49.221 0 -203.55)"/>
    <path d="M176.998337,264.253951 C192.299124,267.935434 202.69824,260.213679 211.980803,243.248602 C213.044092,241.305304 214.079473,239.277478 215.271409,236.835317 C215.846653,235.6567 217.761644,231.662996 218.130779,230.904551 C220.124518,226.808091 223.203974,223.836153 231.145264,217.459901 C231.281945,217.350158 231.281945,217.350158 231.418586,217.240438 C239.137516,211.041932 242.208782,208.046651 244.021809,204.130905 C246.364916,199.070302 244.938106,193.956793 238.793195,188.091 C234.295236,183.797351 230.005061,182.68248 225.607803,184.138608 C222.146027,185.284957 218.977822,187.732713 214.496454,192.23213 C213.89156,192.83946 211.750281,195.024712 211.904,194.868552 C210.88936,195.899301 210.145352,196.634598 209.430199,197.30391 C207.599452,199.017307 206.130005,200.117259 204.754585,200.717114 C201.328299,202.211402 198.629306,200.466343 196.408427,194.906942 C192.393062,184.855503 185.533587,181.736096 176.938234,184.600269 C169.605624,187.043666 161.495799,193.862283 155.794179,201.921036 C154.762786,203.378822 151.77379,207.528517 151.564453,207.822185 C150.181207,209.762666 149.307461,211.057828 148.630835,212.198951 C147.100974,214.779043 146.664023,216.493717 147.153039,218.146494 C147.796087,220.319866 149.963181,222.52784 155.60879,226.955846 C160.257285,230.601788 161.39435,234.507559 162.023404,243.93212 C162.027573,243.994585 162.027573,243.994585 162.031743,244.057039 C162.453851,250.377763 162.939849,253.163852 164.562514,256.134753 C166.687725,260.025753 170.565131,262.706074 176.998337,264.253951 Z" transform="scale(-1 1) rotate(48.369 0 -212.16)"/>
    <path d="M178.618053,261.243804 C192.666421,264.668307 202.203322,257.527363 210.713137,241.812833 C211.687501,240.013539 212.636243,238.1359 213.728534,235.874286 C214.255288,234.783629 216.010226,231.085056 216.349307,230.38103 C218.181344,226.577218 221.011543,223.822169 228.310526,217.913307 C228.435299,217.812299 228.435299,217.812299 228.560033,217.711314 C235.64605,211.974136 238.463663,209.202525 240.123309,205.580367 C242.266098,200.903753 240.953249,196.174427 235.30771,190.737733 C231.178191,186.760976 227.249124,185.727162 223.223794,187.068157 C220.050741,188.125226 217.144783,190.388973 213.033256,194.553359 C212.478424,195.115325 210.517749,197.133872 210.653128,196.995139 C209.721342,197.950011 209.037734,198.631474 208.380511,199.25181 C206.696306,200.841488 205.343368,201.862263 204.074097,202.419333 C200.899628,203.812574 198.395362,202.177324 196.341237,197.002651 C192.646609,187.695285 186.359739,184.80572 178.482365,187.445729 C171.75358,189.700803 164.31167,196.010112 159.082865,203.471109 C158.136132,204.822005 155.392116,208.667801 155.203545,208.934843 C153.935007,210.731258 153.133884,211.929945 152.513558,212.985828 C151.113502,215.368922 150.713726,216.949725 151.158061,218.471046 C151.744928,220.48037 153.735912,222.528033 158.93139,226.640797 C163.219257,230.035093 164.270551,233.664971 164.859188,242.414681 C164.863098,242.472804 164.863098,242.472804 164.867009,242.530915 C165.261245,248.387912 165.710427,250.969217 167.202218,253.72031 C169.154847,257.321258 172.712885,259.80433 178.618053,261.243804 Z" transform="scale(-1 1) rotate(47.61 0 -220.097)"/>
    <path d="M180.223934,258.244095 C193.019473,261.411745 201.693998,254.851429 209.430938,240.386518 C210.316383,238.731099 211.17849,237.003514 212.171136,234.922285 C212.649407,233.919519 214.244285,230.515818 214.553295,229.866159 C216.223514,226.354709 218.80444,223.816308 225.460999,218.374422 C225.573883,218.282139 225.573883,218.282139 225.686729,218.189878 C232.139824,212.913674 234.703767,210.365595 236.210073,207.036757 C238.152768,202.743528 236.953686,198.397665 231.807177,193.389507 C228.046051,189.729491 224.478288,188.776797 220.825158,190.002564 C217.940944,190.97033 215.297248,193.050161 211.555624,196.8797 C211.050852,197.396333 209.270632,199.248367 209.387835,199.127003 C208.538909,200.006068 207.915709,200.633749 207.316423,201.205157 C205.778761,202.671292 204.542328,203.613008 203.379148,204.127386 C200.456132,205.419992 198.146589,203.894079 196.259235,199.103634 C192.885139,190.539573 187.170901,187.879853 180.011797,190.295636 C173.886961,192.362413 167.113015,198.162729 162.357057,205.026407 C161.495001,206.270504 158.995973,209.812729 158.828142,210.053088 C157.674302,211.705564 156.945796,212.80786 156.381763,213.778583 C155.111364,215.964988 154.748714,217.412251 155.14861,218.802498 C155.679466,220.648036 157.494381,222.53552 162.239825,226.33347 C166.166847,229.476407 167.132328,232.830488 167.680637,240.905905 C167.684289,240.959693 167.684289,240.959693 167.687941,241.01347 C168.054364,246.407307 168.466776,248.784122 169.827834,251.315751 C171.608023,254.62698 174.846792,256.912935 180.223934,258.244095 Z" transform="scale(-1 1) rotate(46.944 0 -227.24)"/>
    <path d="M181.830156,255.249358 C193.372322,258.160322 201.184264,252.180386 208.148161,238.963848 C208.944696,237.452132 209.720172,235.874422 210.613172,233.973363 C211.042967,233.058397 212.477779,229.949221 212.756693,229.353858 C214.26494,226.13439 216.596568,223.812318 222.610545,218.836858 C222.711564,218.753284 222.711564,218.753284 222.812547,218.669733 C228.632711,213.854032 230.942962,211.529294 232.295984,208.493416 C234.038871,204.582769 232.953303,200.619413 228.305376,196.039039 C224.912579,192.695553 221.706371,191.824065 218.425806,192.934475 C215.830584,193.812909 213.449165,195.708949 210.077525,199.203887 C209.62281,199.675231 208.022858,201.361002 208.122094,201.256935 C207.356037,202.060286 206.793256,202.634253 206.251916,203.1568 C204.860798,204.499624 203.74087,205.36244 202.683702,205.83425 C200.011658,207.026775 197.896838,205.609574 196.176272,201.202685 C193.12244,193.380901 187.980864,190.951026 181.540416,193.142497 C176.019694,195.021015 169.913769,200.312761 165.630701,206.579707 C164.853345,207.717128 162.599316,210.956218 162.452192,211.169821 C161.413041,212.678528 160.757143,213.684545 160.249392,214.570217 C159.108464,216.560339 158.782876,217.874495 159.138639,219.134173 C159.613704,220.81628 161.252608,222.543763 165.548154,226.027476 C169.114046,228.919437 169.993659,231.997857 170.50176,239.399726 C170.505155,239.449191 170.505155,239.449191 170.508551,239.498644 C170.847242,244.430078 171.22294,246.602795 172.453449,248.915415 C174.061387,251.937374 176.981024,254.026394 181.830156,255.249358 Z" transform="scale(-1 1) rotate(46.374 0 -233.52)"/>
    <path d="M183.439516,252.259843 C193.727566,254.914342 200.676651,249.514442 206.867275,237.54455 C207.574911,236.1763 208.263762,234.748219 209.057114,233.027031 C209.438442,232.199737 210.713173,229.384608 210.961958,228.843444 C212.308024,225.915441 214.390316,223.809261 219.761492,219.29947 C219.850679,219.224587 219.850679,219.224587 219.939831,219.149727 C225.127054,214.793869 227.183586,212.69221 228.3834,209.948784 C229.92685,206.419619 228.954461,202.83747 224.804513,198.683834 C221.779948,195.656582 218.935634,194.866421 216.028135,195.861292 C213.722111,196.650354 211.602987,198.362779 208.601437,201.523458 C208.196776,201.949573 206.776851,203.469419 206.858391,203.382556 C206.175213,204.110322 205.672868,204.63067 205.189488,205.104444 C203.944919,206.32428 202.941499,207.108409 201.990239,207.537825 C199.568508,208.631039 197.648419,207.321697 196.09466,203.297434 C193.360728,196.216505 188.791841,194.016469 183.070583,195.983503 C178.154195,197.673815 172.716367,202.457583 168.906246,208.128612 C168.213619,209.159526 166.204608,212.096084 166.078148,212.282827 C165.153672,213.648001 164.57037,214.557894 164.118887,215.358665 C163.107188,217.153061 162.81858,218.334692 163.130605,219.464479 C163.550173,220.983656 165.013151,222.551394 168.85899,225.721675 C172.063371,228.363176 172.85705,231.166136 173.325106,237.895492 C173.328246,237.940648 173.328246,237.940648 173.331387,237.985791 C173.642455,242.455863 173.981519,244.425013 175.081724,246.519251 C176.517666,249.252564 179.118367,251.14491 183.439516,252.259843 Z" transform="scale(-1 1) rotate(45.901 0 -238.857)"/>
    <path d="M185.052345,249.277802 C194.085224,251.676135 200.17108,246.85577 205.588108,236.130035 C206.206857,234.90491 206.809088,233.626103 207.502786,232.084359 C207.835657,231.344554 208.950287,228.822786 209.168897,228.33568 C210.352484,225.698414 212.185378,223.807504 216.913439,219.7623 C216.990835,219.696083 216.990835,219.696083 217.068199,219.629887 C221.622473,215.732918 223.425253,213.853954 224.471964,211.402239 C225.816472,208.252993 224.956801,205.050216 221.303996,201.321809 C216.524608,196.443504 212.808406,197.732826 207.127179,203.836373 C206.772566,204.217347 205.532352,205.571738 205.596556,205.501963 C204.996274,206.154326 204.554389,206.62119 204.128988,207.046319 C203.030983,208.143623 202.144079,208.849371 201.298586,209.23664 C199.126233,210.231663 197.400905,209.028971 196.013966,205.385991 C193.59942,199.043869 189.60324,197.073653 184.601938,198.816067 C180.290191,200.318246 175.520557,204.594896 172.183459,209.67119 C171.575605,210.59584 169.811644,213.23073 169.705785,213.390467 C168.895967,214.612446 168.385247,215.426439 167.990015,216.142524 C167.107218,217.741983 166.855483,218.791896 167.124297,219.792736 C167.488767,221.149717 168.775953,222.558092 172.172365,225.416106 C175.014705,227.80788 175.722367,230.335689 176.15061,236.394023 C176.153499,236.434891 176.153499,236.434891 176.156388,236.475747 C176.439994,240.485938 176.742533,242.252275 177.712768,244.129021 C178.977075,246.574597 181.259128,248.270659 185.052345,249.277802 Z" transform="scale(-1 1) rotate(45.527 0 -243.176)"/>
    <path d="M186.669392,246.307008 C194.445534,248.449593 199.66764,244.207995 204.310589,234.722642 C204.840466,233.640125 205.356081,232.510058 205.950113,231.147111 C206.234541,230.494518 207.18903,228.265079 207.377399,227.831817 C208.398063,225.484209 209.981453,223.807642 214.065922,220.225405 C214.131586,220.167816 214.131586,220.167816 214.19722,220.110249 C218.118545,216.670711 219.66753,215.013851 220.56129,212.852706 C221.707534,210.081047 220.959924,207.254928 217.803051,203.949458 C213.692112,199.645014 210.528598,200.762847 205.654626,206.139198 C205.350054,206.475163 204.289123,207.664787 204.336484,207.611945 C203.819126,208.189179 203.437736,208.602762 203.070348,208.979436 C202.118937,209.954893 201.348576,210.582713 200.60865,210.928206 C198.684284,211.826751 197.15379,210.728919 195.933668,207.465177 C193.837758,201.858764 190.414269,200.118322 186.134078,201.635821 C182.427415,202.949982 178.326098,206.720831 175.462136,211.204195 C170.56282,218.873786 170.720834,218.579332 171.119542,220.117756 C171.429484,221.313676 172.541093,222.563291 175.488509,225.110819 C177.968048,227.253949 178.589589,229.507111 178.978369,234.896689 C178.98101,234.933301 178.98101,234.933301 178.983651,234.969902 C179.496002,242.069143 180.826518,244.697102 186.669392,246.307008 Z" transform="scale(-1 1) rotate(45.251 0 -246.417)"/>
    <path d="M188.292253,243.354336 C194.809187,245.241783 199.166781,241.577678 203.034889,233.326577 C203.475909,232.385835 203.904905,231.403643 204.39924,230.218447 C204.635241,229.652622 205.429514,227.713845 205.587538,227.334081 C206.444582,225.274435 207.778272,223.81074 211.218384,220.688878 C211.272396,220.639863 211.272396,220.639863 211.326381,220.590869 C214.61477,217.606373 215.909913,216.170639 216.650953,214.298178 C217.599887,211.900406 216.963349,209.446681 214.300565,206.560425 C212.379355,204.477979 210.624483,203.933341 208.842132,204.579269 C207.406022,205.099718 206.073856,206.263574 204.183749,208.425695 C203.929211,208.716865 203.04697,209.742789 203.078186,209.706674 C202.643803,210.209219 202.322968,210.569846 202.013646,210.898368 C201.208899,211.753069 200.555147,212.303675 199.920496,212.60799 C198.241923,213.412865 196.906436,212.417077 195.85308,209.529235 C194.074637,204.653522 191.223734,203.142733 187.666508,204.434809 C184.565601,205.561138 181.132762,208.828359 178.742104,212.721748 C174.656568,219.375391 174.789905,219.117077 175.116245,220.437312 C175.372506,221.474041 176.308913,222.565926 178.808042,224.805881 C180.923633,226.702073 181.458929,228.681481 181.808803,233.405989 C181.811203,233.438398 181.811203,233.438398 181.813603,233.470794 C182.271699,239.653856 183.394908,241.935957 188.292253,243.354336 Z" transform="scale(-1 1) rotate(45.075 0 -248.532)"/>
    <path d="M189.877226,240.19819 C195.128862,241.798055 198.626415,238.74929 201.729991,231.823961 C202.083949,231.034137 202.428144,230.209338 202.824849,229.2135 C203.0137,228.739431 203.651258,227.109866 203.779149,226.788109 C204.475106,225.037165 205.560788,223.800369 208.360083,221.168167 C208.40298,221.127832 208.40298,221.127832 208.445851,221.087517 C211.104277,218.587519 212.14772,217.386959 212.738541,215.823755 C213.493196,213.827076 212.971536,211.776096 210.807703,209.346272 C209.257492,207.605499 207.868121,207.152807 206.462213,207.675959 C205.316239,208.102386 204.244719,209.072499 202.723028,210.880315 C202.517824,211.124102 201.809625,211.979438 201.828248,211.957064 C201.476045,212.380201 201.215358,212.684372 200.963703,212.961644 C200.304506,213.68794 199.766753,214.156635 199.237042,214.417779 C197.802969,215.124765 196.663902,214.24118 195.781005,211.759342 C194.327527,207.67359 192.051865,206.415474 189.216736,207.471675 C186.720532,208.401613 183.951949,211.13314 182.029368,214.395944 C178.748093,219.96458 178.855075,219.748728 179.111261,220.835058 C179.314673,221.697605 180.074524,222.617271 182.117174,224.517312 C183.865896,226.143946 184.31226,227.828019 184.61673,231.836091 C184.618837,231.863821 184.618837,231.863821 184.620943,231.891539 C185.015827,237.087551 185.928014,238.995097 189.877226,240.19819 Z" transform="scale(-1 1) rotate(45 0 -249.473)"/>
  </g>
</svg>
