<svg xmlns="http://www.w3.org/2000/svg" width="400" height="400" viewBox="0 0 400 400">
  <defs>
    <linearGradient id="a" x1="0%" y1="50%" y2="50%">
      <stop offset="0%" stop-color="#1E3888"/>
      <stop offset="20%" stop-color="#603979"/>
      <stop offset="40%" stop-color="#87396B"/>
      <stop offset="60%" stop-color="#A8395C"/>
      <stop offset="80%" stop-color="#C7364C"/>
      <stop offset="100%" stop-color="#E5323B"/>
    </linearGradient>
  </defs>
  <g fill="none" fill-rule="evenodd" stroke="url(#a)" transform="scale(1 -1) rotate(-60 -185.035 21.958)">
    <path d="M144.185316,377.675059 C175.979029,384.509577 203.146837,378.84018 226.902841,362.39013 C246.243926,348.997228 262.568338,329.252189 278.687239,302.228514 C282.819675,295.300399 286.844905,288.073769 291.474811,279.381735 C293.723839,275.159482 301.160486,260.949839 302.563818,258.307103 C306.776557,250.373732 313.543072,242.490768 323.103952,233.905016 C330.346141,227.401468 336.930765,222.244072 351.884169,211.033237 C352.434718,210.620486 352.434718,210.620486 352.98517,210.207769 C367.534329,199.298436 374.424436,193.877253 381.60607,187.357757 C390.970628,178.8566 397.520951,171.054481 401.467301,163.240982 C410.754734,144.852508 405.368506,126.387246 381.947804,105.645453 C364.733765,90.4003934 348.012332,86.4969332 330.819933,91.9132993 C317.413257,96.1369952 305.200063,104.944561 287.968003,121.026118 C285.635641,123.20276 277.240376,131.165959 278.052069,130.399306 C274.179524,134.056968 271.35275,136.656339 268.639817,139.021775 C261.752798,145.026641 256.262884,148.873936 251.216774,150.962134 C239.054574,155.995137 229.634964,150.398506 221.66448,131.501071 C206.555955,95.6798661 179.947685,84.6319473 146.619801,95.2223711 C118.472557,104.166571 87.326921,128.596476 65.3179921,157.333684 C61.3680933,162.491094 49.9277087,177.168143 48.9985248,178.373078 C43.6565416,185.300384 40.2762538,189.934737 37.6560856,194.027067 C31.626186,203.444913 29.8990143,209.824442 31.9665823,216.065724 C34.571957,223.930461 42.8189461,231.684674 64.0058957,247.043123 C73.5122264,253.934275 79.4005491,262.66058 82.7759465,273.750258 C85.3260975,282.128636 86.1743731,289.262532 87.1902567,305.623244 C87.2035025,305.836568 87.2035025,305.836568 87.2167528,306.049881 C87.9057365,317.139433 88.3819469,322.356387 89.4638314,328.428762 C90.8797537,336.376017 93.1058355,343.043793 96.5283862,348.93494 C104.627059,362.874976 119.534428,372.375994 144.185316,377.675059 Z" transform="scale(-1 1) rotate(61.528 0 -131.929)"/>
    <path d="M145.734825,374.639993 C176.848525,381.334405 203.433817,375.785059 226.679843,359.679366 C245.606135,346.566543 261.580117,327.233253 277.352776,300.772257 C281.396242,293.988738 285.334804,286.912912 289.865055,278.402171 C292.065561,274.268198 299.342159,260.354893 300.715532,257.766818 C304.838528,249.997179 311.460938,242.277459 320.818162,233.869865 C327.905763,227.50156 334.349751,222.451582 348.983743,211.474346 C349.522272,211.07039 349.522272,211.07039 350.060707,210.666467 C364.298876,199.984611 371.041315,194.676751 378.069032,188.293413 C387.232494,179.97016 393.641856,172.331381 397.502874,164.681663 C406.588777,146.680039 401.317512,128.602442 378.397886,108.292304 C361.552454,93.3647903 345.191159,89.5421102 328.369392,94.8437613 C315.250864,98.9782769 303.299823,107.601427 286.437286,123.347118 C284.154998,125.478245 275.941185,133.273781 276.733616,132.524895 C272.943906,136.106354 270.177495,138.651649 267.522464,140.967879 C260.782011,146.848202 255.408642,150.615759 250.468988,152.660736 C238.560325,157.590829 229.335544,152.106261 221.531685,133.59586 C206.74489,98.5222506 180.708993,87.7041322 148.097748,98.070651 C120.553707,106.826398 90.0757208,130.745572 68.539433,158.883044 C64.6741132,163.93314 53.4786971,178.304767 52.5704018,179.483336 C47.3431749,186.265989 44.035548,190.803483 41.4717228,194.810203 C35.572419,204.029575 33.8827022,210.273567 35.9042356,216.381481 C38.4525613,224.081059 46.5233026,231.674418 67.2597099,246.715694 C76.5657455,253.465882 82.330414,262.013362 85.635262,272.875127 C88.1319511,281.080785 88.962717,288.067162 89.9581755,304.089117 C89.9711574,304.298061 89.9711574,304.298061 89.9841436,304.506995 C90.659214,315.365961 91.1256303,320.474432 92.1848001,326.420332 C93.5709166,334.201623 95.7496505,340.730044 99.0989947,346.498018 C107.024393,360.146508 121.611984,369.449732 145.734825,374.639993 Z" transform="scale(-1 1) rotate(59.826 0 -144.615)"/>
    <path d="M147.285639,371.60351 C177.719323,378.157817 203.722095,372.728521 226.458141,356.967185 C244.969638,344.134438 260.593191,325.212893 276.019608,299.314568 C279.974103,292.675644 283.825996,285.75062 288.256593,277.42117 C290.408577,273.375477 297.525126,259.758505 298.868541,257.225092 C302.901792,249.619182 309.380095,242.062703 318.533664,233.833266 C325.466676,227.6002 331.770029,222.657639 346.084607,211.914 C346.611118,211.518838 346.611118,211.518838 347.137535,211.123709 C361.064714,200.669328 367.659485,195.474789 374.533286,189.227608 C383.49565,181.082258 389.764051,173.606818 393.539738,166.120879 C402.424116,148.506096 397.267811,130.816154 374.849255,110.937663 C358.372429,96.3276936 342.371277,92.5857942 325.920146,97.7727292 C313.089768,101.818064 301.400879,110.256801 284.907866,125.666626 C282.675652,127.752239 274.643288,135.380115 275.41646,134.648996 C271.709585,138.154253 269.003537,140.645473 266.406408,142.912497 C259.812521,148.668279 254.555697,152.356099 249.722499,154.357858 C238.067367,159.185046 229.037414,153.812534 221.400182,135.689161 C206.935113,101.363136 181.471591,90.774818 149.576987,100.917431 C122.636152,109.484726 92.8258166,132.893173 71.7621705,160.430915 C67.9814299,165.373699 57.0309821,179.439907 56.1435752,180.592111 C51.0311042,187.230111 47.7961381,191.670748 45.2886558,195.591859 C39.5199451,204.612762 37.8676822,210.721222 39.8431861,216.695774 C42.3344656,224.230195 50.2289592,231.662702 70.5148252,246.386809 C79.6205641,252.996036 85.2615768,261.364695 88.4958748,271.998548 C90.9391019,280.031486 91.7523581,286.870346 92.7273923,302.553548 C92.7401101,302.758113 92.7401101,302.758113 92.7528323,302.962667 C94.0879003,324.424439 95.7760118,333.902743 101.670905,344.059671 C109.42303,357.416619 123.690844,366.522051 147.285639,371.60351 Z" transform="scale(-1 1) rotate(58.073 0 -158.382)"/>
    <path d="M148.838108,368.565641 C178.591772,374.979844 204.01202,369.6706 226.238082,354.25362 C244.334785,341.700946 259.607908,323.191142 274.688083,297.855482 C278.553608,291.36115 282.318833,284.586926 286.649776,276.438765 C288.753236,272.48135 295.709737,259.160708 297.023192,256.681955 C300.966698,249.239772 307.300895,241.846532 316.250807,233.795248 C323.02923,227.697421 329.191947,222.862275 343.187111,212.352229 C343.701604,211.965861 343.701604,211.965861 344.216005,211.579526 C357.832193,201.352617 364.279296,196.271399 370.999179,190.160373 C379.760446,182.192924 385.887887,174.880821 389.578244,167.558659 C398.2611,150.330708 393.219752,133.02841 371.30226,113.581557 C355.194041,99.2891306 339.553034,95.6280128 323.472542,100.70023 C310.930316,104.656385 299.503581,112.910709 283.380093,127.984672 C281.197952,130.024771 273.347034,137.48499 274.100951,136.771636 C270.47691,140.200692 267.831227,142.637837 265.292,144.855657 C258.844678,150.4869 253.704399,154.094986 248.977655,156.053527 C237.576049,160.777816 228.740924,155.517353 221.270318,137.781 C207.126972,104.202549 182.235827,93.844032 151.057868,103.762739 C124.720241,112.141581 95.5775573,135.039306 74.9865536,161.977324 C71.2903926,166.812797 60.5849131,180.573592 59.718394,181.699428 C54.7206788,188.192779 51.5583734,192.53656 49.1072338,196.372063 C43.4691132,205.194501 41.854303,211.167435 43.7837828,217.008632 C46.2180192,224.3779 53.9362654,231.649555 73.771591,246.0565 C82.6770317,252.524768 88.1943868,260.714607 91.3581344,271.12055 C93.7478989,278.980771 94.5436458,285.672115 95.4982561,301.016568 C95.5107101,301.216754 95.5107101,301.216754 95.5231681,301.416929 C96.8300941,322.412308 98.4811748,331.684424 104.244467,341.619932 C111.823322,354.685343 125.77136,363.592983 148.838108,368.565641 Z" transform="scale(-1 1) rotate(56.275 0 -173.324)"/>
    <path d="M150.392537,365.526466 C179.466177,371.800566 204.303896,366.611374 226.019972,351.538749 C243.70188,339.266147 258.624574,321.168077 273.358505,296.395074 C277.135061,290.045333 280.813617,283.421907 285.044906,275.455032 C287.099844,271.585895 293.896296,258.561579 295.179792,256.137484 C299.03355,248.859026 305.22364,241.629022 313.969894,233.755888 C320.593729,227.793297 326.61581,223.065565 340.29156,212.789108 C340.794035,212.411535 340.794035,212.411535 341.29642,212.033994 C354.601615,202.034554 360.90105,197.066654 367.467016,191.091783 C376.027187,183.302233 382.013667,176.153466 385.618694,168.995078 C394.100034,152.153949 389.173639,135.239282 367.757204,116.224061 C352.017591,102.249174 336.736734,98.6688391 321.026886,103.626338 C308.772814,107.493311 297.608232,115.563224 281.854271,130.301327 C279.722204,132.295913 272.052727,139.588479 272.787393,138.892889 C269.246187,142.245745 266.660867,144.628816 264.179543,146.797433 C257.878786,152.30414 252.855051,155.832494 248.23476,157.747817 C237.086675,162.369214 228.446377,157.220792 221.142398,139.871451 C207.320772,107.040562 183.002004,96.9118465 152.540696,106.606646 C126.806279,114.797037 98.3312476,137.184045 78.2128869,163.522344 C74.6013057,168.250508 64.1407945,181.705894 63.2951628,182.805363 C58.4122032,189.154066 55.3225583,193.400992 52.9277612,197.150888 C47.4202275,205.774867 45.8428689,211.612282 47.7263303,217.32013 C50.1035269,224.524247 57.6455259,231.635054 77.0303123,245.724843 C85.7354528,252.052155 91.1291487,260.063176 94.2223451,270.241211 C96.5586469,277.928716 97.3368845,284.472545 98.2710718,299.478254 C98.2832617,299.67406 98.2832617,299.67406 98.2954557,299.869855 C99.5742405,320.398852 101.188291,329.464784 106.819985,339.178878 C114.225572,351.952757 127.853835,360.662607 150.392537,365.526466 Z" transform="scale(-1 1) rotate(54.434 0 -189.549)"/>
    <path d="M151.949222,362.486086 C180.342834,368.620086 204.598019,363.550945 225.804107,348.822674 C243.071218,336.830141 257.643483,319.143801 272.03117,294.933446 C275.718757,288.728294 279.310644,282.255663 283.442279,274.470072 C285.448695,270.689211 292.085098,257.961216 293.338634,255.591781 C297.102645,248.477043 303.148626,241.410272 311.691222,233.715285 C318.160467,227.887928 324.041912,223.267608 337.398247,213.224738 C337.888705,212.855958 337.888705,212.855958 338.379075,212.487211 C351.373277,202.715238 357.525044,197.860655 363.937092,192.021937 C372.296167,184.410284 378.141686,177.424851 381.661384,170.430235 C389.941213,153.975917 385.129766,137.448869 364.214383,118.865269 C348.843375,105.207921 333.922671,101.708369 318.583473,106.551148 C306.617556,110.328939 295.715129,118.214442 280.330696,132.616689 C278.248702,134.565761 270.760663,141.690679 271.476082,141.01285 C268.017711,144.289508 265.492755,146.618506 263.069333,148.73792 C256.915141,154.120094 252.00795,157.568718 247.494112,159.440827 C236.59954,163.959336 228.154068,158.922947 221.016718,141.960611 C207.516807,109.877271 183.770418,99.9783571 154.025765,109.449249 C128.89456,117.451189 101.087183,139.327484 81.441466,165.066072 C77.9144649,169.686928 67.6989218,182.836912 66.8741771,183.910012 C62.1059728,190.114069 59.0889883,194.264141 56.7505336,197.928432 C51.3735833,206.353958 49.833675,212.055859 51.6711242,217.630366 C53.9912846,224.669337 61.3570365,231.619296 80.2912849,245.391935 C88.7961234,251.578295 94.066158,259.410501 97.0888026,269.36063 C99.3716413,276.87542 100.13237,283.271736 101.046135,297.938705 C101.058061,298.130132 101.058061,298.130132 101.069991,298.321548 C102.320635,318.384172 103.897657,327.243926 109.397755,336.736612 C116.630077,349.218963 129.938566,357.731025 151.949222,362.486086 Z" transform="scale(-1 1) rotate(52.557 0 -207.179)"/>
    <path d="M153.508439,359.44463 C181.22202,365.438531 204.894665,360.489444 225.590761,346.105525 C242.443076,334.393058 256.664911,317.118441 270.706354,293.470726 C274.304971,287.410161 277.81019,281.088323 281.842171,273.484013 C283.800066,269.791426 290.27642,257.359748 291.499996,255.04497 C295.174257,248.093951 301.076128,241.190409 309.415065,233.673566 C315.729721,227.98144 321.47053,223.46853 334.50745,213.659243 C334.985891,213.299257 334.985891,213.299257 335.464246,212.939302 C348.147453,203.394794 354.151553,198.653527 360.409683,192.950959 C368.567661,185.517202 374.27222,178.695101 377.706589,171.864255 C385.784914,155.796737 381.08841,139.657291 360.674071,121.505303 C345.671669,108.165492 331.111122,104.746724 316.142578,109.474782 C304.46482,113.163391 293.824547,120.864486 278.809643,134.930879 C276.777723,136.834439 269.471118,143.791712 270.167294,143.131644 C266.791758,146.332104 264.327166,148.60703 261.961647,150.677242 C255.95402,155.934887 251.163372,159.303782 246.755985,161.132677 C236.114919,165.548308 227.864273,160.623942 220.893551,144.048601 C207.715352,112.712798 184.541344,103.043685 155.51335,112.290668 C130.985361,120.104158 103.845639,141.469745 84.6725668,166.60863 C81.2301461,171.12218 71.2595711,183.966767 70.4557129,185.013498 C65.8022638,191.072911 62.8579394,195.126131 60.5758268,198.704818 C55.3294563,206.931896 53.8269971,212.498291 55.6184406,217.939466 C57.8815685,224.813294 65.0710737,231.602407 83.5547853,245.057904 C91.8593198,251.103315 97.0056909,258.756708 99.9577832,268.478933 C102.187158,275.82101 102.930378,282.069815 103.823721,296.398048 C103.835384,296.585096 103.835384,296.585096 103.84705,296.772134 C105.069555,316.368395 106.609548,325.021977 111.978054,334.293261 C119.037113,346.48409 132.02583,354.798366 153.508439,359.44463 Z" transform="scale(-1 1) rotate(50.647 0 -226.356)"/>
    <path d="M155.070444,356.402253 C182.103988,362.256056 205.194089,357.427022 225.380189,343.387455 C241.817707,331.955051 255.689112,315.092151 269.38431,292.007066 C272.893958,286.091085 276.312509,279.920038 280.244837,272.497005 C282.15421,268.892692 288.470515,256.757326 289.66413,254.497204 C293.24864,247.709901 299.006401,240.969584 307.141678,233.630881 C313.301744,228.073983 318.901916,223.668483 331.619421,214.092773 C332.085846,213.741581 332.085846,213.741581 332.552186,213.390419 C344.924398,204.073372 350.78083,199.445418 356.885042,193.879 C364.841923,186.623136 370.405523,179.964365 373.754564,173.297285 C381.63139,157.616555 377.049825,141.864698 357.136523,124.144312 C342.502725,111.122034 328.302339,107.784052 313.704455,112.397386 C302.314858,115.996813 291.936741,123.513501 277.291367,137.244044 C275.309522,139.102092 268.184345,145.891725 268.861283,145.249415 C265.568583,148.373679 263.164355,150.594534 260.856738,152.615546 C254.995675,157.748664 250.321572,161.037834 246.020633,162.823518 C235.633067,167.136276 227.577245,162.323925 220.773153,146.135569 C207.916661,115.547287 185.315035,106.107977 157.003707,115.13105 C133.078935,122.756089 106.60687,143.610976 87.9064436,168.150165 C84.5486037,172.55641 74.8229967,185.095607 74.0400243,186.115967 C69.5013301,192.030739 66.6296657,195.987108 64.4038951,199.480193 C59.2881004,207.50883 57.8230887,212.939727 59.5685337,218.247578 C61.7746331,224.956267 68.7878919,231.584536 86.8210681,244.722899 C94.9252964,250.627365 99.9480019,258.101948 102.829541,267.596272 C105.005452,274.765637 105.731164,280.866933 106.604086,294.856435 C106.615484,295.039105 106.615484,295.039105 106.626886,295.221764 C107.821253,314.351674 109.32422,322.799089 114.561137,331.848979 C121.446936,343.748292 134.115882,351.864783 155.070444,356.402253 Z" transform="scale(-1 1) rotate(48.71 0 -247.24)"/>
    <path d="M156.635468,353.359131 C182.988971,359.072839 205.49652,354.363859 225.17262,340.668642 C241.195341,329.516298 254.716316,313.065107 268.065269,290.542643 C271.485948,284.771243 274.817831,278.750984 278.650505,271.509225 C280.511357,267.993184 286.667613,256.154124 287.831268,253.948658 C291.326025,247.325066 296.939674,240.747972 304.871289,233.587404 C310.876766,228.165732 316.336301,223.867638 328.73439,214.525503 C329.1888,214.183103 329.1888,214.183103 329.643126,213.840734 C341.70434,204.751144 347.413105,200.236503 353.363398,194.806232 C361.119184,187.728258 366.541823,181.232815 369.805538,174.729499 C377.480871,159.435543 373.014241,144.071259 353.601966,126.782462 C339.336772,114.077716 325.496553,110.82052 311.269335,115.319129 C300.167902,118.829373 290.05194,126.161656 275.776099,139.556353 C273.844327,141.368891 266.900574,147.990887 267.558279,147.366334 C264.348414,150.414403 262.004551,152.581189 259.754837,154.553 C254.040338,159.561597 249.482778,162.771043 245.288287,164.513517 C235.154213,168.723413 227.293214,164.023064 220.655753,148.221683 C208.120963,118.380908 186.09172,109.1714 158.497064,117.970563 C135.175514,125.407152 109.371107,145.751343 91.1433262,169.690846 C87.8700676,173.989788 78.3894285,186.223602 77.6273414,187.21759 C73.2034018,192.987723 70.4043972,196.847244 68.2349683,200.254728 C63.2497452,208.08493 61.8221796,213.380338 63.5216335,218.554874 C65.6707089,225.098428 72.5077216,231.565856 90.0903638,244.387092 C97.9942836,250.150619 102.893321,257.446394 105.704306,266.712818 C107.826753,273.709474 108.534956,279.663263 109.387459,293.314041 C109.398593,293.492332 109.398593,293.492332 109.409731,293.670612 C110.575961,312.334183 112.041901,320.57544 117.147234,329.403942 C123.859777,341.011746 136.208954,348.930455 156.635468,353.359131 Z" transform="scale(-1 1) rotate(46.751 0 -270.02)"/>
    <path d="M158.203716,350.315462 C183.877172,355.889077 205.802163,351.300152 224.968259,337.949284 C240.576181,327.076996 253.746727,311.037507 266.749433,289.077651 C270.081145,283.450831 273.32636,277.581356 277.05938,270.520868 C278.87171,267.093098 284.867919,255.550338 286.001611,253.399525 C289.406613,246.939642 294.87615,240.525765 302.604103,233.54333 C308.454989,228.25688 313.773887,224.066189 325.852559,214.957624 C326.294955,214.624016 326.294955,214.624016 326.737268,214.290439 C338.487484,205.428304 344.048582,201.026972 349.844956,195.732847 C357.399645,188.832761 362.681325,182.500643 365.859714,176.161089 C373.333561,161.253893 368.981859,146.277162 350.070603,129.419944 C336.174013,117.032726 322.693966,113.856318 308.83742,118.2402 C298.024154,121.661261 288.170349,128.80914 274.264041,141.867995 C272.382343,143.635022 265.620009,150.089388 266.258487,149.482589 C263.131457,152.454466 260.847959,154.567183 258.656147,156.489796 C253.088213,161.373874 248.647195,164.503599 244.55915,166.202867 C234.678559,170.309907 227.012383,165.72155 220.541553,150.307133 C208.328461,121.213847 186.871603,112.234142 159.993626,120.809393 C137.275299,128.057534 112.138552,147.891036 94.3834186,171.230861 C91.1947416,175.422504 81.9590703,187.350941 81.2178679,188.318556 C76.9086825,193.944054 74.1823376,197.706728 72.0692502,201.028612 C67.214594,208.660388 65.8244728,213.820315 67.4779438,218.861547 C69.57,225.239971 76.2307668,231.546559 93.3628768,244.050678 C101.066485,249.673269 105.841852,256.790239 108.582282,265.828768 C110.651264,272.652716 111.34196,278.459 112.174043,291.771059 C112.184914,291.944972 112.184914,291.944972 112.195788,292.118873 C113.333883,310.31612 114.762798,318.351224 119.736549,326.958347 C126.27584,338.274649 138.305249,345.995577 158.203716,350.315462 Z" transform="scale(-1 1) rotate(44.774 0 -294.908)"/>
    <path d="M159.775364,347.271462 C184.768768,352.704986 206.111194,348.236117 224.767282,335.229595 C239.960404,324.63736 252.780521,309.009565 265.436979,287.612306 C268.679722,282.130061 271.83827,276.411368 275.471637,269.532146 C277.235446,266.192645 283.071606,254.946179 284.175336,252.85002 C287.490582,246.55384 292.816004,240.303176 300.340294,233.498868 C306.036589,228.347637 311.21485,224.264348 322.974105,215.389347 C323.404487,215.064532 323.404487,215.064532 323.834787,214.739747 C335.274003,206.105061 340.687434,201.817038 346.329889,196.659055 C353.683482,189.936855 358.824203,183.76806 361.917267,177.592262 C369.189636,163.071811 364.952857,148.482615 346.54261,132.056962 C333.014623,119.987269 319.894753,116.89165 306.408886,121.160803 C295.88379,124.49268 286.292142,131.456159 272.755371,144.179175 C270.923745,145.900693 264.342825,152.187434 264.962082,151.598387 C261.917888,154.494072 259.694754,156.552722 257.560845,158.426137 C252.139474,163.185702 247.814999,166.23571 243.833399,167.891772 C234.206281,171.895968 226.734926,167.41959 220.430729,152.392125 C208.539329,124.04631 187.654857,115.296408 161.493566,123.647746 C139.378467,130.707438 114.909381,150.03026 97.6268964,172.770418 C94.5228014,176.854762 85.5320979,188.477831 84.8117794,189.419072 C80.617348,194.899937 77.9636625,198.565766 75.9069163,201.802054 C71.1828222,209.235411 69.8301436,214.259866 71.4376405,219.167804 C73.4726825,225.381104 79.9572038,231.526855 96.6387833,243.713867 C104.142078,249.195527 108.793771,256.133696 111.463646,264.944331 C113.479162,271.595574 114.15235,277.254356 114.964016,290.227703 C114.974623,290.397237 114.974623,290.397237 114.985233,290.566761 C116.095193,308.297696 117.487084,316.126656 122.32926,324.512409 C128.695301,335.537215 140.404944,343.060366 159.775364,347.271462 Z" transform="scale(-1 1) rotate(42.784 0 -322.155)"/>
    <path d="M161.35056,344.227361 C185.663905,349.520796 206.423758,345.171983 224.569833,332.509808 C239.348155,322.197621 251.817842,306.98151 264.128053,286.146836 C267.281828,280.809162 270.353709,275.241247 273.887422,268.543288 C275.60271,265.292054 281.278822,254.341875 282.352589,252.300367 C285.578076,246.167887 290.759383,240.080431 298.080007,233.454245 C303.621711,228.43823 308.659335,224.462339 320.099173,215.820897 C320.517541,215.504873 320.517541,215.504873 320.93583,215.18888 C332.064044,206.78164 337.329808,202.606922 342.818343,197.58508 C349.970841,191.040762 354.970603,185.035287 357.978343,179.023243 C365.049242,164.88952 360.927378,150.687838 343.018131,134.693735 C329.858746,122.941564 317.099059,119.926736 303.98388,124.081158 C293.746957,127.323851 284.417467,134.10293 271.250233,146.490113 C269.468681,148.166123 263.069168,154.285245 263.669211,153.713947 C260.707852,156.533443 258.545083,158.538027 256.469077,160.362246 C251.19427,164.997302 246.986337,167.967596 243.111179,169.580455 C233.737525,173.481816 226.46099,169.117405 220.323426,154.476878 C208.753712,126.878513 188.44163,118.358415 162.997031,126.485839 C141.485164,133.357084 117.683741,152.169233 100.873906,174.309735 C97.8543935,178.286783 89.1086577,189.604493 88.4092223,190.519358 C84.3295446,195.855593 81.7485181,199.424579 79.748113,202.575272 C75.1545755,209.810219 73.8393377,214.699215 75.40087,219.473871 C77.3789033,225.522051 83.6871796,231.506968 99.9182305,243.376883 C107.221208,248.717618 111.749225,255.476989 114.348543,264.059734 C116.310593,270.538274 116.966274,276.049557 117.757523,288.684199 C117.767866,288.849355 117.767866,288.849355 117.778212,289.0145 C118.86004,306.27914 120.214909,313.901964 124.925512,322.066356 C131.118309,332.799676 142.508188,340.125052 161.35056,344.227361 Z" transform="scale(-1 1) rotate(40.787 0 -352.051)"/>
    <path d="M162.929422,341.183401 C186.562701,346.336749 206.739973,342.107994 224.376029,329.790162 C238.73955,319.758019 250.858808,304.953584 262.822769,284.681479 C265.887577,279.488374 268.87279,274.071233 272.306851,267.554532 C273.973618,264.391562 279.489682,253.737663 280.533486,251.750805 C283.669212,245.782019 288.706402,239.857767 295.823359,233.409698 C301.210471,228.528894 306.107457,224.660399 317.227877,216.252509 C317.634233,215.945277 317.634233,215.945277 318.040511,215.638075 C328.857722,207.458276 333.975819,203.396861 339.310434,198.511157 C346.261836,192.144718 351.12064,186.30256 354.043057,180.454265 C360.912495,166.707251 356.90554,152.893061 339.49728,137.330493 C326.706497,125.895841 314.306999,122.961804 301.562515,127.001492 C291.61377,130.155 282.546439,136.749683 269.748745,148.801038 C268.017267,150.43154 261.799154,156.38305 262.379989,155.829499 C259.501465,158.572808 257.399062,160.523327 255.380959,162.298352 C250.252715,166.808904 246.161324,169.699487 242.392606,171.269147 C233.272404,175.067684 226.190689,170.815224 220.21976,156.561622 C208.971725,129.710686 189.232034,121.420393 164.504137,129.323901 C143.595505,136.006699 120.461748,154.308183 104.124563,175.849041 C101.189634,179.718796 92.6888656,190.731157 92.0103126,191.619643 C88.0453881,196.811253 85.5370205,200.283399 83.592956,203.348499 C79.1299695,210.385046 77.8521703,215.138592 79.3677482,219.779979 C81.2887788,225.663046 87.4208105,231.487132 103.201335,243.039963 C110.303993,248.239777 114.70833,254.820354 117.237089,263.175214 C119.145673,269.481053 119.783847,274.84484 120.554681,287.140784 C120.56476,287.301562 120.56476,287.301562 120.574842,287.462329 C121.628539,304.260692 122.946387,311.677388 127.525424,319.62043 C133.54498,330.062272 144.615097,337.189876 162.929422,341.183401 Z" transform="scale(-1 1) rotate(38.787 0 -384.936)"/>
    <path d="M164.512036,338.139831 C187.465242,343.153095 207.059923,339.044399 224.185955,327.070909 C238.134674,317.318805 249.903502,302.926034 261.521213,283.216483 C264.497054,278.167943 267.395601,272.901572 270.730008,266.566123 C272.348255,263.491417 277.70427,253.133789 278.71811,251.201579 C281.764073,245.396483 286.657144,239.635427 293.570433,233.365469 C298.802954,228.619872 303.559301,224.85877 314.360302,216.684426 C314.754646,216.385985 314.754646,216.385985 315.148915,216.087573 C325.65512,208.13521 330.625551,204.187096 335.806245,199.437527 C342.556552,193.248963 347.274398,187.570118 350.111493,181.885569 C356.77948,168.525245 352.887426,155.098521 335.980141,139.967472 C323.55796,128.850333 311.518658,125.99709 299.144878,129.922042 C289.484314,132.986365 280.679143,139.396653 268.250992,151.112186 C266.569586,152.697181 260.532867,158.481086 261.094503,157.945278 C258.298814,160.612402 256.256776,162.508859 254.296576,164.23469 C249.314895,168.620744 245.340046,171.431621 241.677766,172.958084 C232.811004,176.65381 225.924107,172.513286 220.119814,158.646593 C209.193451,132.543063 190.026153,124.482574 166.014967,132.162165 C145.709575,138.656517 123.243486,156.447346 107.378953,177.388573 C104.528608,181.151037 96.2728067,191.858059 95.6151352,192.720166 C91.7649636,197.767154 89.3292545,201.142462 87.4415304,204.121972 C83.1090886,210.960129 81.8687257,215.578239 83.3383603,220.086371 C85.2023948,225.804331 91.1581824,231.467589 106.488183,242.703347 C113.390517,247.762249 117.67117,254.164036 120.129371,262.291013 C121.984488,268.424154 122.605155,273.640448 123.355575,285.597703 C123.36539,285.754104 123.36539,285.754104 123.375209,285.910493 C124.400777,302.242596 125.681605,309.453176 130.129081,317.174878 C135.975402,327.325252 146.725759,334.255088 164.512036,338.139831 Z" transform="scale(-1 1) rotate(36.789 0 -421.206)"/>
    <path d="M166.098458,335.096904 C188.371583,339.970088 207.383663,335.981452 223.999665,324.352302 C237.533581,314.880231 248.951979,300.899113 260.223438,281.752099 C263.110312,276.848119 265.922193,271.732514 269.156947,265.578312 C270.726675,262.591866 275.922642,252.5305 276.906517,250.652937 C279.862713,245.011525 284.611664,239.41366 291.321283,233.321806 C296.399211,228.711411 301.01492,225.057699 311.496501,217.116893 C311.878835,216.827242 311.878835,216.827242 312.261094,216.537621 C332.953719,200.858757 341.223453,193.269016 346.183705,183.317398 C352.650251,170.343742 348.87309,157.304458 332.466766,142.604908 C320.413185,131.805279 308.734088,129.032832 296.731022,132.843045 C287.358644,135.818181 278.815633,142.044078 266.757027,153.423795 C265.125695,154.963284 259.270362,160.579592 259.812806,160.061525 C257.099953,162.652466 255.11828,164.494862 253.215984,166.171502 C248.380865,170.433064 244.522556,173.164238 240.966712,174.647507 C232.353378,178.240435 225.661297,174.211831 220.023641,160.732029 C209.418943,135.375879 190.824041,127.545195 167.529576,135.000867 C147.827429,141.306775 126.029009,158.586958 110.63713,178.928569 C107.871369,182.583746 99.8605354,192.985441 99.2237444,193.821166 C95.4883252,198.723537 93.1252743,202.00201 91.2938902,204.895932 C87.0919862,211.53571 85.8890573,216.018397 87.3127607,220.393289 C89.1198061,225.946151 94.8993503,231.448583 109.778829,242.367283 C116.480836,247.285278 120.637802,253.50828 123.025442,261.407379 C124.827091,267.367826 125.430253,272.43663 126.16026,284.055205 C126.169811,284.207228 126.169811,284.207228 126.179366,284.359241 C127.176807,300.225104 128.420617,307.229578 132.736538,314.729953 C138.409629,324.58887 148.84023,331.32094 166.098458,335.096904 Z" transform="scale(-1 1) rotate(34.8 0 -461.331)"/>
    <path d="M167.688714,332.054876 C189.28175,336.787983 207.711217,332.919407 223.817182,321.634595 C236.936293,312.442552 248.004262,298.873074 258.929469,280.288579 C261.727377,275.529154 264.452591,270.564309 267.587693,264.591349 C269.108901,261.693161 274.14482,251.928047 275.098729,250.105129 C277.965156,244.627394 282.569984,239.192713 289.075931,233.278956 C293.999266,228.803758 298.474337,225.257431 308.636497,217.550156 C309.006821,217.269296 309.006821,217.269296 309.377073,216.988464 C329.436856,201.772406 337.453031,194.406923 342.259715,184.749995 C348.524831,172.162983 344.862555,159.51111 328.957177,145.243039 C317.272195,134.760915 305.953311,132.069266 294.32097,135.764736 C285.236783,138.650685 276.955934,144.692194 265.266875,155.736101 C263.685616,157.230087 258.011661,162.678805 258.534922,162.178475 C255.904905,164.693236 253.983598,166.481573 252.139205,168.109024 C247.450649,172.246101 243.70888,174.897578 240.259469,176.337656 C231.899548,179.827801 225.402281,175.911097 219.931265,162.818168 C209.648222,138.209369 191.62572,130.608491 169.047985,137.840243 C149.949089,143.957707 128.818342,160.727257 113.899118,180.469267 C111.217942,184.01716 103.452075,194.113539 102.836164,194.922881 C99.2154966,199.680639 96.9251036,202.86228 95.1500591,205.670618 C91.0786856,212.11203 89.9131879,216.459307 91.2909733,220.700976 C93.0410373,226.088747 98.6443387,231.43036 113.073299,242.032016 C119.574974,246.809112 123.608248,252.853334 125.925327,260.524559 C127.673507,266.312315 128.259163,271.233633 128.968759,282.513538 C128.978047,282.661185 128.978047,282.661185 128.987338,282.80882 C129.956654,298.208466 131.163448,305.006846 135.347821,312.285907 C140.847688,321.853379 150.958534,328.387687 167.688714,332.054876 Z" transform="scale(-1 1) rotate(32.823 0 -505.868)"/>
    <path d="M169.282801,329.013997 C190.195737,333.607031 208.04258,329.858518 223.6385,318.91804 C236.342806,310.006019 247.060346,296.848167 257.639298,278.82617 C260.34824,274.211295 262.986789,269.397205 266.022238,263.605479 C267.494926,260.795546 272.370798,251.326674 273.29474,249.558399 C276.071395,244.244334 280.532098,238.972829 286.834371,233.237162 C291.603112,228.897155 295.937543,225.45821 305.780282,217.984457 C306.138598,217.712385 306.138598,217.712385 306.496843,217.440342 C325.923784,202.687076 333.686399,195.545847 338.339516,186.183598 C344.403216,173.983206 340.855813,161.71871 325.451366,147.882097 C314.134983,137.717472 303.176321,135.106623 291.914716,138.687347 C283.118725,141.484108 275.100039,147.341233 263.780531,158.049337 C262.249345,159.49782 256.756758,164.778958 257.260846,164.296362 C254.713665,166.734946 252.852724,168.469226 251.066235,170.04749 C246.524241,174.060089 242.899012,176.631873 239.55603,178.028765 C231.449507,181.416144 225.147053,177.611318 219.842677,164.905242 C209.881281,141.043764 192.431181,133.672692 170.57019,140.680521 C152.07455,146.609542 131.611478,162.868471 117.164911,182.010898 C114.56832,185.451511 107.047421,195.242588 106.452388,196.025544 C102.946472,200.638695 100.728737,203.723507 99.0100312,206.446264 C95.06918,212.689323 93.9411106,216.901209 95.2729923,221.009672 C96.9660836,226.232361 102.393143,231.413157 116.371587,241.697787 C122.672926,246.333992 126.582504,252.199439 128.829019,259.642796 C130.52373,265.257865 131.091882,270.031702 131.781068,280.972947 C131.790093,281.116217 131.790093,281.116217 131.79912,281.259476 C132.740313,296.19293 133.910093,302.785229 137.962925,309.842991 C143.289574,319.11903 153.08067,325.455581 169.282801,329.013997 Z" transform="scale(-1 1) rotate(30.863 0 -555.48)"/>
    <path d="M170.880687,325.974514 C191.113514,330.427478 208.377718,326.799029 223.463586,316.202883 C235.753085,307.570876 246.120195,294.824635 256.352891,277.365114 C258.972868,272.894782 261.524752,268.231442 264.460548,262.620943 C265.884718,259.899262 270.600542,250.726619 271.494516,249.012984 C276.311692,239.779077 283.752502,232.998346 302.927821,218.420029 C303.274131,218.156745 303.274131,218.156745 303.62037,217.893491 C322.414468,203.603001 329.923521,196.686019 334.423074,187.61844 C340.28537,175.804636 336.852831,163.927484 321.949296,150.522302 C311.00151,140.675171 300.40308,138.145125 289.512225,141.611099 C281.004437,144.318671 273.247914,149.991415 262.297961,160.363726 C260.816847,161.766706 255.505619,166.880276 255.990545,166.415408 C253.526199,168.777819 251.725625,170.458045 249.997041,171.987123 C245.601607,175.875253 242.092918,178.367349 238.856363,179.72106 C231.00322,183.005689 224.895577,179.31272 219.757843,166.993474 C210.118084,143.879282 193.240389,136.738018 172.096154,143.521922 C154.203777,149.262502 134.408384,165.010823 120.434475,183.553685 C117.922471,186.887023 110.646539,196.372813 110.072383,197.129381 C106.681218,201.597929 104.536139,204.585917 102.873773,207.223096 C99.0634349,213.267818 97.9727906,217.344328 99.2587844,221.319607 C100.894912,226.377224 106.14573,231.397209 119.673662,241.36483 C125.774659,245.860154 129.560536,251.546832 131.736486,258.762326 C133.377727,264.204712 133.928374,268.831072 134.597153,279.433671 C134.605914,279.572565 134.605914,279.572565 134.614678,279.711447 C135.527751,294.178734 136.66052,300.564967 140.581818,307.401446 C145.735257,316.386067 155.206605,322.524866 170.880687,325.974514 Z" transform="scale(-1 1) rotate(28.926 0 -610.962)"/>
    <path d="M172.482308,322.936662 C192.035013,327.249562 208.716564,323.741178 223.29237,313.489361 C235.16706,305.13736 245.183741,292.802713 255.07018,275.905643 C257.601192,271.579849 260.066411,267.067251 262.902556,261.637971 C264.278207,259.004538 268.833983,250.128112 269.697989,248.469115 C274.35395,239.529099 281.545548,232.966275 300.079045,218.857095 C300.413349,218.6026 300.413349,218.6026 300.747585,218.348133 C318.908837,204.520404 326.164328,197.827662 330.510319,189.054739 C336.171226,177.627494 332.853538,166.137644 318.450896,153.163868 C307.871706,143.634224 297.63352,141.184983 287.113428,144.536203 C278.893849,147.154585 271.399492,152.642952 260.819097,162.679478 C259.388056,164.036958 254.258174,168.98297 254.72395,168.535827 C252.342441,170.822067 250.602234,172.448242 248.931554,173.928137 C244.682681,177.691807 241.29053,180.104223 238.160398,181.414756 C230.560616,184.596656 224.647783,181.015518 219.676693,169.083077 C210.358559,146.716134 194.053273,139.804678 173.625809,146.364654 C156.336702,151.916793 137.20899,167.154522 123.707743,185.097842 C121.280326,188.323908 114.249361,197.504428 113.69608,198.234604 C110.419665,202.558558 108.347244,205.449725 106.741215,208.00133 C103.061381,213.847731 102.008158,217.788886 103.248281,221.631002 C104.827456,226.523558 109.902033,231.382736 122.979457,241.03337 C128.880107,245.387821 132.542277,250.895738 134.64766,257.883375 C136.23543,263.153083 136.768574,267.631971 137.416948,277.895937 C137.425445,278.030455 137.425445,278.030455 137.433945,278.164961 C138.318901,292.166112 139.414661,298.346294 143.204434,304.961509 C148.18467,313.654726 157.336275,319.595778 172.482308,322.936662 Z" transform="scale(-1 1) rotate(27.016 0 -673.275)"/>
    <path d="M174.087596,319.900663 C192.960166,324.073504 209.059048,320.685186 223.124782,310.777695 C234.584662,302.705692 244.250914,290.782619 253.791093,274.447972 C256.233141,270.266709 258.611696,265.904845 261.348188,260.656776 C262.675322,258.111587 267.07105,249.531363 267.905087,247.927 C272.399827,239.280859 279.342213,232.935928 297.233881,219.295863 C297.556181,219.050154 297.556181,219.050154 297.878414,218.804474 C315.40682,205.439486 322.408747,198.970978 326.601179,190.492697 C332.060714,179.451975 328.857863,168.349385 314.956092,155.806984 C304.745497,146.59482 294.867567,144.226387 284.718254,147.462848 C276.786892,149.992039 269.554702,155.296034 259.343869,164.996785 C257.9629,166.308767 253.014354,171.087233 253.460992,170.657809 C251.162319,172.867884 249.48248,174.440009 247.869704,175.870725 C243.767392,179.509944 240.491778,181.842686 237.468065,183.110048 C230.121623,186.189241 224.403598,182.719906 219.599154,171.174243 C210.602633,149.554505 194.869759,142.872858 175.159083,149.208904 C158.473253,154.572605 140.013227,169.299758 126.984643,186.643558 C124.641815,189.762358 117.855816,198.637627 117.32341,199.341408 C114.161744,203.520773 112.161979,206.315124 110.612288,208.78116 C107.062946,214.429258 106.047141,218.23508 107.241413,221.944058 C108.763645,226.671564 113.661984,231.369942 126.288903,240.703611 C131.9892,244.917202 135.527656,250.246364 137.562471,257.006152 C139.096769,262.103186 139.61241,266.434609 140.24038,276.359956 C140.248614,276.490099 140.248614,276.490099 140.256851,276.62023 C141.113693,290.155277 142.172446,296.129426 145.830705,302.523395 C150.637747,310.925228 159.469613,316.668538 174.087596,319.900663 Z" transform="scale(-1 1) rotate(25.139 0 -743.587)"/>
    <path d="M175.696443,316.866727 C193.888864,320.899513 209.405058,317.631265 222.960709,308.068096 C234.005777,300.27608 243.3216,288.76456 252.515517,272.992306 C254.868602,268.955566 257.160493,264.744429 259.797334,259.677559 C261.07595,257.220611 265.311631,248.936573 266.115696,247.386841 C270.449208,239.034554 277.142381,232.907501 294.392214,219.736523 C294.702511,219.499601 294.702511,219.499601 295.012744,219.262707 C311.908302,206.360439 318.656663,200.116156 322.695538,191.932503 C327.953719,181.278265 324.865692,170.562886 311.464768,158.451825 C301.622765,149.557133 292.105105,147.269513 282.32659,150.391209 C274.683452,152.831207 267.71343,157.950836 257.872164,167.315823 C256.541268,168.582309 251.774043,173.193242 252.201559,172.781533 C249.985722,174.915446 248.366251,176.433526 246.81138,177.815065 C242.855627,181.329845 239.696551,183.582921 236.779252,184.807116 C229.686127,187.783627 224.162906,184.426065 219.525111,173.267148 C210.850188,152.394569 195.689732,145.942732 176.695861,152.054844 C160.613318,157.230109 142.820981,171.446705 130.265063,188.191011 C128.006824,191.20255 121.465793,199.772589 120.954258,200.449972 C117.907342,204.484756 115.980232,207.182296 114.486878,209.562769 C111.068017,215.012584 110.089625,218.683097 111.238066,222.258963 C112.70337,226.821434 117.42547,231.359018 129.60189,240.375747 C135.101827,244.44849 138.516562,249.598906 140.480807,256.130851 C141.961631,261.055218 142.45977,265.239181 143.06734,274.825928 C143.075311,274.951695 143.075311,274.951695 143.083284,275.077451 C143.912015,288.146432 144.933766,293.914567 148.460521,300.087314 C153.094378,308.19778 161.606509,313.743356 175.696443,316.866727 Z" transform="scale(-1 1) rotate(23.299 0 -823.33)"/>
    <path d="M177.308728,313.835046 C194.820984,317.727783 209.75447,314.579607 222.800026,305.360756 C233.43028,297.848716 242.395673,286.748726 251.243326,271.53883 C253.507449,267.646603 255.712676,263.586183 258.249866,258.700502 C259.479965,256.33179 263.555599,248.343919 264.329691,246.848815 C268.501967,238.790362 274.945927,232.881169 291.553916,220.179249 C291.852213,219.951112 291.852213,219.951112 292.150447,219.723003 C308.413156,207.283432 314.907949,201.263364 318.79327,193.374323 C323.850118,183.106524 320.876898,172.778303 307.976793,161.098546 C298.503381,152.521316 289.346007,150.314511 279.938309,153.321437 C272.583404,155.672242 265.875552,160.60751 256.403859,169.636745 C255.123034,170.857737 250.537117,175.301154 250.945525,174.907152 C248.812526,176.964908 247.253422,178.428947 245.756457,179.761313 C241.947263,183.151666 238.904723,185.325084 236.093834,186.50612 C229.253998,189.379976 223.92558,186.134151 219.454436,175.361946 C211.101097,155.236475 196.513062,149.014448 178.236017,154.902623 C162.75677,159.889453 145.632128,173.595513 133.548878,189.740355 C131.37523,192.64464 125.079165,200.90947 124.588501,201.560452 C121.656333,205.450665 119.801877,208.051399 118.36486,210.346313 C115.076466,215.597868 114.135484,219.133098 115.238117,222.575883 C116.646505,226.973335 121.192369,231.350133 132.918296,240.04995 C138.217864,243.981859 141.508872,248.953537 143.402543,255.25765 C144.829892,260.009355 145.31053,264.045867 145.897703,273.29403 C145.905411,273.415423 145.905411,273.415423 145.91312,273.536805 C146.713745,286.139759 147.698496,291.701903 151.093759,297.653451 C155.554443,305.472574 163.746845,310.820422 177.308728,313.835046 Z" transform="scale(-1 1) rotate(21.5 0 -914.271)"/>
    <path d="M178.924316,310.805792 C195.756389,314.558489 210.107143,311.530387 222.64259,302.655848 C232.858028,295.423773 241.472992,284.735285 249.974379,270.087708 C252.14954,266.339986 254.268105,262.430273 256.705643,257.725768 C257.887226,255.445286 261.802813,247.753562 262.54693,246.313082 C266.557961,238.548437 272.752707,232.857086 288.718844,220.624191 C289.005143,220.404838 289.005143,220.404838 289.29138,220.185512 C304.921237,208.208613 311.162461,202.41275 314.894231,194.8183 C319.749769,184.936892 316.891338,174.995769 304.492023,163.747271 C295.387199,155.487494 286.590127,153.361509 277.553268,156.253658 C270.486607,158.515267 264.040928,163.266181 254.938812,171.959678 C253.708059,173.135179 249.303433,177.411096 249.692751,177.034797 C247.642589,179.016401 246.143854,180.426402 244.704795,181.709599 C241.042159,184.97554 238.116154,187.06931 235.41167,188.207193 C228.825095,190.978425 223.691476,187.844299 219.386986,177.458767 C211.355213,158.080343 197.339605,152.088129 179.779408,157.752363 C164.903468,162.55076 148.446525,175.746308 136.835947,191.291719 C134.746892,194.088756 128.695793,202.048405 128.225997,202.67298 C125.408576,206.41863 123.626775,208.922566 122.246093,211.131927 C119.088152,216.185249 118.184573,219.585226 119.241425,222.894963 C120.592914,227.127413 124.962542,231.343433 136.237981,239.72637 C141.337173,243.51746 144.504444,248.310412 146.327539,254.386701 C147.701412,258.965753 148.16455,262.85482 148.73133,271.764422 C148.738774,271.881441 148.738774,271.881441 148.74622,271.998449 C149.518743,284.135423 150.466498,289.491599 153.730282,295.221978 C158.017804,302.749781 165.890484,307.899911 178.924316,310.805792 Z" transform="scale(-1 1) rotate(19.748 0 -1018.618)"/>
    <path d="M180.543054,307.779123 C196.694923,311.391786 210.462919,308.483761 222.488242,299.95353 C232.288861,293.001404 240.553396,282.72439 248.708513,268.639088 C250.794714,265.035858 252.826617,261.276841 255.164504,256.753498 C256.297572,254.56124 260.053112,247.16564 260.767253,245.779779 C264.617028,238.308916 270.56256,232.835384 285.886834,221.071477 C286.161137,220.860907 286.161137,220.860907 286.43538,220.650363 C301.432383,209.136105 307.420036,203.564435 310.998259,196.264555 C315.652512,186.769484 312.908849,177.215389 301.010289,166.398104 C292.274052,158.455767 283.837302,156.410608 275.171307,159.187972 C268.392901,161.360383 262.209396,165.92695 253.476865,174.284726 C252.296183,175.414738 248.072829,179.523175 248.443078,179.164569 C246.475753,181.070029 245.037388,182.425997 243.656235,183.660029 C240.140156,186.801573 237.330686,188.815706 234.732599,189.910445 C228.399252,192.579087 223.46043,189.556617 219.322597,179.557714 C211.61237,160.926272 198.169195,155.16387 181.325871,160.604159 C167.053251,165.214126 151.264013,177.899188 140.126111,192.845205 C138.121649,195.535003 132.315517,203.189499 131.866587,203.787662 C129.163911,207.388762 127.454764,209.795907 126.130416,211.919722 C123.102912,216.774838 122.23673,220.039596 123.247829,223.216324 C124.542436,227.283791 128.735832,231.339043 139.560791,239.405136 C144.459596,243.055424 147.50312,247.669661 149.255636,253.518137 C150.576031,257.924544 151.021671,261.666177 151.56806,270.237241 C151.575241,270.349887 151.575241,270.349887 151.582424,270.462522 C152.326851,282.133567 153.237614,287.283804 156.369934,292.793043 C160.484308,300.029554 168.037272,304.981975 180.543054,307.779123 Z" transform="scale(-1 1) rotate(18.046 0 -1139.15)"/>
    <path d="M182.164791,304.755171 C197.636433,308.227809 210.821643,305.439865 222.336823,297.253935 C231.722621,290.581744 239.636727,280.716168 247.445572,267.193092 C249.442813,263.734342 251.388054,260.126006 253.626291,255.783809 C254.710845,253.679768 258.306337,246.580266 258.9905,245.249019 C262.679007,238.071907 268.375325,232.81617 283.057725,221.521207 C283.320035,221.319419 283.320035,221.319419 283.582286,221.117657 C297.946434,210.066006 303.680512,204.718516 307.105193,197.713181 C311.558189,188.604383 308.929271,179.43724 297.531429,169.051113 C289.163775,161.426204 281.087368,159.461875 272.792266,162.124446 C266.302128,164.207657 260.3808,168.589886 252.01786,176.611958 C250.88725,177.696485 246.845147,181.637464 247.196349,181.296543 C245.311861,183.125865 243.933867,184.427805 242.61062,185.612677 C239.241099,188.629843 236.548161,190.56435 234.056466,191.615955 C227.976308,194.182048 223.23228,191.271183 219.261106,181.658859 C211.872405,163.774323 199.001668,158.241736 182.875247,163.458074 C169.205961,167.879614 154.084434,180.054221 143.419211,194.400885 C141.499345,196.983454 135.938179,204.332829 135.510112,204.904575 C132.922182,208.361137 131.285686,210.671499 130.017673,212.709776 C127.120586,217.366719 126.291794,220.496296 127.257174,223.540058 C128.494919,227.442565 132.512084,231.33706 142.88657,239.08635 C147.584977,242.595856 150.504745,247.031391 152.186678,252.652067 C153.453593,256.885838 153.881736,260.480047 154.40774,268.712599 C154.414658,268.820873 154.414658,268.820873 154.421577,268.929136 C155.137913,280.134311 156.011689,285.078639 159.012563,290.366775 C162.953804,297.312026 170.187061,302.066748 182.164791,304.755171 Z" transform="scale(-1 1) rotate(16.399 0 -1279.412)"/>
    <path d="M183.789365,301.734053 C198.580754,305.066675 211.183143,302.398815 222.188161,294.55718 C231.159134,288.164905 238.722812,278.710728 246.18538,265.749822 C248.093663,262.435537 249.952244,258.977868 252.090831,254.816799 C253.126871,252.800966 256.562317,245.997533 257.216498,244.720894 C260.743725,237.837498 266.190827,232.799527 280.23134,221.973461 C280.48166,221.780453 280.48166,221.780453 280.731922,221.58747 C294.463211,210.998388 299.943712,205.875063 303.214856,199.164245 C307.466628,190.441649 304.952429,181.661371 294.05526,171.706339 C286.056186,164.398842 278.340149,162.515351 270.415971,165.063118 C264.214115,167.057127 258.554967,171.255028 250.561626,178.941416 C249.481088,179.980461 245.620213,183.754006 245.952392,183.430761 C244.150743,185.183953 242.83312,186.431872 241.567781,187.56759 C238.344815,190.460397 235.768409,192.315294 233.383097,193.323774 C227.556085,195.787363 223.006847,192.988047 219.202338,183.762247 C212.135136,166.62453 199.836846,161.321759 184.42736,166.31414 C171.361423,170.547256 156.907616,182.211442 146.715077,195.958802 C144.879808,198.434152 139.563609,205.478444 139.156401,206.023767 C136.683214,209.335806 135.11937,211.549393 133.907689,213.502142 C131.140998,217.960949 130.34959,220.955387 131.269287,223.866232 C132.450192,227.603805 136.291129,231.337555 146.215152,238.770089 C150.713149,242.138835 153.509147,246.395683 155.120494,251.788573 C156.333928,255.84972 156.744575,259.296516 157.250197,267.190589 C157.256853,267.294491 157.256853,267.294491 157.263509,267.398383 C157.951761,278.137754 158.788556,282.876209 161.658001,287.943282 C165.426127,294.597309 172.339686,299.154345 183.789365,301.734053 Z" transform="scale(-1 1) rotate(14.811 0 -1443.972)"/>
    <path d="M185.416603,298.715866 C199.527709,301.908485 211.547239,299.360714 222.042072,291.863364 C230.598218,285.750985 237.811467,276.708162 244.927754,264.30936 C246.74708,261.139523 248.519002,257.832503 250.557939,253.852541 C251.545466,251.924909 254.820865,245.417509 255.445063,244.195472 C258.810993,237.605752 264.00888,232.785515 277.40749,222.428291 C277.645823,222.24406 277.645823,222.24406 277.8841,222.059856 C290.982528,211.933298 296.209448,207.03412 299.327061,200.617786 C303.377645,192.281311 300.978135,183.887797 290.581591,174.36379 C282.951093,167.373686 275.595452,165.571041 268.042236,168.003992 C262.128679,169.908797 256.731714,173.92238 249.107983,181.273109 C248.077514,182.266676 244.397843,185.872815 244.711027,185.567236 C242.992217,187.244307 241.734965,188.438211 240.527535,189.524782 C237.451124,192.293254 234.991248,194.068555 232.71231,195.033924 C227.138396,197.39506 222.783944,194.70723 219.146104,185.867887 C212.400373,169.476891 200.674536,164.403937 185.982024,169.172355 C173.519454,173.21705 159.733374,184.370855 150.013524,197.518967 C148.262855,199.887109 143.191622,206.626362 142.805271,207.145254 C140.446826,210.312786 138.955632,212.42961 137.800282,214.296841 C135.163964,218.557554 134.409931,221.416902 135.283985,224.194886 C136.408077,227.767555 140.072789,231.340575 149.54636,238.456406 C153.843932,241.684418 156.516146,245.762596 158.056902,250.927717 C159.216853,254.816251 159.610006,258.115649 160.095253,265.671277 C160.101645,265.77081 160.101645,265.77081 160.108039,265.870331 C160.768215,276.143974 161.568034,280.676598 164.306074,285.522654 C167.901104,291.885498 174.494975,296.244863 185.416603,298.715866 Z" transform="scale(-1 1) rotate(13.286 0 -1638.805)"/>
    <path d="M187.046352,295.700691 C200.477141,298.753318 211.913767,296.325641 221.89839,289.172569 C230.039704,283.34006 236.902525,274.708541 243.672526,262.871767 C245.402897,259.846359 247.08816,256.689969 249.027448,252.891089 C249.966464,251.051646 253.081817,244.840241 253.676028,243.672797 C256.880643,237.376708 261.829312,232.774167 274.586004,222.885721 C274.812353,222.710266 274.812353,222.710266 275.038649,222.534837 C287.504212,212.870753 292.477549,208.195702 295.441637,202.073815 C299.291075,194.123366 297.006221,186.116501 287.110243,177.023435 C279.848316,170.350705 272.853105,168.628913 265.670893,170.947036 C260.045655,172.762633 254.910875,176.591912 247.656764,183.607008 C246.676366,184.555102 243.177867,187.993868 243.472089,187.705942 C241.836118,189.306904 240.63924,190.4468 239.489718,191.484231 C236.559861,194.128395 234.216515,195.82412 232.04394,196.746392 C226.723067,199.005136 222.563397,196.428715 219.09223,187.975756 C212.667936,172.331365 201.514562,167.488231 187.539068,172.032677 C175.679886,175.888956 162.561542,186.532426 153.314387,199.081354 C151.648322,201.342302 146.822055,207.776566 146.456556,208.269018 C144.212851,211.292061 142.794306,213.312135 141.695286,215.09386 C139.189313,219.156528 138.472644,221.880843 139.301105,224.526029 C140.368412,227.933829 143.856903,231.346135 152.880034,238.145327 C156.977165,241.232633 159.525579,245.132161 160.99574,250.069533 C162.102204,253.785469 162.477866,256.937484 162.942744,264.154709 C162.948873,264.249872 162.948873,264.249872 162.955005,264.345024 C163.587112,274.153029 164.349964,278.479866 166.956622,283.104959 C170.37858,289.176669 176.652777,293.338379 187.046352,295.700691 Z" transform="scale(-1 1) rotate(11.828 0 -1871.844)"/>
    <path d="M188.678445,292.688596 C201.428876,295.601247 212.282547,293.29367 221.756928,286.484865 C229.483406,280.932199 235.995801,272.71192 242.419509,261.437088 C244.060927,258.556087 245.659533,255.550302 247.499172,251.932476 C248.389678,250.181211 251.344984,244.265755 251.909205,243.152895 C254.952485,237.150382 259.651936,232.765495 271.766687,223.345752 C271.981059,223.179071 271.981059,223.179071 272.195378,223.012416 C284.028072,213.810745 288.747821,209.359797 291.558391,203.532313 C295.206733,195.967781 293.036494,188.347431 283.641017,179.68521 C276.747655,173.32983 270.112911,171.688902 263.301753,173.892181 C257.964855,175.618566 253.092266,179.263555 246.207788,185.94305 C245.277459,186.845678 241.960099,190.117107 242.235396,189.846821 C240.682264,191.371685 239.545761,192.457584 238.454149,193.445883 C235.670845,195.965771 233.444026,197.581941 231.377802,198.461132 C226.309905,200.617554 222.345011,198.152457 219.040523,190.085793 C212.937629,175.187876 202.356728,170.574563 189.098302,174.895028 C177.842533,178.562895 165.391935,188.696083 156.617482,200.645901 C155.036023,202.799672 150.454722,208.929004 150.110071,209.395007 C147.981104,212.273585 146.635207,214.196922 145.592515,215.893155 C143.216856,219.757835 142.537541,222.347182 143.320461,224.859644 C144.331017,228.102616 147.643292,231.354229 156.215999,237.836853 C160.112669,240.783488 162.537264,244.504388 163.936824,249.214032 C164.989799,252.757387 165.347972,255.76204 165.792488,262.640909 C165.798355,262.731704 165.798355,262.731704 165.804224,262.822489 C166.408274,272.164956 167.134166,276.286062 169.609472,280.690253 C172.858384,286.470885 178.812921,290.43496 188.678445,292.688596 Z" transform="scale(-1 1) rotate(10.441 0 -2153.804)"/>
    <path d="M190.312737,289.679639 C202.382763,292.452331 212.653419,290.264861 221.617524,283.800311 C228.929162,278.527453 235.09113,270.718345 241.168539,260.005351 C242.721005,257.26873 244.232956,254.413524 245.972947,250.976718 C246.814944,249.313617 249.610203,243.694055 250.14443,242.635769 C253.02635,236.926771 257.476581,232.759486 268.949369,223.80836 C269.151767,223.65045 269.151767,223.65045 269.354114,223.492566 C280.553936,214.753239 285.020092,210.526365 287.677154,204.993232 C291.124453,197.81449 289.068785,190.580499 280.173732,182.349009 C273.648929,176.31095 267.374696,174.750898 260.93465,176.839315 C255.886118,178.476483 251.275724,181.937202 244.760892,188.281132 C243.880633,189.1383 240.744371,192.242436 241.000786,191.989773 C239.530495,193.438555 238.454368,194.470466 237.420667,195.409645 C234.783914,197.805293 232.67362,199.341933 230.713735,200.178062 C225.898736,202.232245 222.128614,199.878371 218.990811,192.1979 C213.209272,178.0463 203.200855,173.662811 190.659556,177.759283 C180.007228,181.238745 168.224389,190.861714 159.922646,202.21251 C158.425796,204.259122 154.089462,210.08359 153.765653,210.523132 C151.751422,213.25727 150.478171,215.083889 149.491805,216.694646 C147.246423,220.361404 146.604449,222.815857 147.341891,225.195682 C148.295737,228.273874 151.4318,231.364818 159.554101,237.530959 C163.250287,240.336963 165.551042,243.879262 166.879995,248.361205 C167.879478,251.732 168.220164,254.589311 168.644328,261.12988 C168.649933,261.21631 168.649933,261.21631 168.655539,261.302728 C169.231544,270.179778 169.920486,274.095216 172.264473,278.278578 C175.34037,283.768198 180.975265,287.534662 190.312737,289.679639 Z" transform="scale(-1 1) rotate(9.128 0 -2499.436)"/>
    <path d="M191.949092,286.673875 C203.338658,289.306628 213.026227,287.239274 221.480015,281.118963 C228.376806,276.125875 234.188348,268.727853 239.919451,258.576574 C241.382968,255.984303 242.808265,253.279642 244.448608,250.023818 C245.242099,248.448863 247.877311,243.125133 248.381537,242.121408 C251.10207,236.70585 255.303078,232.756109 266.133875,224.273497 C266.324305,224.124355 266.324305,224.124355 266.514686,223.975238 C277.081632,215.698171 281.294189,211.69534 283.797754,206.456495 C287.044076,199.663391 285.102925,192.815575 276.708205,185.014682 C270.551951,179.29391 264.638281,177.81475 258.569415,179.788282 C253.80928,181.336229 249.461086,184.612697 243.315918,190.621108 C242.485727,191.432823 239.53052,194.369717 239.7681,194.134659 C238.380651,195.507375 237.364903,196.485313 236.389115,197.375383 C233.898912,199.646834 231.905141,201.103974 230.051577,201.897065 C225.489386,203.849105 221.914029,201.606336 218.942918,194.311937 C213.482682,180.906467 204.046762,176.752804 192.222662,180.625271 C182.173806,183.916333 171.058741,193.029158 163.229717,203.781037 C161.817481,205.720512 157.726115,211.240197 157.423141,211.653264 C155.523643,214.242993 154.323036,215.972913 153.392994,217.498214 C151.277847,220.967128 150.673199,223.286776 151.365235,225.534066 C152.262416,228.447537 155.222276,231.377838 162.894191,237.227599 C166.389867,239.893018 168.566757,243.256747 169.825095,247.51102 C170.771082,250.709278 171.094285,253.419274 171.498107,259.621611 C171.50345,259.703677 171.50345,259.703677 171.508794,259.785731 C172.056767,268.197505 172.708772,271.90735 174.921478,275.869968 C177.824397,281.068654 183.139672,284.637535 191.949092,286.673875 Z" transform="scale(-1 1) rotate(7.892 0 -2929.505)"/>
    <path d="M193.587379,283.671363 C204.29642,286.164202 213.400817,284.216973 221.344238,278.440884 C227.826177,273.727518 233.287294,266.74048 238.672081,257.150771 C240.046652,254.702811 241.385296,252.148658 242.925992,249.073768 C243.670979,247.58694 246.146144,242.558965 246.620364,241.609786 C249.179474,236.487582 253.131258,232.755312 263.320028,224.741092 C263.498498,224.600714 263.498498,224.600714 263.67692,224.460361 C273.610984,216.645455 277.569937,212.866625 279.920017,207.921996 C282.965438,201.51435 281.138741,195.052489 273.244248,187.682033 C267.456533,182.278507 261.903487,180.880254 256.205881,182.738877 C251.73418,184.197595 247.648192,187.289839 241.872707,192.962783 C241.092584,193.729055 238.318378,196.498767 238.537183,196.281293 C237.232576,197.577964 236.277209,198.501942 235.359335,199.342918 C233.01568,201.490225 231.138431,202.8679 229.391169,203.617979 C225.081676,205.467995 221.70108,203.336188 218.896669,196.427716 C213.757673,183.768155 204.894264,179.844322 193.787447,183.492766 C184.342103,186.595438 173.894829,195.198208 166.538534,205.351293 C165.210917,207.183658 161.364519,212.398656 161.082372,212.785232 C159.297605,215.230589 158.169639,216.863834 157.295919,218.303702 C155.310957,221.574865 154.743618,223.759812 155.390332,225.874687 C156.230903,228.623507 159.014568,231.3932 166.236124,236.926702 C169.531258,239.451591 171.584253,242.636789 172.771967,246.663429 C173.664455,249.68918 173.970179,252.251892 174.353671,258.116076 C174.358752,258.19378 174.358752,258.19378 174.363835,258.271473 C174.883794,266.21814 175.498874,269.72248 177.580346,273.464457 C180.310331,278.372302 185.30601,281.743635 193.587379,283.671363 Z" transform="scale(-1 1) rotate(6.737 0 -3473.98)"/>
    <path d="M195.227502,280.672177 C205.255938,283.02513 213.77706,281.198039 221.210057,275.766152 C227.277136,271.33245 232.38783,264.756272 237.426288,255.727956 C238.711917,253.424263 239.963911,251.02057 241.404961,248.126558 C242.101445,246.727831 244.416562,241.995521 244.86077,241.100869 C247.258417,236.271913 250.960971,232.757029 260.507675,225.211053 C260.674192,225.079435 260.674192,225.079435 260.840663,224.947842 C270.14184,217.594974 273.847181,214.040099 276.04379,209.389594 C278.888401,203.36719 277.176083,197.291022 269.781688,190.350807 C264.362499,185.264477 259.17015,183.947153 253.843904,185.690833 C249.660679,187.060316 245.836903,189.968366 240.431126,195.305906 C239.70107,196.026747 237.107803,198.629349 237.307899,198.429434 C236.086138,199.650084 235.191154,200.520122 234.331196,201.312021 C232.134089,203.335246 230.373357,204.633499 228.732375,205.3406 C224.675451,207.088733 221.489607,205.067717 218.851905,198.544997 C214.034074,186.631078 205.743193,182.937076 195.353761,186.361478 C186.511977,189.275769 176.732512,197.368593 169.848961,206.923036 C168.605968,208.648323 165.004539,213.558749 164.743211,213.918814 C163.07317,216.219844 162.017844,217.756443 161.200441,219.110906 C159.345606,222.18443 158.815554,224.234802 159.417048,226.217405 C160.201074,228.80166 162.808555,231.410788 169.579784,236.628178 C172.674337,239.012603 174.603402,242.019314 175.720482,245.818368 C176.559465,248.671647 176.847716,251.087114 177.210892,256.613242 C177.215712,256.686587 177.215712,256.686587 177.220534,256.759921 C177.712499,264.241684 178.290671,267.540627 180.240963,271.062085 C182.798066,275.679205 187.474183,278.853031 195.227502,280.672177 Z" transform="scale(-1 1) rotate(5.666 0 -4177.416)"/>
    <path d="M196.869383,277.676423 C206.217118,279.889523 214.15484,278.182587 221.077341,273.094874 C226.729553,268.940765 231.489825,262.775298 236.181942,254.308156 C237.378631,252.148675 238.543978,249.895385 239.885382,247.182181 C240.533367,245.871527 242.688435,241.434768 243.102622,240.59462 C245.338754,236.058786 248.792074,232.761182 257.696662,225.68327 C257.851236,225.560407 257.851236,225.560407 258.005766,225.437568 C266.674049,218.546591 270.125768,215.215611 272.168927,210.859119 C274.812834,205.221691 273.214806,199.530895 266.320353,193.020682 C261.269673,188.251485 256.438109,187.015117 251.483343,188.643815 C247.588647,189.924054 244.027092,192.647948 238.991052,197.650163 C238.311061,198.325586 235.898658,200.761165 236.080128,200.578779 C234.941213,201.72344 234.106616,202.539559 233.304578,203.282403 C231.254015,205.181623 229.6098,206.400505 228.075069,207.064668 C224.270554,208.711093 221.279456,206.800661 218.808474,200.663477 C214.311717,189.49487 206.593382,186.030704 196.92146,189.231039 C188.683291,191.956961 179.57166,199.539972 173.160867,208.495958 C172.002507,210.114206 168.646049,214.720202 168.405529,215.053732 C166.85021,217.210489 165.867518,218.650479 165.10643,219.919572 C163.381651,222.795592 162.888862,224.711541 163.445254,226.562046 C164.172814,228.981842 166.604125,231.430457 172.925067,236.331916 C175.818993,238.575959 177.624085,241.404238 178.670519,244.975762 C179.455992,247.656613 179.726776,249.924881 180.069655,255.113073 C180.074214,255.182063 180.074214,255.182063 180.078774,255.251041 C180.542772,262.268148 181.084055,265.361824 182.903234,268.662914 C185.287519,272.989449 189.644112,275.965821 196.869383,277.676423 Z" transform="scale(-1 1) rotate(4.68 0 -5108.37)"/>
    <path d="M198.512979,274.684258 C214.439853,278.49427 225.270026,270.482056 234.938925,252.891427 C236.04668,250.876089 237.125382,248.77313 238.36714,246.240647 C238.96663,245.018029 240.961648,240.876683 241.345803,240.091011 C243.420359,235.848141 246.624438,232.767687 254.886846,226.157616 C255.029489,226.043501 255.029489,226.043501 255.172089,225.92941 C263.207472,219.500137 266.405559,216.392978 268.29529,212.33036 C270.738625,207.077581 269.254774,201.771761 262.860073,195.691252 C258.177881,191.239111 253.70721,190.083732 249.124072,191.597398 C245.51797,192.78838 242.218646,195.328168 237.552376,199.995154 C236.922451,200.625177 234.690823,202.893839 234.853764,202.728948 C233.797698,203.797656 233.023491,204.559885 232.279376,205.253699 C230.375358,207.029009 228.847655,208.168585 227.419141,208.789861 C223.866839,210.334796 221.070479,208.534689 218.766229,202.782775 C214.590434,192.359071 207.444666,189.124743 198.49041,192.10098 C190.855926,194.638547 182.412157,201.711912 176.474141,210.069672 C175.400423,211.580931 172.288939,215.882673 172.069211,216.189637 C170.628609,218.20219 169.718549,219.545615 169.013771,220.729381 C167.418962,223.408065 166.963407,225.189775 167.47484,226.908398 C168.14603,229.163869 170.40119,231.452037 176.271895,236.037792 C181.100637,239.809644 182.280573,243.85339 182.929862,253.615542 C182.934162,253.68018 182.934162,253.68018 182.938461,253.744807 C183.374523,260.297567 183.878942,263.186136 185.567088,266.267044 C187.778633,270.303169 191.815753,273.082153 198.512979,274.684258 Z" transform="scale(-1 1) rotate(3.784 0 -6376.78)"/>
    <path d="M200.158291,271.695927 C214.832913,275.248905 224.800939,267.817576 233.697142,251.477873 C234.715968,249.606591 235.708029,247.653873 236.850142,245.302003 C237.40114,244.167373 239.236105,240.321263 239.590215,239.590033 C241.503116,235.639929 244.457945,232.776461 252.078094,226.633949 C252.20882,226.528575 252.20882,226.528575 252.339505,226.423223 C259.741979,220.455419 262.686421,217.571989 264.422753,213.803065 C266.665676,208.934523 265.295867,204.013184 259.40068,198.362001 C255.086946,194.226815 250.977304,193.152466 246.76598,194.551037 C243.448553,195.652748 240.41147,198.00849 236.115016,202.340372 C235.535153,202.925016 233.484192,205.026895 233.628723,204.879455 C232.655509,205.872258 231.9417,206.580632 231.255512,207.22545 C229.498036,208.876969 228.086843,209.937319 226.764505,210.515772 C223.464167,211.959492 220.862538,210.269389 218.725034,204.902406 C214.87006,195.223087 208.296884,192.218601 200.060489,194.970698 C193.029778,197.319931 185.253905,203.883859 179.788689,211.643687 C178.799624,213.048019 175.933118,217.045728 175.734166,217.326089 C174.408275,219.194524 173.570841,220.44144 172.922366,221.539933 C171.457424,224.021493 171.039066,225.669195 171.505715,227.256202 C172.120654,229.347522 174.199688,231.475327 179.620221,235.745665 C184.088426,239.265753 185.182611,243.033567 185.791446,252.120643 C185.795485,252.180936 185.795485,252.180936 185.799526,252.241217 C186.207691,258.330015 186.675276,261.01368 188.232489,263.87464 C190.271393,267.620578 193.989105,270.202261 200.158291,271.695927 Z" transform="scale(-1 1) rotate(2.978 0 -8168.01)"/>
    <path d="M201.804996,268.711821 C215.227008,272.00788 224.332744,265.157275 232.45614,250.067689 C233.386043,248.34035 234.291467,246.537757 235.333935,244.366359 C235.836447,243.319657 237.511356,239.768558 237.835404,239.091722 C239.586549,235.434132 242.292113,232.787442 249.269901,227.112127 C249.388727,227.015483 249.388727,227.015483 249.507514,226.918861 C256.277071,221.41222 258.967852,218.752395 260.550822,215.276936 C262.593533,210.792101 261.337594,206.254609 255.941619,201.032264 C251.996303,197.213899 248.247861,196.220636 244.408592,197.504031 C241.379942,198.516451 238.605113,200.688227 234.678529,204.685163 C234.148727,205.224458 232.2783,207.159721 232.404568,207.029681 C231.514212,207.94664 230.860806,208.601204 230.232551,209.19707 C228.621617,210.724951 227.326932,211.706179 226.110715,212.24189 C223.062024,213.584754 220.65512,212.00424 218.684378,207.021753 C215.150045,198.086149 209.149488,195.311507 201.631207,197.839412 C195.204379,200.000333 188.096444,206.0551 183.104059,213.217375 C182.199661,214.514859 179.578138,218.208822 179.399941,218.462531 C178.188753,220.186958 177.423939,221.337438 176.831761,222.350729 C175.496554,224.635435 175.115348,226.149421 175.53743,227.60515 C176.096268,229.532544 177.999211,231.500099 182.969657,235.455394 C187.077133,238.72397 188.085526,242.215935 188.653986,250.628419 C188.657767,250.684373 188.657767,250.684373 188.661549,250.740316 C189.04187,256.365651 189.472661,258.84467 190.899065,261.485982 C192.765454,264.942023 196.163843,267.326517 201.804996,268.711821 Z" transform="scale(-1 1) rotate(2.265 0 -10814.696)"/>
    <path d="M203.453341,265.732541 C215.622272,268.771825 223.865536,262.501734 231.215978,248.661191 C232.056967,247.077648 232.875757,245.425026 233.818581,243.433914 C234.272613,242.475061 235.787459,239.218673 236.081425,238.596172 C237.67068,235.230767 240.12696,232.800577 246.462252,227.591984 C246.569199,227.504058 246.569199,227.504058 246.676111,227.416154 C252.812741,222.37027 255.249841,219.933889 256.679497,216.751584 C258.522248,212.649762 257.379959,208.49529 252.482805,203.701134 C248.905854,200.199413 245.518831,199.287309 242.051932,200.455417 C239.312192,201.378521 236.799632,203.366438 233.242988,207.028641 C232.763245,207.522623 231.073186,209.29149 231.181376,209.178784 C230.373883,210.019979 229.780891,210.620793 229.210577,211.167761 C227.746186,212.572207 226.568006,213.47445 225.457843,213.967526 C222.660382,215.210011 220.448201,213.738544 218.644238,209.139974 C215.430313,200.947201 210.002403,198.402404 203.20257,200.706044 C197.379768,202.678686 190.939824,208.224655 186.420305,214.789881 C185.600595,215.980623 183.224065,219.371217 183.066592,219.598209 C181.970099,221.178775 181.277898,222.232916 180.742007,223.161098 C179.53637,225.249302 179.19226,226.62995 179.570046,227.954841 C180.072975,229.718611 181.799876,231.526068 186.320351,235.166815 C190.066849,238.184209 190.989404,241.40044 191.517591,249.138974 C191.521115,249.190599 191.521115,249.190599 191.524639,249.242212 C191.877184,254.404739 192.27123,256.679448 193.566988,259.101507 C195.261024,262.268036 198.340207,264.455496 203.453341,265.732541 Z" transform="scale(-1 1) rotate(1.647 0 -14963.379)"/>
    <path d="M205.104338,262.759048 C216.019555,265.541749 223.400108,259.851882 229.977402,247.258922 C230.729486,245.818974 231.461649,244.316114 232.304826,242.505035 C232.710386,241.633923 234.065159,238.671841 234.329013,238.103592 C235.756201,235.029932 237.963167,232.815871 243.655776,228.073356 C243.750874,227.994131 243.750874,227.994131 243.845937,227.914928 C249.349631,223.329245 251.533027,221.116087 252.809434,218.226509 C254.452549,214.506765 253.423619,210.734203 249.024769,206.367352 C245.816103,203.182028 242.790793,202.351185 239.696688,203.403853 C237.246035,204.237607 234.99576,206.041813 231.80915,209.369571 C231.379462,209.818292 229.869558,211.42105 229.959908,211.325599 C229.235288,212.091139 228.702723,212.638282 228.190361,213.136429 C226.872517,214.417712 225.810842,215.241153 224.806643,215.691741 C222.259852,216.834496 220.242396,215.471349 218.605231,211.255911 C215.711402,203.804764 210.856167,201.48981 204.775236,203.569081 C199.556649,205.353488 193.784762,210.391158 189.738159,216.360025 C189.003163,217.444167 186.87164,220.531902 186.734855,220.732091 C185.753043,222.168996 185.133444,223.126929 184.653829,223.970128 C183.577551,225.862305 183.270464,227.110114 183.604302,228.304748 C184.051576,229.905316 185.602504,231.552888 189.673168,234.879766 C193.05836,237.646421 193.895016,240.587081 194.38307,247.652541 C194.386337,247.699848 194.386337,247.699848 194.389606,247.747144 C194.714468,252.447745 195.071838,254.5186 196.23716,256.721938 C197.759063,259.599481 200.519202,261.590124 205.104338,262.759048 Z" transform="scale(-1 1) rotate(1.126 0 -22011.19)"/>
    <path d="M206.758343,259.792953 C216.418965,262.319325 222.93649,257.209269 228.740364,245.861831 C229.403554,244.565194 230.049095,243.211804 230.792621,241.580402 C231.149719,240.79688 232.344403,238.128535 232.578108,237.614421 C233.842979,234.831895 235.800581,232.833443 240.850247,228.556107 C240.933532,228.485561 240.933532,228.485561 241.016785,228.415037 C245.887534,224.288768 247.817194,222.298515 248.940441,219.701056 C250.384348,216.362085 249.468386,212.969896 245.567133,209.029102 C240.453551,203.863691 236.461683,205.238482 230.376969,211.706172 C229.997332,212.109703 228.667308,213.546751 228.740128,213.46845 C228.098395,214.158486 227.626277,214.652072 227.171883,215.101504 C226.000594,216.260006 225.05543,217.004898 224.157074,217.413204 C221.860171,218.457154 220.037458,217.201317 218.567107,213.367898 C215.992945,206.65668 211.71041,204.571558 206.349015,206.426311 C201.734902,208.022545 196.631158,212.552624 193.057537,217.926107 C192.40729,218.903852 190.520798,221.689447 190.404648,221.862708 C189.537504,223.156234 188.990495,224.018143 188.56714,224.776538 C187.619939,226.473349 187.349783,227.589001 187.640127,228.654175 C188.032087,230.092142 189.407148,231.58014 193.028231,234.594111 C196.05167,237.11064 196.802352,239.775976 197.250466,246.169597 C197.253481,246.212605 197.253481,246.212605 197.256495,246.255602 C197.553808,250.495511 197.874593,252.363142 198.909764,254.3485 C200.259835,256.937808 202.701168,258.731952 206.758343,259.792953 Z" transform="scale(-1 1) rotate(.702 0 -35460.906)"/>
    <path d="M208.416067,256.836989 C216.820817,259.107386 222.474876,254.576525 227.504938,244.471565 C228.079249,243.317824 228.638172,242.113469 229.282039,240.661224 C229.590687,239.965067 230.625253,237.589623 230.828752,237.129472 C231.930945,234.6372 233.639105,232.853604 238.045443,229.040133 C238.116965,228.978235 238.116965,228.978235 238.188456,228.916359 C242.426254,225.248332 244.102143,223.480512 245.072355,221.17426 C246.317632,218.214165 245.51409,215.200131 242.109434,211.683548 C237.664261,207.092242 234.224143,208.295927 228.946492,214.035665 C228.616901,214.394113 227.46639,215.666016 227.5221,215.60473 C226.963276,216.219486 226.551633,216.659678 226.155233,217.060551 C225.130519,218.096826 224.301882,218.76354 223.509202,219.129865 C221.461055,220.076383 219.833132,218.926395 218.529603,215.47335 C216.274489,209.499561 212.56466,207.644241 207.923736,209.274245 C203.914464,210.682397 199.47897,214.705941 196.378424,219.48549 C195.812978,220.357135 194.171561,222.841641 194.075971,222.987797 C193.323475,224.138357 192.849038,224.904516 192.481923,225.578371 C191.663419,227.080768 191.430069,228.06523 191.677531,229.002075 C192.014652,230.278348 193.214015,231.607247 196.385862,234.309743 C199.046916,236.577029 199.711532,238.967433 200.11999,244.691039 C200.122755,244.729774 200.122755,244.729774 200.125519,244.768497 C200.395477,248.549516 200.67981,250.214836 201.585227,251.983297 C202.763899,254.285481 204.886786,255.883616 208.416067,256.836989 Z" transform="scale(-1 1) rotate(.376 0 -66319.493)"/>
    <path d="M210.078911,253.896083 C217.22584,255.911008 222.015804,251.958363 226.271455,243.091118 C226.756901,242.079621 227.229208,241.02363 227.773397,239.749726 C228.033609,239.140588 228.908003,237.056745 229.081215,236.650289 C230.02018,234.446929 231.478753,232.877031 235.241166,229.525394 C235.300992,229.472101 235.300992,229.472101 235.360789,229.418829 C238.965643,226.207196 240.387713,224.661057 241.205078,222.644559 C242.252525,220.06043 241.560603,217.42118 238.651061,214.325914 C234.874369,210.308147 231.988114,211.339848 227.517943,216.353365 C227.23839,216.666897 226.266892,217.774504 226.306075,217.730056 C225.830197,218.269875 225.479074,218.656928 225.14071,219.009478 C224.262618,219.924384 223.550549,220.513484 222.863305,220.838293 C221.062182,221.689551 219.629161,220.643185 218.492433,217.56793 C216.55544,212.327668 213.418267,210.702075 209.499263,212.106946 C206.095374,213.327161 202.328273,216.845845 199.700937,221.033746 C195.208825,228.194049 195.354401,227.91792 195.716682,229.346732 C195.999654,230.462754 197.0236,231.633335 199.746759,234.026609 C202.044501,236.046 202.622935,238.162135 202.992174,243.218588 C202.994693,243.253089 202.994693,243.253089 202.997213,243.28758 C203.482321,249.927689 204.708959,252.38214 210.078911,253.896083 Z" transform="scale(-1 1) rotate(.151 0 -166028.011)"/>
  </g>
</svg>
