<svg xmlns="http://www.w3.org/2000/svg" width="400" height="400" viewBox="0 0 400 400">
  <defs>
    <linearGradient id="a" x1="0%" y1="50%" y2="50%">
      <stop offset="0%" stop-color="#1E3888"/>
      <stop offset="20%" stop-color="#2D4A83"/>
      <stop offset="40%" stop-color="#345C7E"/>
      <stop offset="60%" stop-color="#376E79"/>
      <stop offset="80%" stop-color="#358073"/>
      <stop offset="100%" stop-color="#2D936C"/>
    </linearGradient>
  </defs>
  <g fill="none" fill-rule="evenodd" stroke="url(#a)" transform="matrix(0 1 1 0 -37.5 -13.5)">
    <path d="M202.395376,373.506509 C234.550194,382.147241 255.854012,381.821751 270.633581,373.36447 C282.918358,366.334778 290.373281,354.88842 299.768105,331.89109 C300.689148,329.636495 301.62336,327.300503 302.910722,324.04568 C303.266534,323.146083 304.541171,319.917547 304.514656,319.984669 C305.165532,318.336983 305.664312,317.077941 306.157168,315.840172 C308.871031,309.024514 311.045581,303.781512 313.366033,298.557942 C317.139694,290.063052 323.296871,281.667798 332.046101,272.565618 C338.673888,265.67046 344.712452,260.220321 358.440943,248.3804 C358.895531,247.988353 358.895531,247.988353 359.350049,247.596335 C372.76801,236.022898 379.050467,230.329139 385.625274,223.41897 C394.209274,214.397125 400.179124,206.081035 403.721337,197.698651 C412.071623,177.938323 406.692586,157.803345 384.426456,134.887879 C353.294378,102.84791 331.970571,91.2543093 309.573,92.4062309 C301.818377,92.8050561 293.817272,94.6320276 283.216193,98.1616077 C278.377653,99.7725774 257.622668,107.362456 251.974104,109.291198 C238.585415,113.862861 226.353971,117.322895 213.037141,120.058375 C194.85198,123.793885 187.322995,131.481145 188.259786,143.080466 C189.013923,152.418183 194.663203,163.310559 206.224886,180.061504 C207.528596,181.950362 208.880609,183.881041 210.692929,186.448861 C219.759297,199.294721 221.197691,201.374383 224.400009,206.510727 C228.807489,213.580085 231.564665,219.256862 232.746101,224.09503 C235.592244,235.750434 229.073795,242.374734 211.02372,243.840758 C168.3936,247.303167 113.595351,265.636292 74.5546111,289.001153 C32.5382114,314.146869 17.0949056,339.655999 37.9762476,357.380304 C46.7833695,364.855883 55.3681983,369.44764 64.4243982,371.770077 C71.4321569,373.567198 78.7342594,374.036281 87.3954128,373.443152 C93.7630535,373.007087 95.3324691,372.789079 112.651328,370.153764 C128.786131,367.698621 139.228182,366.628896 151.6845,366.610368 C167.983319,366.586125 184.506843,368.699453 202.395376,373.506509 Z" transform="scale(1 -1) rotate(61.528 614.668 0)"/>
    <path d="M202.699343,370.624795 C234.171858,379.085361 255.022254,378.767338 269.485919,370.488792 C281.507838,363.607825 288.803485,352.402541 297.998105,329.887716 C298.899526,327.680408 299.813827,325.393441 301.073827,322.206733 C301.421988,321.326187 302.668751,318.167201 302.64364,318.23079 C303.280642,316.61769 303.768838,315.384959 304.251224,314.173084 C306.90737,307.500177 309.035743,302.366838 311.306923,297.252539 C315.001019,288.934086 321.028322,280.713597 329.592898,271.801171 C336.080525,265.05005 341.991287,259.713904 355.429157,248.121716 C355.874039,247.737943 355.874039,247.737943 356.318853,247.354199 C369.452344,236.023285 375.601454,230.448964 382.036601,223.683802 C390.437894,214.851664 396.280466,206.710586 399.746909,198.504866 C407.918144,179.162018 402.653428,159.452052 380.860392,137.017668 C350.387092,105.647567 329.516428,94.2972625 307.595715,95.4249089 C300.006821,95.8152971 292.176395,97.6036066 281.801301,101.05855 C277.065244,102.635673 256.751022,110.065717 251.223003,111.953657 C238.11651,116.429815 226.143072,119.81743 213.106936,122.495532 C195.311345,126.151402 187.946072,133.673576 188.863063,145.024681 C189.601444,154.164843 195.131059,164.828644 206.447813,181.228535 C207.723853,183.077734 209.047184,184.967899 210.821012,187.481778 C219.696225,200.059778 221.104177,202.095906 224.239059,207.125228 C228.554052,214.047815 231.253504,219.60689 232.410423,224.345258 C235.19846,235.764159 228.812865,242.255163 211.138888,243.690426 C169.412616,247.07892 115.776065,265.026478 77.5635568,287.900809 C36.4423454,312.516315 21.3308224,337.484797 41.7628775,354.832459 C50.3838,362.15198 58.7867313,366.647479 67.651039,368.92098 C74.5087361,370.679828 81.654629,371.138982 90.1307074,370.558552 C96.3626675,370.131795 97.899785,369.918266 114.848998,367.339068 C130.643209,364.93563 140.864558,363.888552 153.057994,363.870786 C169.013025,363.847539 185.188069,365.917345 202.699343,370.624795 Z" transform="scale(1 -1) rotate(59.826 628.386 0)"/>
    <path d="M203.003112,367.74217 C233.793324,376.022572 254.190296,375.712017 268.338056,367.612206 C280.097117,360.879962 287.233489,349.915753 296.227904,327.883429 C297.109705,325.723408 298.004094,323.485464 299.236731,320.366874 C299.577241,319.505378 300.796133,316.415937 300.772424,316.475997 C301.395552,314.897482 301.873163,313.691062 302.345079,312.505081 C304.943508,305.974924 307.025703,300.951249 309.247612,295.946221 C312.862142,287.804204 318.759571,279.758477 327.139493,271.035805 C333.486958,264.42872 339.26992,259.206566 352.417168,247.86211 C352.852345,247.48661 352.852345,247.48661 353.287454,247.111141 C366.136474,236.022747 372.152238,230.567865 378.447726,223.947709 C386.666311,215.305279 392.381606,207.33921 395.772278,199.310153 C403.764464,180.384782 398.614067,161.099823 377.294124,139.146518 C347.479601,108.44628 327.06208,97.3392712 305.618226,98.4426426 C298.195062,98.8245938 290.535315,100.574241 280.386205,103.954547 C275.752633,105.497825 255.879175,112.768034 250.471701,114.615173 C237.647403,118.995825 225.931971,122.311023 213.176527,124.931747 C195.770507,128.507976 188.568947,135.865064 189.466137,146.967955 C190.188762,155.910564 195.598712,166.345793 206.670538,182.394634 C207.91891,184.204174 209.213558,186.053825 210.948894,188.513762 C219.632952,200.823906 221.010462,202.816498 224.077907,207.738799 C228.300415,214.514616 230.942142,219.955991 232.074543,224.594557 C234.804473,235.776956 228.551735,242.134664 211.253854,243.539167 C170.431431,246.853747 117.95658,264.415738 80.5723036,286.799541 C40.3462784,310.88484 25.566535,335.312678 45.5493099,352.283701 C53.9840333,359.447165 62.2050671,363.846407 70.8774821,366.07097 C77.5851173,367.791547 84.5748002,368.24077 92.8658034,367.673038 C98.9620825,367.255591 100.466901,367.046542 117.04647,364.52346 C132.500089,362.171726 142.500735,361.147296 154.43129,361.130291 C170.042532,361.108041 185.869098,363.134325 203.003112,367.74217 Z" transform="scale(1 -1) rotate(58.073 643.273 0)"/>
    <path d="M203.306786,364.858528 C233.414693,372.958766 253.358239,372.655679 267.190093,364.734603 C278.686296,358.151083 285.663393,347.427947 294.457604,325.87812 C295.319784,323.765387 296.19426,321.576467 297.399535,318.525992 C297.732394,317.683547 298.923418,314.663645 298.901108,314.720183 C299.510363,313.176252 299.977388,311.996143 300.438835,310.836055 C302.979546,304.448648 305.015564,299.534636 307.188201,294.638879 C310.723164,286.673296 316.490719,278.802332 324.685986,270.269412 C330.89329,263.806362 336.54845,258.698198 349.405077,247.601473 C349.830548,247.234247 349.830548,247.234247 350.255953,246.867052 C362.820503,236.021178 368.702919,230.685734 374.858748,224.210583 C382.894626,215.757859 388.482644,207.9668 391.797545,200.114405 C399.610685,181.606506 394.574605,162.746548 373.727751,141.274318 C344.572004,111.243939 324.607627,100.380225 303.640634,101.459322 C296.383201,101.832836 288.894133,103.543822 278.971008,106.849491 C274.439921,108.358922 255.007226,115.469297 249.720297,117.275635 C237.178195,121.560782 225.720769,124.803563 213.246017,127.36691 C196.229568,130.863497 189.191719,138.055498 190.069109,148.910179 C190.775978,157.655239 196.066265,167.861897 206.893164,183.55969 C208.113867,185.329572 209.379832,187.13871 211.076676,189.544705 C219.56958,201.586994 220.916647,203.536052 223.916657,208.351332 C228.046677,214.98038 230.63068,220.304053 231.738563,224.842818 C234.410386,235.788715 228.290506,242.01313 211.36872,243.386872 C171.450147,246.627537 120.136996,263.803962 83.5809527,285.69724 C44.2501115,309.252334 29.8021441,333.139534 49.3356461,349.733922 C57.5841706,356.741329 65.6233067,361.044314 74.1038288,363.21994 C80.6614017,364.902245 87.4948742,365.341538 95.6008018,364.786504 C101.5614,364.378367 103.033919,364.173796 119.243843,361.706831 C134.35687,359.406802 144.136813,358.405019 155.804489,358.388777 C171.071942,358.367524 186.55003,360.350287 203.306786,364.858528 Z" transform="scale(1 -1) rotate(56.275 659.43 0)"/>
    <path d="M203.610474,361.973776 C233.036075,369.893851 252.526194,369.598232 266.04214,361.855893 C277.275485,355.421097 284.093307,344.939031 292.687314,323.871699 C293.529873,321.806253 294.384437,319.666356 295.56235,316.683997 C295.887558,315.860603 297.050716,312.910234 297.029801,312.963254 C297.625183,311.453908 298.081623,310.300109 298.5326,309.165916 C301.015594,302.921258 303.005434,298.116908 305.128799,293.330421 C308.584195,285.541272 314.221875,277.845068 322.232487,269.501899 C328.299629,263.182882 333.826989,258.188709 346.392993,247.339713 C346.808759,246.980761 346.808759,246.980761 347.224459,246.621839 C359.504538,236.018485 365.253608,230.802477 371.269778,224.472331 C379.122948,216.209312 384.58369,208.593262 387.82282,200.917528 C395.456915,182.827095 390.535152,164.392134 370.161385,143.400975 C341.664413,114.04045 322.153179,103.42003 301.663048,104.474853 C294.571346,104.83993 287.252958,106.512254 277.555818,109.743285 C273.127216,111.21887 254.135286,118.169412 248.968901,119.934949 C236.708994,124.124592 225.509574,127.294956 213.315515,129.800926 C196.688638,133.217871 189.814499,140.244786 190.672089,150.851259 C191.363202,159.398772 196.533826,169.376862 207.1158,184.723611 C208.308833,186.453835 209.546116,188.222459 211.204468,190.574514 C219.506217,202.34895 220.822843,204.254473 223.755416,208.962734 C227.792949,215.445012 230.319227,220.650986 231.402592,225.08995 C234.016307,235.799343 228.029286,241.890467 211.483595,243.233449 C172.468873,246.400198 122.317423,263.191059 86.5896139,284.593813 C48.1539543,307.618705 34.0377594,330.965271 53.121996,347.183029 C61.184322,354.034382 69.0415603,358.24111 77.330189,360.367798 C83.7376992,362.011831 90.414961,362.441195 98.3358125,361.898859 C104.160729,361.50003 105.600947,361.299939 121.441227,358.889091 C136.213663,356.640765 145.772904,355.661629 157.177699,355.64615 C172.101366,355.625895 187.230975,357.565137 203.610474,361.973776 Z" transform="scale(1 -1) rotate(54.434 676.976 0)"/>
    <path d="M203.914291,359.087836 C232.657586,366.827749 251.694276,366.539599 264.894312,358.975997 C275.864799,352.689924 282.523346,342.448928 290.91715,321.864087 C291.740088,319.845927 292.57474,317.755054 293.72529,314.840809 C294.042846,314.036467 295.178142,311.155624 295.158621,311.205132 C295.740129,309.730371 296.185984,308.602883 296.626491,307.494582 C299.051767,301.392673 300.995429,296.697985 303.069522,292.020767 C306.44535,284.408051 311.953154,276.886606 319.779111,268.733187 C325.706092,262.558203 331.10565,257.678019 343.381032,247.07675 C343.787092,246.726073 343.787092,246.726073 344.193088,246.375424 C356.188696,236.014587 361.804419,230.918016 367.680929,224.732873 C375.351393,216.659558 380.684858,209.218516 383.848219,201.719442 C391.30327,184.046471 386.495821,166.0365 366.595138,145.526407 C338.75694,116.835731 319.69885,106.458605 299.685584,107.489153 C292.759613,107.845794 285.611905,109.479456 276.140751,112.635851 C271.814635,114.077589 253.263469,120.868298 248.217628,122.593033 C236.239917,126.687173 225.298502,129.785122 213.385135,132.233714 C197.147832,135.571018 190.437402,142.432844 191.275192,152.791114 C191.950548,161.141084 197.00151,170.890607 207.33856,185.886316 C208.503925,187.576882 209.712525,189.304994 211.332386,191.603108 C219.442981,203.109693 220.729164,204.971682 223.594301,209.572924 C227.539346,215.908434 230.007899,220.996708 231.066746,225.335871 C233.622351,235.808759 227.768192,241.766596 211.598594,243.078817 C173.487724,246.17165 124.497976,262.576948 89.5984026,283.48918 C52.057922,305.983873 38.2734955,328.789812 56.908475,344.630944 C64.7846029,351.326245 72.4599431,355.436716 80.556678,357.514466 C86.8141252,359.120227 93.3351757,359.53966 101.070951,359.010022 C106.760185,358.620502 108.168102,358.424891 123.638738,356.070159 C138.070583,353.873537 147.409122,352.917049 158.551038,352.902333 C173.130917,352.883075 187.91205,354.778798 203.914291,359.087836 Z" transform="scale(1 -1) rotate(52.557 696.04 0)"/>
    <path d="M204.218358,356.200644 C232.279345,363.760396 250.862604,363.479714 263.746729,356.09485 C274.454356,349.957501 280.953631,339.957572 289.147231,319.855218 C289.950547,317.884345 290.765287,315.842495 291.888475,312.996364 C292.19838,312.211074 293.305816,309.399751 293.287685,309.445753 C293.85532,308.005576 294.290589,306.904398 294.720626,305.821991 C297.088184,299.862829 298.985668,295.277803 301.010489,290.709853 C304.306748,283.273568 309.684676,275.926882 317.325977,267.96321 C323.112796,261.932258 328.384553,257.166062 340.369312,246.812519 C340.765667,246.470115 340.765667,246.470115 341.161958,246.12774 C352.873096,236.009419 358.355472,231.032284 364.092322,224.992144 C371.580079,217.108532 376.786268,209.842496 379.873859,202.52008 C387.149869,185.264567 382.456734,167.679579 363.029132,147.650547 C335.849706,119.629714 317.244761,109.495882 297.70836,110.502156 C290.948122,110.850361 283.971094,112.44536 274.725926,115.527118 C270.502297,116.935011 252.391895,123.565887 247.466597,125.249821 C235.771082,129.248459 225.087673,132.273992 213.454997,134.665207 C197.607268,137.922869 191.060546,144.619607 191.878536,154.729677 C192.538137,162.882107 197.469437,172.403067 207.561565,187.047739 C208.699261,188.698647 209.879178,190.386246 211.460548,192.63042 C219.379989,203.869157 220.63573,205.687611 223.433431,210.181835 C227.285987,216.370579 229.696814,221.341154 230.731143,225.580515 C233.228639,235.816898 227.507343,241.64145 211.713836,242.92291 C174.506821,245.941828 126.678776,261.961564 92.6074384,282.383275 C55.9621341,304.347773 42.5094719,326.61309 60.695203,342.077603 C68.3851331,348.616852 75.8785752,352.631066 83.7834158,354.659879 C89.8907995,356.227366 96.2556384,356.636869 103.806336,356.119929 C109.359889,355.739719 110.735503,355.548588 125.836495,353.249971 C139.927749,351.105054 149.045587,350.171213 159.924624,350.15726 C174.160717,350.139 188.593373,351.991205 204.218358,356.200644 Z" transform="scale(1 -1) rotate(50.647 716.777 0)"/>
    <path d="M204.522797,353.312149 C231.901476,360.691742 250.031301,360.418528 262.599513,353.212403 C273.044281,347.223777 279.384283,337.464914 287.37768,317.845044 C288.161375,315.921456 288.956202,313.928629 290.052028,311.150612 C290.354281,310.384374 291.433861,307.642563 291.417117,307.685065 C291.970878,306.279473 292.395562,305.204605 292.81513,304.148091 C295.124969,298.331676 296.976275,293.856311 298.951823,289.397629 C302.168513,282.137774 307.416564,274.965844 314.873209,267.191919 C320.519866,261.304997 325.663821,256.652788 337.357958,246.546969 C337.744607,246.212839 337.744607,246.212839 338.131194,245.878738 C349.55786,236.00293 354.90689,231.145231 360.50408,225.250092 C367.80913,217.556183 372.888043,210.465152 375.899865,203.319393 C382.996837,186.48133 378.418012,169.32132 359.463487,149.773343 C332.942834,122.422348 314.791032,112.531808 295.7315,113.513809 C289.136994,113.853577 282.330648,115.409915 273.311466,118.417035 C269.190324,119.791082 251.520686,126.262126 246.715932,127.905259 C235.302612,131.808395 224.877209,134.761513 213.525224,137.095352 C198.06707,140.273372 191.684055,146.80502 192.482245,156.666896 C193.12609,164.621789 197.93773,173.914188 207.784938,188.207828 C208.894964,189.819079 210.046199,191.466165 211.589078,193.656399 C225.006956,212.704098 228.606379,218.487938 230.395908,225.823832 C232.835292,235.823709 227.246862,241.514979 211.829446,242.765678 C175.526285,245.710679 128.859945,261.344855 95.6168446,281.276048 C59.8667136,302.710353 46.7458112,324.435055 64.4823034,339.522954 C71.9860361,345.906154 79.2975798,349.824112 87.0105256,351.803987 C92.9678453,353.333201 99.1764721,353.732773 106.542093,353.228531 C111.959963,352.85763 113.303274,352.670978 128.034622,350.428478 C141.785286,348.335265 150.682422,347.424071 161.29858,347.410881 C175.190888,347.39362 189.275069,349.202308 204.522797,353.312149 Z" transform="scale(1 -1) rotate(48.71 739.36 0)"/>
    <path d="M204.827735,350.422318 C231.524104,357.621753 249.200493,357.356008 261.452789,350.328621 C271.634698,344.488719 277.815428,334.970919 285.608622,315.833528 C286.372696,313.957226 287.147611,312.013422 288.216074,309.303518 C288.510675,308.556333 289.562402,305.884026 289.547041,305.923035 C290.086929,304.552027 290.501028,303.503469 290.910126,302.472848 C293.162246,296.79918 294.967373,292.433474 296.893649,288.08406 C300.030769,281.000633 305.148943,274.003458 312.420931,266.419277 C317.927425,260.676384 322.943579,256.138162 334.347092,246.280064 C334.724036,245.954208 334.724036,245.954208 335.100919,245.62838 C346.243113,235.995085 351.458796,231.25682 356.916327,225.506683 C364.03867,218.002473 368.990308,211.086447 371.926361,204.117343 C378.844296,187.696725 374.37978,170.961684 355.89833,151.894758 C330.036447,125.213593 312.337789,115.566345 293.755127,116.524073 C287.326354,116.855405 280.69069,118.37308 271.897495,121.305564 C267.878841,122.645764 250.649968,128.956977 245.965758,130.55931 C234.834632,134.366945 224.667234,137.247649 213.595941,139.524111 C198.527363,142.622489 192.308053,148.989047 193.086444,158.602732 C193.714533,166.360093 198.406514,175.423934 208.008802,189.366546 C209.09116,190.93814 210.213713,192.544714 211.718101,194.681008 C224.804885,213.264796 228.315203,218.907228 230.061164,226.065784 C232.442435,235.829154 226.986874,241.387147 211.945547,242.607083 C176.546241,245.478167 131.041608,260.726784 98.6267461,280.167462 C63.7717854,301.071579 50.9826378,322.255673 68.2699012,336.966965 C75.5874371,343.194116 82.7170822,347.015819 90.2381327,348.946755 C96.045388,350.437695 102.097802,350.827337 109.278345,350.335793 C114.560532,349.974201 115.871538,349.792029 130.233243,347.605646 C143.643317,345.564135 152.319752,344.67559 162.673033,344.663163 C176.221556,344.646901 189.957262,346.412073 204.827735,350.422318 Z" transform="scale(1 -1) rotate(46.751 763.989 0)"/>
    <path d="M205.133297,347.531132 C231.147354,354.55041 248.370304,354.292133 260.306683,347.443487 C270.225732,341.752309 276.247191,332.475569 283.840182,313.820652 C284.584635,311.991636 285.339637,310.096854 286.380738,307.455062 C286.667686,306.726931 287.691566,304.12412 287.677584,304.159644 C288.203598,302.823219 288.607112,301.800971 289.005739,300.796242 C291.20014,295.265319 292.959089,291.009273 294.836092,286.769126 C297.893641,279.862125 302.881937,273.039703 309.969267,265.645265 C315.335599,260.046399 320.223951,255.622163 331.336841,246.011784 C331.70408,245.694202 331.70408,245.694202 332.071258,245.376647 C342.928981,235.985863 348.011316,231.367031 353.329187,225.761894 C360.268825,218.447384 365.093187,211.70636 367.953472,204.913909 C374.692373,188.91073 370.342164,172.60065 352.333784,154.014767 C327.130669,128.003427 309.885156,118.599469 291.779367,119.532925 C285.516328,119.85582 279.051346,121.334835 270.484139,124.192682 C266.567973,125.499035 249.779866,131.650418 245.216198,133.21195 C234.367267,136.924085 224.457875,139.732375 213.667272,141.951462 C198.988272,144.970197 192.932666,151.171663 193.691256,160.537162 C194.303591,168.096996 198.875913,176.932281 208.233285,190.523871 C209.287974,192.055808 210.381845,193.621871 211.847741,195.704226 C224.60343,213.824106 228.024643,219.325133 229.727037,226.30635 C232.050195,235.833213 226.727504,241.257931 212.062265,242.447106 C177.566816,245.244272 133.223891,260.107332 101.637269,279.057497 C67.6774747,299.43143 55.2200767,320.074924 72.0581222,334.409614 C79.1894618,340.480719 86.137208,344.206166 93.4663626,346.088164 C99.1235529,347.540831 105.019754,347.920541 112.015218,347.441695 C117.161722,347.089412 118.440421,346.911721 132.432485,344.781453 C145.501969,342.791646 153.957703,341.925748 164.048106,341.914086 C177.252846,341.898824 190.640077,343.62048 205.133297,347.531132 Z" transform="scale(1 -1) rotate(44.774 790.897 0)"/>
    <path d="M205.439606,344.638586 C230.771351,351.477709 247.54086,351.226901 259.161318,344.556996 C268.817508,339.014541 274.679697,329.97886 282.072484,311.806412 C282.797316,310.024681 283.532405,308.178921 284.546144,305.605241 C284.82544,304.896164 285.821475,302.362839 285.808868,302.394885 C286.321009,301.093044 286.713938,300.097106 287.102095,299.11827 C289.238777,293.730091 290.951547,289.583703 292.779276,285.452822 C295.757254,278.722246 300.615671,272.074575 307.518342,264.869877 C312.744511,259.415037 317.505062,255.104785 328.327328,245.742124 C328.684861,245.432815 328.684861,245.432815 329.042335,245.123534 C339.615586,235.975258 344.564574,231.475858 349.742785,226.01572 C356.499717,218.890908 361.196804,212.324886 363.981321,205.709086 C370.541191,190.123337 366.305287,174.238211 348.769973,156.133365 C324.225626,130.791841 307.433258,121.631173 289.804343,122.540357 C283.707039,122.854816 277.41274,124.295169 269.071521,127.078379 C265.257844,128.350887 248.910502,134.342439 244.467377,135.863171 C233.900641,139.479808 224.249254,142.215684 213.739342,144.377395 C199.44992,147.316488 193.558016,153.352862 194.296807,162.47018 C194.893386,169.832491 199.346051,178.439224 208.458508,191.679797 C209.485529,193.172077 210.550718,194.697629 211.978123,196.726045 C224.402717,214.382023 227.734824,219.741645 229.39365,226.545525 C231.658694,235.83588 226.468877,241.127326 212.179723,242.285739 C178.588133,245.008988 135.406918,259.486492 104.648536,277.946148 C71.5839055,297.7899 59.4582514,317.892802 75.847091,331.850899 C82.7922347,337.76596 89.5580818,341.395152 96.6953399,343.22821 C102.202465,344.642603 107.942452,345.012382 114.752836,344.546234 C119.763656,344.20326 121.010049,344.03005 134.63247,341.955897 C147.361365,340.017794 155.596399,339.174543 165.423925,339.163645 C178.284882,339.149383 191.323641,340.827526 205.439606,344.638586 Z" transform="scale(1 -1) rotate(42.784 820.353 0)"/>
    <path d="M205.746786,341.744693 C230.396216,348.403661 246.712281,348.160323 258.016816,341.66916 C267.410146,336.275429 273.113066,327.480803 280.305651,309.790819 C281.010861,308.056372 281.726038,306.259634 282.712414,303.754064 C282.984057,303.064042 283.952253,300.600194 283.941017,300.628771 C284.439283,299.361513 284.821627,298.391884 285.199314,297.43894 C287.278276,292.193505 288.944867,288.156775 290.723323,284.135158 C293.621727,277.581006 298.350265,271.108083 305.068277,264.093124 C310.154283,258.782308 314.787032,254.586039 325.318674,245.471092 C325.666502,245.170057 325.666502,245.170057 326.014272,244.869049 C336.30305,235.963279 341.118691,231.583311 346.157242,226.26817 C352.731469,219.333054 357.30128,212.942032 360.010031,206.502881 C366.390873,191.334556 362.269271,175.874373 345.207017,158.250557 C321.321437,133.578841 304.982213,124.661462 287.830176,125.546375 C281.898609,125.852398 275.774993,127.254089 267.659763,129.962662 C263.948576,131.201324 248.041999,137.033047 243.719417,138.512978 C233.434876,142.034118 224.041493,144.697582 213.812271,146.801918 C199.912429,149.661368 194.184226,155.532648 194.903217,164.401792 C195.484042,171.566584 199.817051,179.94477 208.684595,192.834331 C209.683948,194.286955 210.720454,195.771996 212.109369,197.746473 C224.202866,214.938554 227.445869,220.156774 229.061126,226.783316 C231.268053,235.837162 226.211113,240.995342 212.298043,242.122992 C179.610314,244.772322 137.59081,258.864273 107.660671,276.833422 C75.4911992,296.146999 63.6972829,315.709317 79.6369292,329.290829 C86.3958777,335.049848 92.9798254,338.582785 99.9251863,340.366905 C105.282245,341.743022 110.866017,342.10287 117.491322,341.64942 C122.366458,341.315755 123.580541,341.147025 136.833321,339.128989 C149.221627,337.242588 157.235962,336.421985 166.800612,336.411852 C179.317786,336.398591 192.008073,338.033221 205.746786,341.744693 Z" transform="scale(1 -1) rotate(40.787 852.67 0)"/>
    <path d="M206.054955,338.849476 C230.022067,345.328293 245.884685,345.092424 256.873295,338.780005 C266.003764,333.534996 271.547415,324.981423 278.539798,307.773897 C279.225386,306.086734 279.920651,304.339018 280.879665,301.901557 C281.143655,301.230591 282.084015,298.836209 282.074145,298.861326 C282.558539,297.628651 282.930296,296.685331 283.297513,295.758279 C285.318755,290.655587 286.939167,286.728512 288.668349,282.81616 C291.48718,276.438429 296.085837,270.140252 302.619189,263.315029 C307.565032,258.148236 312.069978,254.065949 322.310996,245.198713 C322.649119,244.905951 322.649119,244.905951 322.987184,244.613216 C332.991489,235.94995 337.673783,231.689412 342.572674,226.519268 C348.964196,219.773846 353.406733,213.557822 356.039717,207.295319 C362.241534,192.544408 358.234232,177.509158 341.645035,160.366365 C318.418218,136.364448 302.53214,127.690357 285.856984,128.550999 C280.091152,128.848586 274.138221,130.211615 266.24898,132.845552 C262.640284,134.050367 247.174474,139.722262 242.972433,141.161393 C232.970086,144.587037 223.834709,147.178089 213.886177,149.225051 C200.375916,152.004857 194.811412,157.711042 195.510603,166.332018 C196.075673,173.299297 200.289027,181.448939 208.911662,193.987495 C209.883346,195.400464 210.891171,196.844994 212.241595,198.765533 C224.003994,215.493721 227.157892,220.570541 228.729582,227.019747 C230.87839,235.837081 225.95433,240.862 212.417342,241.958887 C180.633475,244.534298 139.775684,258.240697 110.67379,275.719343 C79.3994728,294.50275 67.9372876,313.524495 83.4277547,326.729429 C90.0005085,332.332409 96.4025566,335.769092 103.15602,337.504272 C108.363011,338.842114 113.790568,339.192031 120.230792,338.751279 C124.970244,338.426923 126.152016,338.262674 139.035156,336.300753 C151.082873,334.466055 158.876508,333.668099 168.178283,333.658732 C180.351677,333.646472 192.693493,335.237591 206.054955,338.849476 Z" transform="scale(1 -1) rotate(38.787 888.213 0)"/>
    <path d="M206.364223,335.952977 C229.649017,342.251643 245.058184,342.023243 255.730864,335.889569 C264.598473,330.793284 269.982857,322.480761 276.775037,305.755685 C277.441005,304.115806 278.116356,302.417111 279.048007,300.047759 C279.304344,299.395849 280.216875,297.070921 280.208366,297.092588 C280.678885,295.894496 281.040057,294.977485 281.396805,294.076325 C283.360326,289.116374 284.934558,285.298954 286.614466,281.495866 C289.353721,275.294553 293.822497,269.171121 300.171188,262.53563 C304.976867,257.512857 309.354012,253.54455 319.304404,244.925023 C319.632822,244.640534 319.632822,244.640534 319.961184,244.356073 C329.681016,235.935308 334.229962,231.794199 338.989193,226.76905 C345.198009,220.21332 349.513273,214.172293 352.07049,208.086433 C358.093286,193.752928 354.200281,179.1426 338.084135,162.480821 C315.51608,139.148694 300.083147,130.717889 283.884875,131.554261 C278.284782,131.843413 272.502536,133.16778 264.839285,135.72708 C261.333081,136.898049 246.308037,142.410116 242.226538,143.808448 C232.506385,147.138597 223.629012,149.657238 213.961169,151.646826 C200.840491,154.346988 195.439684,159.888078 196.119076,168.260892 C196.668392,175.030665 200.762092,182.951766 209.13982,195.139324 C210.083836,196.512638 211.062979,197.916658 212.374913,199.783259 C223.806213,216.047561 226.871007,220.982983 228.399127,227.254853 C230.489816,235.835675 225.698639,240.727337 212.537731,241.79346 C181.657729,244.294952 141.961653,257.615802 113.688005,274.603948 C83.3088378,292.85719 72.1783764,311.338373 87.2196792,324.166739 C93.6062391,329.613683 99.8263872,332.954112 106.387951,334.640352 C111.444875,335.939918 116.716217,336.279903 122.971359,335.851849 C127.575125,335.536802 128.724585,335.377033 141.238084,333.471228 C152.945215,331.688233 160.518151,330.912924 169.557051,330.904323 C181.386665,330.893065 193.380011,332.440675 206.364223,335.952977 Z" transform="scale(1 -1) rotate(36.789 927.413 0)"/>
    <path d="M206.674695,333.055246 C229.277169,339.173764 244.232881,338.952834 254.589629,332.997906 C263.194377,328.050344 268.419495,319.978867 275.011473,303.736234 C275.657819,302.143639 276.313257,300.493965 277.217546,298.192721 C277.46623,297.559868 278.350937,295.304381 278.343783,295.322609 C278.800428,294.1591 279.151015,293.268397 279.497292,292.393128 C281.403092,287.575917 282.931144,283.868152 284.561777,280.174325 C287.221457,274.149429 291.56035,268.200738 297.724379,261.754978 C302.389894,256.876223 306.639236,253.021894 316.299003,244.650071 C316.617716,244.373856 316.617716,244.373856 316.936374,244.097668 C326.371732,235.919401 330.787331,231.89772 335.406901,227.017564 C341.433013,220.651525 345.621004,214.785492 348.102456,208.876274 C353.946234,194.960164 350.167522,180.774747 334.524422,164.593971 C312.615127,141.931624 297.63534,133.744104 281.913955,134.556206 C276.4796,134.836923 270.86804,136.122628 263.43078,138.607292 C260.027069,139.744414 245.442792,145.096655 241.481834,146.454188 C232.043875,149.688843 223.424507,152.135075 214.037353,154.067289 C201.30626,156.687807 196.069147,162.0638 196.728739,170.188459 C197.262302,176.760732 201.23635,184.453299 209.369173,196.289865 C210.285522,197.623524 211.235983,198.987035 212.509426,200.7997 C223.609626,216.600122 226.585316,221.394147 228.069867,227.488681 C230.102434,235.83299 225.444145,240.591401 212.659314,241.626761 C182.683178,244.054333 144.14882,256.989635 116.70342,273.487286 C87.219398,291.210369 76.4206526,309.151 91.0128077,321.602809 C97.2131743,326.893719 103.251422,330.137895 109.621087,331.775195 C114.527942,333.036485 119.643067,333.366538 125.713127,332.951181 C130.181207,332.645443 131.298353,332.490156 143.442212,330.640466 C154.808756,328.909173 162.160993,328.156512 170.93702,328.148677 C182.422855,328.138422 194.067733,329.642525 206.674695,333.055246 Z" transform="scale(1 -1) rotate(34.8 970.775 0)"/>
    <path d="M206.98647,330.156347 C228.906621,336.09472 243.408874,335.88126 253.449686,330.10508 C261.791572,325.30624 266.857425,317.475805 273.249202,301.715608 C273.875926,300.170296 274.511451,298.569642 275.388377,296.336504 C275.629407,295.722709 276.486297,293.536651 276.480492,293.551452 C276.923263,292.422525 277.263264,291.55813 277.59907,290.708752 C279.44715,286.03428 280.929021,282.436167 282.510379,278.851601 C285.090481,273.003119 289.299491,267.229165 295.278857,260.973133 C299.804208,256.238393 303.925747,252.498041 313.294888,244.37392 C313.603896,244.105978 313.603896,244.105978 313.91285,243.838062 C332.455404,227.757706 339.801467,219.993083 344.135708,209.664901 C349.800473,196.166174 346.136051,182.405655 330.965989,166.705873 C309.715452,144.713294 295.188811,136.769057 279.944317,137.556891 C274.675703,137.829172 269.23483,139.076216 262.023562,141.486243 C258.722345,142.589519 244.578835,147.781935 240.738418,149.098668 C231.582653,152.237832 223.221288,154.611655 214.114823,156.486496 C201.773316,159.02737 196.699896,164.238264 197.339688,172.114777 C197.857498,178.489556 201.711895,185.953593 209.599818,197.439177 C210.488498,198.733182 211.410278,200.056183 212.645231,201.814912 C223.414329,217.151461 226.300916,221.804093 227.741897,227.721292 C229.71634,235.829087 225.190943,240.454252 212.782186,241.458848 C183.70992,243.812498 146.337282,256.362257 119.720132,272.369417 C91.1312493,289.562348 80.6642112,306.96244 94.8072365,319.037703 C100.821411,324.172583 106.677758,327.320506 112.855522,328.908865 C117.612308,330.131877 122.571215,330.451998 128.456191,330.049339 C132.788585,329.75291 133.873414,329.602105 145.647635,327.80853 C156.673592,326.128939 163.805132,325.398925 172.318287,325.391857 C183.460344,325.382606 194.756755,326.843203 206.98647,330.156347 Z" transform="scale(1 -1) rotate(32.823 1018.9 0)"/>
    <path d="M207.299632,327.256354 C228.537458,333.014584 242.586247,332.808595 252.311119,327.211164 C260.390144,322.561047 265.296733,314.97165 271.488309,299.69388 C272.095411,298.19585 272.711023,296.644216 273.560586,294.479183 C273.793962,293.884447 274.623041,291.767802 274.618578,291.779188 C275.047476,290.684843 275.376891,289.846756 275.702227,289.023268 C277.492584,284.491533 278.928275,281.003072 280.460358,277.527765 C282.96088,271.855695 287.040005,266.256476 292.834707,260.190167 C297.219893,255.59944 301.213629,251.973063 310.292144,244.096638 C310.591447,243.836969 310.591447,243.836969 310.890697,243.577327 C328.855568,227.989418 335.972405,220.462771 340.170332,210.452383 C345.65609,197.371028 342.105954,184.035391 327.408923,168.816592 C306.817141,147.493768 292.743647,139.792813 277.976048,140.556379 C272.873175,140.820226 267.60299,142.028608 260.617715,144.363998 C257.418994,145.433428 243.716251,150.46602 239.996374,151.741954 C231.122802,154.785628 223.019442,157.087043 214.193664,158.904513 C202.241746,161.365741 197.332016,166.411534 197.952008,174.039911 C198.454065,180.217205 202.188814,187.452717 209.831839,198.587327 C210.692852,199.841679 211.58595,201.124172 212.782414,202.828965 C223.220409,217.701648 226.017892,222.212891 227.415303,227.952755 C229.33162,235.824033 224.939119,240.315959 212.906434,241.28979 C184.738039,243.569519 148.527125,255.733737 122.738227,271.250411 C95.0444777,287.913196 84.9091374,304.772764 98.6030527,316.471493 C104.431036,321.450346 110.105482,324.502017 116.091344,326.041435 C120.69806,327.22617 125.500747,327.536358 131.20064,327.146396 C135.397346,326.859276 136.449856,326.712952 147.854439,324.975493 C158.539811,323.347604 165.450653,322.640238 173.700937,322.633937 C184.499219,322.625691 195.447164,324.042784 207.299632,327.256354 Z" transform="scale(1 -1) rotate(30.863 1072.502 0)"/>
    <path d="M207.61426,324.355351 C228.169757,329.93344 241.765078,329.734922 251.174005,324.316242 C258.990167,319.814848 263.737495,312.466483 269.728869,297.671132 C270.31635,296.220383 270.912048,294.717769 271.734249,292.620839 C271.959971,292.045163 272.761246,289.997915 272.758119,290.005901 C273.173142,288.946137 273.491971,288.134357 273.806837,287.33676 C275.539472,282.94776 276.928981,279.568948 278.411788,276.2029 C282.753166,266.347744 289.599609,259.176003 307.290846,243.818307 C307.580444,243.566911 307.580444,243.566911 307.86999,243.315541 C325.257179,228.220072 332.144791,220.931398 336.206404,211.238797 C341.513158,198.574801 338.077304,185.664031 323.853298,170.926202 C303.920268,150.27312 290.29992,142.815445 276.009221,143.554744 C271.072091,143.810156 265.972596,144.979876 259.213314,147.24063 C256.11709,148.276214 242.855116,153.148983 239.255778,154.384119 C230.6644,157.332304 222.819042,159.561314 214.273953,161.321412 C202.711625,163.702994 197.965582,168.583686 198.565775,175.963934 C199.052079,181.943752 202.667182,188.950746 210.065313,199.734392 C210.898659,200.949091 211.763076,202.191076 212.92105,203.841935 C223.02794,218.250761 225.736321,222.620616 227.09016,228.183146 C228.948349,235.817906 224.688749,240.176601 213.032133,241.119667 C185.767612,243.325473 150.718424,255.104153 125.757781,270.130346 C98.9591585,286.262995 89.1555057,302.582053 102.400333,313.904261 C108.042125,318.727091 113.53467,321.682511 119.328629,323.172987 C123.785274,324.319443 128.431741,324.619699 133.946548,324.242435 C138.007566,323.964624 139.027755,323.822782 150.062701,322.141437 C172.310849,318.751588 186.926851,318.741465 207.61426,324.355351 Z" transform="scale(1 -1) rotate(28.926 1132.44 0)"/>
    <path d="M207.930418,321.453427 C227.803584,326.851379 240.94543,326.660331 250.038407,321.420405 C257.591707,317.067734 262.179775,309.960397 267.970948,295.647452 C268.538807,294.243984 269.114592,292.790389 269.90943,290.761562 C270.127496,290.204946 270.900976,288.227078 270.899176,288.231678 C271.300326,287.206495 271.608569,286.421022 271.912964,285.649314 C273.587876,281.403049 274.931203,278.133885 276.364734,274.877092 C280.563201,265.338726 287.183713,258.399104 304.291057,243.539011 C304.570951,243.295888 304.570951,243.295888 304.850793,243.052791 C321.660299,228.449753 328.318685,221.399048 332.243986,212.024229 C337.371743,199.777576 334.050167,187.291655 320.299176,173.034783 C301.024895,153.051427 287.857695,145.837031 274.0439,146.552063 C269.272515,146.799041 264.343711,147.9301 257.810423,150.116218 C254.816698,151.117955 241.995493,155.830903 238.516693,157.02524 C230.207508,159.87794 222.620154,162.034545 214.355751,163.737272 C203.183016,166.039208 198.600657,170.754796 199.181051,177.886928 C199.651603,183.669278 203.147061,190.44776 210.300303,200.880454 C211.105982,202.055501 211.941718,203.256979 213.061203,204.853904 C222.836986,218.798882 225.456264,223.027354 226.766532,228.412551 C228.56659,235.810791 224.439897,240.036262 213.159346,240.948562 C186.798703,243.080445 152.911245,254.47359 128.77886,269.009308 C102.875356,284.611829 93.403379,300.390395 106.199141,311.336097 C111.654744,316.002908 116.965387,318.862077 122.567442,320.303611 C130.225771,322.27427 134.890613,321.955183 152.272484,319.306452 C173.788315,316.02777 187.923165,316.019054 207.930418,321.453427 Z" transform="scale(1 -1) rotate(27.016 1199.75 0)"/>
    <path d="M208.24816,318.550679 C227.438991,323.768497 240.127357,323.584922 248.904378,318.52375 C256.194815,314.319802 260.623625,307.453487 266.214598,293.622938 C266.762835,292.266749 267.318706,290.862173 268.086181,288.901446 C268.296592,288.363893 269.042285,286.455385 269.041804,286.456615 C269.429079,285.466013 269.726736,284.706846 270.02066,283.961028 C271.637849,279.857494 272.934994,276.697975 274.319247,273.550438 C278.3748,264.328852 284.76938,257.621344 301.29283,243.258843 C301.563018,243.023993 301.563018,243.023993 301.833157,242.789169 C318.064982,228.678552 324.494141,221.865813 328.283131,212.808768 C333.231897,200.979442 330.024593,188.918351 316.746608,175.142421 C298.131073,155.828774 285.41702,148.857653 272.080136,149.548421 C267.474497,149.786965 262.716385,150.879362 256.409094,152.990844 C253.517868,153.958735 241.137433,158.511863 237.779171,159.665403 C229.752178,162.42262 222.422827,164.506821 214.43911,166.152179 C203.655972,168.374467 199.237293,172.924949 199.797888,179.808976 C200.252688,185.39387 203.628505,191.943848 210.536862,202.025601 C211.314874,203.160997 212.121929,204.321968 213.202925,205.864961 C222.647599,219.346102 225.177776,223.433193 226.444471,228.641058 C228.186395,235.802776 224.192615,239.895033 213.288125,240.776566 C187.831364,242.834524 155.105639,253.842138 131.801515,267.887389 C106.793122,282.959791 97.6528083,298.197883 109.999533,308.767096 C115.268948,313.277894 120.397688,316.040813 125.807838,317.433404 C133.19964,319.336079 137.703633,319.028027 154.483842,316.470634 C175.267359,313.303117 188.921059,313.295811 208.24816,318.550679 Z" transform="scale(1 -1) rotate(25.139 1275.692 0)"/>
    <path d="M208.567527,315.647209 C227.076019,320.684897 239.310898,320.508793 247.771957,315.62638 C254.79953,311.571153 259.069084,304.945854 264.459858,291.597688 C264.988472,290.288778 265.52443,288.933219 266.264542,287.040591 C266.467297,286.522102 267.185213,284.682933 267.186041,284.680812 C267.559443,283.724789 267.846512,282.991929 268.129966,282.271999 C269.68943,278.311194 270.940393,275.26132 272.275368,272.223035 C276.188003,263.318222 282.356651,256.84282 298.296201,242.9779 C298.556686,242.751322 298.556686,242.751322 298.81712,242.52477 C314.471264,228.906564 320.671196,222.331787 324.323877,213.592507 C329.093658,202.180491 326.000621,190.544208 313.195632,177.249203 C295.238839,158.605246 282.977934,151.877399 270.117967,152.543903 C265.678076,152.774013 261.090658,153.827749 255.009364,155.864595 C252.220641,156.798639 240.280976,161.191949 237.043251,162.304692 C229.298451,164.966428 222.227102,166.978228 214.52407,168.566217 C204.130531,170.708858 199.875528,175.094231 200.416324,181.730167 C200.855374,187.117615 204.111551,193.439099 210.775029,203.169924 C211.525374,204.265669 212.30375,205.386136 213.346257,206.875196 C222.459819,219.892511 224.900895,223.838227 226.124016,228.868761 C227.807803,235.793954 223.946944,239.753006 213.418511,240.603772 C188.865634,242.587804 157.301647,253.209892 134.825788,266.764682 C110.712496,281.306977 101.903832,296.004616 113.801547,306.197358 C118.884776,310.552147 123.831613,313.218817 129.049855,314.562465 C136.17513,316.397154 140.518271,316.100137 156.696815,313.634083 C176.74802,310.57773 189.920573,310.571835 208.567527,315.647209 Z" transform="scale(1 -1) rotate(23.299 1361.808 0)"/>
    <path d="M208.888549,312.743121 C226.714698,317.600682 238.496081,317.432051 246.641172,312.728399 C253.405881,308.821894 257.516181,302.437603 262.706755,289.571805 C263.215748,288.310173 263.731791,287.003632 264.44454,285.179099 C264.639638,284.679676 265.329788,282.909822 265.331916,282.90437 C265.691442,281.982927 265.967926,281.276371 266.240909,280.582329 C267.742647,276.764251 268.947426,273.824018 270.233122,270.894984 C274.002837,262.306935 279.945551,256.063631 295.301198,242.696277 C295.551978,242.477972 295.551978,242.477972 295.80271,242.259692 C310.879174,229.133885 316.849878,222.797066 320.366251,214.375543 C324.957056,203.380816 321.978278,192.169317 309.646274,179.355218 C292.348218,161.38093 280.540462,154.896354 268.157418,155.538595 C263.883278,155.760272 259.466556,156.775347 253.611261,158.737557 C250.925042,159.637755 239.426147,163.871249 236.30896,164.943195 C228.846351,167.509454 222.033004,169.448853 214.610656,170.979475 C204.60672,173.042467 200.515389,177.262729 201.036386,183.650588 C201.459686,188.840605 204.596227,194.933602 211.014832,204.313515 C211.73751,205.369611 212.487205,206.449573 213.491224,207.884703 C222.273673,220.438205 224.625649,224.24255 225.805195,229.095753 C227.430841,235.78442 223.70291,239.610278 213.550529,240.430276 C189.901542,242.34038 159.499297,252.576948 137.851706,265.641284 C114.633506,279.653485 106.156475,293.810693 117.605215,303.626985 C122.502257,307.825771 127.267191,310.396194 132.293525,311.690897 C139.152268,313.457599 143.334554,313.171617 158.91143,310.796902 C178.230327,307.851711 190.921738,307.84723 208.888549,312.743121 Z" transform="scale(1 -1) rotate(21.5 1460.007 0)"/>
    <path d="M209.211241,309.83852 C226.355043,314.51596 237.682922,314.354802 245.512037,309.829914 C252.01388,306.072131 255.96493,299.92884 260.955305,287.545394 C261.444675,286.331039 261.940804,285.073513 262.62619,283.317074 C262.813631,282.836719 263.476027,281.136153 263.479441,281.127393 C263.825094,280.240529 264.09099,279.560277 264.353502,278.892123 C265.797515,275.216769 266.956109,272.386174 268.192526,269.566388 C271.819314,261.295092 277.536095,255.283878 292.307834,242.414076 C292.54891,242.204042 292.54891,242.204042 292.789938,241.994034 C307.288723,229.360613 313.030198,223.261747 316.410266,215.15797 C320.822102,204.580509 317.957578,193.793768 306.098545,181.460553 C289.459221,164.155911 278.104615,157.914602 266.198502,158.532583 C262.090115,158.745827 257.844091,159.722241 252.214797,161.609815 C249.631084,162.476166 238.572962,166.549847 235.576309,167.580996 C228.395892,170.051781 221.840547,171.918783 214.698882,173.392039 C205.084553,175.375382 201.156889,179.430529 201.658087,185.570328 C202.065638,190.562928 205.082546,196.42745 211.256284,205.456467 C211.951296,206.472915 212.672312,207.512374 213.637843,208.893574 C222.089175,220.983277 224.352051,224.646257 225.488021,229.322131 C227.055522,235.774268 223.460528,239.466945 213.684193,240.256173 C190.939101,242.092348 161.698603,251.9434 140.879286,264.517293 C118.556165,277.999412 110.410751,291.616216 121.410551,301.056082 C126.12141,305.098872 130.704439,307.573048 135.538862,308.818805 C142.13107,310.517518 146.152499,310.24257 161.127703,307.959195 C179.714296,305.125166 191.924568,305.1221 209.211241,309.83852 Z" transform="scale(1 -1) rotate(19.748 1572.667 0)"/>
    <path d="M209.53561,306.933513 C225.997058,311.430837 236.871424,311.277153 244.384554,306.931032 C250.623531,303.32197 254.415333,297.419671 259.20551,285.518558 C259.675258,284.351479 260.151472,283.142968 260.809494,281.45462 C260.989277,280.993334 261.623932,279.362029 261.628621,279.349983 C261.960399,278.497697 262.215708,277.84375 262.467749,277.201482 C263.854034,273.668849 264.966443,270.94789 266.15358,268.237348 C269.637437,260.282794 275.128283,254.50366 289.31611,242.131392 C289.547481,241.92963 289.547481,241.92963 289.778807,241.727894 C303.699913,229.586843 309.212158,223.725924 312.455923,215.939883 C316.688801,205.779662 313.938522,195.417648 302.552445,183.565295 C286.571849,166.93027 275.670392,160.932226 264.24122,161.525948 C260.298589,161.73076 256.223264,162.668512 250.819973,164.481451 C248.33877,165.313956 237.721421,169.227825 234.845302,170.218179 C227.947075,172.593494 221.649731,174.388101 214.788749,175.803992 C205.564031,177.707684 201.800028,181.597714 202.281427,187.489472 C202.67323,192.28467 205.570509,197.920728 211.499387,206.59887 C212.166734,207.57567 212.85907,208.574627 213.786114,209.9019 C221.906327,221.52782 224.080103,225.04944 225.172497,229.547987 C226.681848,235.76359 223.2198,239.3231 213.819506,240.081558 C191.978314,241.843802 163.89957,251.309345 143.90853,263.392805 C122.480477,276.344858 114.666659,289.421287 125.21756,298.484751 C129.742238,302.371552 134.143361,304.749483 138.785871,305.946294 C145.111541,307.577014 148.972108,307.313102 163.345638,305.121066 C181.199929,302.398197 192.929068,302.396549 209.53561,306.933513 Z" transform="scale(1 -1) rotate(18.046 1702.786 0)"/>
    <path d="M209.861647,304.028206 C225.640737,308.34542 236.061577,308.19921 243.258712,304.03186 C249.234823,300.571519 252.867381,294.910201 257.45736,283.491401 C257.907485,282.371596 258.363784,281.2121 258.994443,279.59184 C259.166567,279.149626 259.773496,277.587547 259.779445,277.572245 C260.097348,276.754536 260.34207,276.126891 260.583639,275.510509 C261.912196,272.120593 262.978419,269.509266 264.116274,266.907967 C267.457195,259.270141 272.722105,253.723076 286.326013,241.848322 C286.547681,241.654832 286.547681,241.654832 286.769303,241.461368 C300.112732,229.81267 305.395747,224.189692 308.50321,216.721373 C312.557141,206.978364 309.921099,197.041042 299.007961,185.669523 C283.686086,169.704087 273.23778,163.949303 262.285558,164.518768 C258.508686,164.715148 254.604064,165.61424 249.426777,167.352543 C247.048087,168.151201 236.871512,171.905262 234.115926,172.854822 C227.49989,175.13467 221.460546,176.856885 214.880244,178.215413 C206.045143,180.039452 202.444795,183.764362 202.906396,189.408099 C203.282451,194.005915 206.060106,199.413523 211.744132,207.74081 C212.383814,208.677965 213.047471,209.636421 213.936028,210.909768 C221.725118,222.071924 223.809796,225.452191 224.858612,229.773412 C226.309808,235.752479 222.980718,239.178836 213.956457,239.906522 C193.019171,241.594834 166.102187,250.674875 146.93943,262.267913 C126.40643,274.689917 118.924187,287.226004 129.026235,295.913097 C133.364734,299.643918 137.583951,301.925605 142.034545,303.073469 C148.093673,304.636194 151.793375,304.383316 165.565224,302.282621 C182.687219,299.67091 193.935231,299.670683 209.861647,304.028206 Z" transform="scale(1 -1) rotate(16.399 1854.183 0)"/>
    <path d="M210.189336,301.122703 C225.286059,305.259814 235.253362,305.121079 242.134491,301.132506 C247.847734,297.820885 251.321052,292.400536 255.710835,281.464025 C256.141336,280.391492 256.57772,279.281009 257.181015,277.728833 C257.34548,277.305695 257.924699,275.812806 257.931891,275.794278 C258.235919,275.011145 258.470054,274.409802 258.701152,273.819304 C259.971979,270.572101 260.992014,268.070403 262.080586,265.578342 C265.278564,258.25723 270.317538,252.94222 283.337521,241.564959 C283.549485,241.379741 283.549485,241.379741 283.761404,241.194547 C296.527158,230.038183 301.58094,224.653139 304.552105,217.502528 C308.427101,208.176697 305.905285,198.664029 295.465068,187.773313 C280.801907,172.477431 270.806753,166.965903 260.331492,167.511114 C256.720383,167.699063 252.986467,168.559493 248.035187,170.223161 C245.759012,170.987973 236.023214,174.582229 233.388159,175.490994 C227.054312,177.675382 221.272968,179.325208 214.973346,180.626374 C206.527866,182.37076 203.091165,185.930545 203.532968,191.326286 C203.893277,195.726741 206.551312,200.905914 211.990497,208.882369 C212.602515,209.779881 213.237493,210.697838 214.087564,211.917261 C221.545526,222.615673 223.541107,225.854595 224.546343,229.998492 C225.939379,235.741018 222.743259,239.034241 214.095024,239.731154 C194.061651,241.345532 168.306435,250.040078 149.971968,261.142707 C130.334004,273.034683 123.18331,285.030466 132.836558,293.34122 C136.98888,296.916071 141.02619,299.101516 145.284866,300.200431 C151.077447,301.695157 154.616278,301.453315 167.786443,299.44396 C184.176147,296.943405 194.943036,296.944603 210.189336,301.122703 Z" transform="scale(1 -1) rotate(14.811 2031.783 0)"/>
    <path d="M210.518647,298.217105 C224.932996,302.17412 234.446748,302.042862 241.011858,298.23307 C246.462232,295.070169 249.776314,289.890776 253.965901,279.436527 C254.376779,278.411265 254.793247,277.349794 255.369179,275.865697 C255.525982,275.461637 256.07751,274.037898 256.085928,274.016178 C256.376081,273.26762 256.599628,272.692578 256.820254,272.127963 C258.033349,269.023469 259.007197,266.631394 260.046484,264.248567 C263.101512,257.244152 267.914547,252.161182 280.350598,241.281389 C280.552858,241.104442 280.552858,241.104442 280.755075,240.92752 C292.943154,230.263467 297.767704,225.116348 300.602574,218.283428 C304.298647,209.374738 301.891046,200.286678 291.92373,189.876732 C277.919274,175.250364 268.377273,169.982087 258.378986,170.503045 C254.933644,170.682564 251.370436,171.504334 246.645167,173.093366 C244.471512,173.824332 235.176491,177.258787 232.661966,178.126759 C226.610307,180.215691 221.086962,181.793131 215.068017,183.036939 C207.012166,184.70167 203.739105,188.096325 204.16111,193.244097 C204.505675,197.447214 207.044095,202.39797 212.238449,210.023623 C212.822802,210.881492 213.429103,211.758953 214.240688,212.924453 C221.367518,223.159146 223.274004,226.256732 224.235659,230.223307 C225.570526,235.729287 222.507392,238.889396 214.235173,239.555535 C195.105722,241.095975 170.512281,249.405036 153.006111,260.017272 C134.263165,271.379241 127.443992,282.834763 136.6485,290.769217 C140.614648,294.188109 144.470049,296.277314 148.536803,297.327279 C154.062832,298.754003 157.440788,298.523196 170.009262,296.605183 C185.666681,294.215781 195.952456,294.218407 210.518647,298.217105 Z" transform="scale(1 -1) rotate(13.286 2242.028 0)"/>
    <path d="M210.849543,295.311514 C224.58151,299.088442 233.641692,298.96466 239.890769,295.333656 C245.078274,292.319475 248.233125,287.381022 252.222517,277.409004 C252.613772,276.43101 253.010324,275.418549 253.558891,274.002528 C253.708032,273.61755 254.231889,272.262913 254.241514,272.238041 C254.517791,271.524057 254.73075,270.975313 254.940903,270.436581 C256.096266,267.474789 257.023923,265.192333 258.013925,262.918735 C260.925994,256.230997 265.51309,251.380051 277.365199,240.997697 C277.557756,240.829021 277.557756,240.829021 277.75027,240.660369 C289.360677,230.488602 293.955991,225.579399 296.65457,219.06415 C300.171739,210.572558 297.878339,201.909056 288.383897,191.979837 C275.038139,178.022939 265.949291,172.997907 256.427993,173.494616 C253.148423,173.665705 249.755928,174.448814 245.256672,175.963212 C243.185541,176.660331 234.3313,179.934989 231.937302,180.762169 C226.167831,182.755652 220.902484,184.260711 215.164215,185.447161 C207.497999,187.032236 204.388568,190.261756 204.790776,195.161592 C205.119597,199.167399 207.53841,203.889757 212.487945,211.16464 C213.044635,211.982869 213.622258,212.819834 214.395358,213.931416 C221.191052,223.702416 223.008443,226.658676 223.926514,230.447931 C225.203207,235.717361 222.273074,238.744379 214.376861,239.379741 C196.15134,240.846242 172.719686,248.769828 156.041822,258.891688 C138.193871,269.723678 131.706186,280.638988 140.462023,288.197186 C144.242,291.460131 147.915491,293.453098 151.79032,294.454111 C157.049791,295.812829 160.266864,295.593057 172.233642,293.766386 C187.158782,291.488136 196.963451,291.492194 210.849543,295.311514 Z" transform="scale(1 -1) rotate(11.828 2493.469 0)"/>
    <path d="M211.181979,292.406024 C224.231552,296.002876 232.838147,295.886573 238.771173,292.434364 C243.695806,289.568901 246.691433,284.87137 250.480631,275.381546 C250.852263,274.450818 251.228897,273.487366 251.7501,272.139415 C251.891577,271.773523 252.387789,270.487935 252.398595,270.459954 C252.660997,269.780542 252.863367,269.258096 253.063048,268.745244 C254.160675,265.926149 255.042141,263.753306 255.982855,261.588932 C258.751956,255.217848 263.11311,250.598907 274.381268,240.713958 C274.564122,240.553552 274.564122,240.553552 274.746934,240.39317 C285.77967,230.713659 290.145748,226.042361 292.70804,219.84476 C296.046321,211.770215 293.867108,203.531212 284.845513,194.082674 C272.15844,180.795192 263.522747,176.013399 254.478455,176.485862 C251.364663,176.648522 248.142885,177.392971 243.869647,178.832735 C241.901045,179.496007 233.487585,182.610872 231.214112,183.397262 C225.726828,185.295304 220.719478,186.727986 215.261882,187.857083 C207.985311,189.362499 205.039499,192.426877 205.42191,197.078813 C205.73499,200.887342 208.034202,205.381326 212.738933,212.305476 C213.26796,213.084067 213.816906,213.88054 214.551523,214.938205 C221.016073,224.245545 222.744371,227.060492 223.618857,230.67243 C224.837365,235.705304 222.040254,238.599258 214.520034,239.203841 C197.198455,240.596398 174.928599,248.134522 159.079049,257.766026 C142.12607,268.068066 135.969835,278.443222 144.27708,285.625215 C147.87089,288.732229 151.36247,290.628961 155.045369,291.58102 C160.038274,292.871726 163.094458,292.662989 174.459532,290.927662 C188.652402,288.760559 197.975974,288.766055 211.181979,292.406024 Z" transform="scale(1 -1) rotate(10.441 2797.65 0)"/>
    <path d="M211.515901,289.500734 C223.883068,292.917521 232.036053,292.808697 237.653009,289.535291 C242.314769,286.818546 245.151178,282.361916 248.740184,273.354244 C249.092192,272.470779 249.448909,271.556333 249.942747,270.276445 C250.076558,269.929645 250.545151,268.713046 250.557113,268.682006 C250.805639,268.037165 250.99742,267.541014 251.186628,267.054041 C252.226518,264.377636 253.06179,262.314398 253.953213,260.259242 C256.579335,254.204785 260.714546,249.817825 271.39874,240.430242 C271.571891,240.278106 271.571891,240.278106 271.745002,240.125994 C282.200069,230.938704 286.33691,226.505298 288.762919,220.625319 C291.922335,212.967763 289.85729,205.153189 281.308508,196.185278 C269.280108,183.56715 261.097572,179.028587 252.530306,179.476808 C249.582297,179.631041 246.531242,180.33683 242.484026,181.701959 C240.61796,182.331385 232.645284,185.286464 230.492334,186.032065 C225.287234,187.834673 220.53788,189.194985 215.360955,190.266731 C208.474039,191.692486 205.691832,194.591716 206.054448,198.995794 C206.351787,202.607083 208.531408,206.87272 212.991351,213.44618 C213.492717,214.185137 214.012987,214.941121 214.709121,215.944872 C220.842521,224.78859 222.481727,227.462235 223.312625,230.89686 C224.472939,235.693171 221.808872,238.454092 214.66463,239.027894 C198.247006,240.346504 177.138962,247.49918 162.117738,256.640352 C146.059701,266.412478 140.234872,276.247547 148.093617,283.053395 C151.501265,286.004494 154.810932,287.804995 158.301896,288.708097 C163.028227,289.930786 165.923514,289.733085 176.686874,288.089101 C190.147483,286.033143 198.989969,286.040083 211.515901,289.500734 Z" transform="scale(1 -1) rotate(9.128 3170.472 0)"/>
    <path d="M211.851251,286.595737 C223.535998,289.832474 231.235346,289.731132 236.536208,286.636538 C240.935094,284.06851 243.612293,279.852755 247.001109,271.327186 C247.333492,270.490979 247.670291,269.625538 248.136764,268.413706 C248.262907,268.086004 248.703912,266.938322 248.717,266.904282 C248.951649,266.294009 249.132841,265.824152 249.311576,265.363055 C250.293725,262.829331 251.082801,260.87569 251.924932,258.929744 C254.40806,253.191883 258.317325,249.036878 268.417542,240.146615 C268.580991,240.002748 268.580991,240.002748 268.744401,239.858905 C278.621802,231.163795 282.529402,226.968265 284.819134,221.405878 C287.799711,214.165241 285.848812,206.775014 277.772805,198.287665 C266.403064,186.338819 258.673685,182.043476 250.583469,182.46746 C247.801252,182.613268 244.920925,183.280396 241.099736,184.570892 C239.336212,185.166471 231.804324,187.96177 229.771893,188.666584 C224.848978,190.37377 220.357617,191.661718 215.46136,192.676117 C208.964111,194.022207 206.345494,196.756281 206.688314,200.912553 C206.969917,204.326644 209.029956,208.363967 213.245131,214.586789 C213.718836,215.286114 214.210431,216.001612 214.868083,216.951455 C220.670326,225.331593 222.220443,227.863955 223.007749,231.12127 C224.109857,235.68101 221.578861,238.308936 214.81058,238.851954 C199.296925,240.096611 179.350708,246.863856 165.157824,255.514724 C149.994696,264.756977 144.501221,274.052038 151.911575,280.481812 C155.133066,283.277018 158.260817,284.98129 161.55984,285.835433 C166.019589,286.990098 168.753968,286.803432 178.915605,285.250794 C191.643962,283.305976 200.005376,283.314366 211.851251,286.595737 Z" transform="scale(1 -1) rotate(7.892 3634.307 0)"/>
    <path d="M212.187965,283.691129 C223.190275,286.747834 230.435955,286.653974 235.420695,283.738206 C239.556705,281.318893 242.074705,277.343984 245.263332,269.300457 C245.576089,268.511505 245.892969,267.695065 246.332077,266.55128 C246.45055,266.242683 246.864003,265.163837 246.878182,265.126863 C247.098954,264.551156 247.269555,264.10759 247.437817,263.672367 C248.362221,261.281313 249.105099,259.437259 249.897934,257.600515 C252.238053,252.179213 255.92137,248.25613 265.437593,239.863132 C265.59134,239.727534 265.59134,239.727534 265.745049,239.591959 C275.044787,231.38898 278.723144,227.431308 280.876606,222.186474 C283.678372,215.362675 281.841597,208.396698 274.238317,200.389834 C263.527217,189.110184 256.250997,185.05805 248.63786,185.457802 C246.021443,185.595186 243.311852,186.223654 239.716696,187.439517 C238.055723,188.001249 230.964627,190.636777 229.052711,191.300806 C224.411978,192.912582 220.178609,194.128174 215.563016,195.085231 C209.455448,196.351653 207.000403,198.920561 207.323429,202.829085 C207.589298,206.046033 209.529768,209.855079 213.500197,215.727323 C213.946242,216.387021 214.409163,217.062037 215.028336,217.957976 C220.499411,225.874588 221.960441,228.265685 222.704153,231.345695 C223.748039,235.668855 221.350147,238.163829 214.957806,238.67606 C200.348139,239.846759 181.563768,246.228594 168.199239,254.389191 C153.930979,263.101621 148.768797,271.856768 155.730888,277.910551 C158.766229,280.549887 161.712062,282.157935 164.819137,282.963117 C169.012291,284.049749 171.585751,283.874119 181.145652,282.412828 C193.141772,280.579144 201.022129,280.588994 212.187965,283.691129 Z" transform="scale(1 -1) rotate(6.737 4221.447 0)"/>
    <path d="M212.525979,280.787015 C222.845831,283.663706 229.637804,283.577332 234.30639,280.840403 C238.179522,278.569803 240.538333,274.835704 243.526774,267.274147 C243.819905,266.532445 244.116865,265.765002 244.528607,264.689254 C244.639406,264.399772 245.02535,263.389665 245.040579,263.349835 C245.247474,262.808691 245.407484,262.391413 245.565271,261.982061 C246.431927,259.733665 247.128603,257.999187 247.872139,256.271633 C250.06923,251.166845 253.526594,247.475646 262.458803,239.579847 C262.602849,239.452516 262.602849,239.452516 262.746858,239.325209 C271.468937,231.614303 274.918047,227.894466 276.935248,222.967141 C279.558239,216.56008 277.835556,210.018238 270.704949,202.491765 C260.652468,191.881206 253.829409,188.072268 246.693385,188.447795 C244.242779,188.576756 241.703932,189.166566 238.334817,190.307796 C236.776406,190.835681 230.126105,193.311447 228.3347,193.934694 C223.976147,195.451075 220.000768,196.59432 215.665834,197.49404 C209.947966,198.68079 207.65647,201.084521 207.959702,204.745371 C208.209842,207.765236 210.030755,211.346051 213.756467,216.867792 C214.174854,217.487868 214.609103,218.122407 215.189797,218.964447 C220.329694,226.417596 221.70164,228.667451 222.401752,231.570163 C223.387402,235.656731 221.12265,238.018807 215.106225,238.500245 C201.400567,239.596981 183.778066,245.593428 171.24191,253.263794 C157.86847,261.446461 153.037509,269.661808 159.551489,275.339701 C162.400688,277.823198 165.1646,279.335027 168.079718,280.091242 C172.006264,281.109833 174.418791,280.945239 183.376942,279.575296 C194.640839,277.852741 202.040158,277.864059 212.525979,280.787015 Z" transform="scale(1 -1) rotate(5.666 4979.896 0)"/>
    <path d="M212.865226,277.883505 C222.502596,280.580208 228.840815,280.501323 233.193206,277.94325 C236.803457,275.821361 239.003095,272.328026 241.791352,265.248352 C242.064857,264.553895 242.341895,263.835445 242.726271,262.827719 C242.829392,262.557364 243.187877,261.615883 243.204107,261.573287 C243.397124,261.066703 243.546542,260.675708 243.693854,260.292224 C244.502757,258.186471 245.153227,256.561554 245.847459,254.943178 C247.901498,250.15485 251.132906,246.695488 259.481076,239.296807 C259.615422,239.177743 259.615422,239.177743 259.749731,239.058703 C267.894156,231.839796 271.114017,228.357768 272.994966,223.747897 C275.439224,217.757455 273.830597,211.639605 267.172596,204.593411 C257.778708,194.651815 251.408813,191.086057 244.749942,191.437367 C242.465161,191.557909 240.097069,192.109059 236.954004,193.175658 C235.498166,193.669696 229.288667,195.985711 227.617767,196.568179 C223.541391,197.989183 219.824,199.060093 215.769719,199.902484 C210.441571,201.009556 208.313597,203.248097 208.597038,206.661359 C208.831452,209.484218 210.532828,212.836859 214.013856,218.008185 C214.404586,218.588644 214.810163,219.182712 215.352382,219.970861 C220.161087,226.960624 221.443952,229.069265 222.10046,231.794686 C223.027852,235.644651 220.896288,237.873891 215.255748,238.324532 C202.454125,239.347296 185.993521,244.958385 174.285762,252.138569 C161.807084,259.791546 157.307255,267.46723 163.37331,272.769357 C166.036377,275.09705 168.618364,276.512667 171.341515,277.219911 C175.001436,278.170448 177.253013,278.01689 185.609395,276.738297 C196.141089,275.126864 203.059393,275.139663 212.865226,277.883505 Z" transform="scale(1 -1) rotate(4.68 5983.51 0)"/>
    <path d="M213.205643,274.980731 C222.1605,277.497476 228.044908,277.426082 232.081054,275.046887 C235.428422,273.073707 237.468904,269.821082 240.056981,263.223181 C240.310858,262.57596 240.567973,261.9065 240.924981,260.96678 C241.02042,260.715565 241.351506,259.842574 241.36868,259.79732 C241.547818,259.325291 241.686643,258.960576 241.823478,258.602954 C242.574623,256.639826 243.178881,255.124453 243.823803,253.615237 C245.734763,249.143303 248.740208,245.91572 256.50431,239.014059 C256.628956,238.90326 256.628956,238.90326 256.753567,238.792485 C264.320343,232.065489 267.310949,228.821236 269.055658,224.52875 C271.321236,218.95478 269.826622,213.260749 263.641144,206.694694 C254.905817,197.421903 248.989088,194.099303 242.807422,194.426408 C240.688481,194.538532 238.491158,195.051024 235.574154,196.042991 C234.220903,196.503183 228.452214,198.659462 226.901812,199.201154 C223.10761,200.526804 219.648202,201.525394 215.874569,202.310463 C210.936168,203.337852 208.971681,205.411186 209.235333,208.576969 C209.454026,211.202915 211.035886,214.32745 214.27227,219.148472 C214.635347,219.689322 215.012255,220.242926 215.516,220.977193 C219.993497,227.503665 221.187286,229.471126 221.800184,232.019266 C222.669292,235.632612 220.670974,237.729095 215.406281,238.148933 C203.508726,239.097714 188.210052,244.323482 177.330719,251.013544 C165.746731,258.136921 161.577927,265.273113 167.196284,270.199625 C169.67323,272.371559 172.073289,273.690972 174.604459,274.349239 C177.997734,275.231708 180.088341,275.089186 187.842933,273.901945 C197.642446,272.401624 204.079764,272.41592 213.205643,274.980731 Z" transform="scale(1 -1) rotate(3.784 7350.719 0)"/>
    <path d="M213.547173,272.078852 C221.819477,274.415677 227.250003,274.351779 230.969841,272.151489 C234.054324,270.327014 235.935671,267.315029 238.323572,261.198765 C238.557821,260.598771 238.79501,259.978293 239.12465,259.106559 C239.2124,258.874504 239.516158,258.069837 239.534208,258.022054 C239.699466,257.584574 239.827696,257.246133 239.954054,256.914368 C240.647432,255.093841 241.205473,253.68799 241.801079,252.287914 C243.568923,248.13229 246.348398,245.136414 253.528394,238.731648 C253.643341,238.629113 253.643341,238.629113 253.758254,238.526601 C260.74739,232.291405 263.508735,229.284885 265.11722,225.309699 C267.204181,220.152013 265.823525,214.881583 260.110468,208.795492 C252.033661,200.191309 246.570101,197.111841 240.865703,197.414752 C238.912624,197.518463 236.886084,197.992297 234.195155,198.909635 C232.944512,199.335979 227.61664,201.332541 226.186728,201.833463 C222.674696,203.063786 219.473268,203.990073 215.980273,204.717832 C211.431651,205.665529 209.630609,207.573637 209.874475,210.492077 C210.077455,212.921225 211.539825,215.817741 214.531617,220.288597 C214.867042,220.789847 215.215284,221.302997 215.680559,221.983392 C219.826828,228.046694 220.931546,229.873019 221.500825,232.243889 C222.31162,235.620597 220.44662,237.584422 215.557727,237.973448 C204.564279,238.848235 190.427579,243.688727 180.376706,249.888741 C169.687319,256.482631 165.849407,263.079544 171.020348,267.630633 C173.311188,269.646865 175.529313,270.870083 177.868487,271.479365 C180.995091,272.293748 182.924702,272.162262 190.077475,271.066378 C199.144837,269.677157 205.101203,269.692969 213.547173,272.078852 Z" transform="scale(1 -1) rotate(2.978 9281.182 0)"/>
    <path d="M213.889768,269.178075 C221.479471,271.335028 226.456022,271.278631 229.859474,269.257282 C232.681068,267.581506 234.403309,264.810072 236.591039,259.175268 C236.805657,258.62249 237.022919,258.050986 237.325189,257.247211 C237.405242,257.03434 237.511562,256.751141 237.700602,256.247639 C237.851979,255.844702 237.969612,255.532527 238.085491,255.226611 C238.721093,253.548656 239.232909,252.252298 239.779189,250.961337 C241.403872,247.121916 243.957367,244.357655 250.55321,238.449625 C250.658459,238.355352 250.658459,238.355352 250.763675,238.261102 C257.175179,232.517561 259.707258,229.74872 261.179537,226.090723 C263.087962,221.349087 261.821195,216.50198 256.580428,210.895627 C249.162088,202.959798 244.151702,200.12343 238.924653,200.402163 C237.137461,200.497465 235.281727,200.932643 232.816891,201.775352 C231.668877,202.167849 226.781836,204.004716 225.472402,204.464874 C222.242535,205.599907 219.299081,206.453915 216.086712,207.124377 C211.927914,207.992371 210.290261,209.73523 210.514344,212.406498 C210.701621,214.638997 212.044534,217.307605 214.791799,221.428472 C215.099576,221.890134 215.419154,222.362841 215.845963,222.989378 C219.660979,228.589662 220.676633,230.274907 221.202284,232.468523 C221.954727,235.608572 220.223138,237.439863 215.709981,237.798067 C205.620693,238.598843 192.646022,243.054117 183.423655,248.764181 C173.628756,254.828729 170.121567,260.886635 174.845448,265.062545 C176.950203,266.923147 178.986386,268.050183 181.133544,268.61047 C183.993444,269.356744 185.762026,269.236295 192.312945,268.23177 C200.648193,266.953635 206.123654,266.970987 213.889768,269.178075 Z" transform="scale(1 -1) rotate(2.265 12133.18 0)"/>
    <path d="M214.2334,266.278686 C221.14044,268.25583 225.662894,268.20694 228.749856,266.364579 C231.308559,264.837494 232.871731,262.306492 234.859297,257.152919 C235.16346,256.364252 236.339567,253.216046 236.2177,253.539883 C236.795512,252.004461 237.261093,250.817559 237.758037,249.63568 C239.239498,246.112324 241.567001,243.579557 247.578626,238.168056 C247.674179,238.082042 247.674179,238.082042 247.769701,237.996051 C253.603586,232.743978 255.906389,230.212744 257.242487,226.871792 C258.972481,222.545896 257.819511,218.121753 253.050866,212.994844 C246.290926,205.727036 241.733716,203.133723 236.984124,203.3883 C235.362852,203.4752 233.67795,203.871721 231.43923,204.639804 C230.393876,204.998454 225.947682,206.675655 224.758713,207.095058 C221.811003,208.134848 219.125515,208.916608 216.193759,209.52979 C212.42484,210.318068 210.950502,211.895648 211.154809,214.319969 C211.326394,216.356012 212.549895,218.796856 215.052715,222.567964 C215.332848,222.990052 215.623767,223.422333 216.012115,223.99503 C219.495848,229.132498 220.422445,230.676733 220.904457,232.693118 C221.598498,235.596479 220.000441,237.295398 215.862939,237.622767 C206.677878,238.349512 194.865308,242.419644 186.471504,247.639882 C177.570948,253.175277 174.394264,258.694533 178.671546,262.495582 C180.590241,264.20065 182.444476,265.231521 184.399589,265.742801 C186.992744,266.420935 188.600254,266.311523 194.549274,265.398364 C202.152456,264.231295 207.147071,264.250219 214.2334,266.278686 Z" transform="scale(1 -1) rotate(1.647 16603.018 0)"/>
    <path d="M214.578074,263.381093 C220.802364,265.178512 224.87056,265.137138 227.640894,263.473828 C229.936703,262.095423 231.340856,259.804694 233.128266,255.13204 C233.401529,254.417674 234.454069,251.577291 234.350595,251.854467 C234.870601,250.461527 235.289933,249.384032 235.737524,248.311188 C237.075685,245.103712 239.177177,242.802278 244.604501,237.887028 C244.69036,237.809271 244.69036,237.809271 244.776189,237.731535 C250.032471,232.970676 252.105987,230.676953 253.305938,227.652851 C254.857635,223.742284 253.818345,219.740622 249.521598,215.092761 C243.419965,208.492527 239.315935,206.14221 235.043942,206.372659 C233.588636,206.451164 232.074601,206.809031 230.062028,207.502489 C229.119375,207.827292 225.11405,209.344868 224.045525,209.723527 C221.379964,210.668137 218.952433,211.377689 216.301269,211.933617 C212.922304,212.642158 211.611183,214.054423 211.795721,216.232098 C211.951631,218.071941 213.055777,220.285214 215.314264,223.706872 C215.566759,224.089408 215.829025,224.481282 216.178919,225.000164 C219.331327,229.675086 220.168879,231.078408 220.607236,232.917591 C221.24281,235.58423 219.778448,237.150992 216.016489,237.447509 C207.735746,238.100195 197.085372,241.785286 189.520209,246.515868 C181.513805,251.522364 178.66734,256.503447 182.49863,259.930065 C184.2313,261.479726 185.903575,262.414454 187.666609,262.87671 C189.992963,263.486665 191.439345,263.388291 196.786404,262.566504 C203.657585,261.510475 208.171434,261.531015 214.578074,263.381093 Z" transform="scale(1 -1) rotate(1.126 24195.217 0)"/>
    <path d="M214.923844,260.485918 C225.030127,263.436433 228.219737,261.50699 231.397879,253.113121 C231.640232,252.473037 232.569309,249.940235 232.484099,250.170791 C232.946276,248.920262 233.31934,247.952105 233.717557,246.988234 C234.912308,244.096384 236.787764,242.026061 241.630668,237.606677 C241.706836,237.537171 241.706836,237.537171 241.782975,237.467687 C246.461677,233.19769 248.305892,231.141343 249.36974,228.433818 C250.743322,224.938009 249.817551,221.358165 245.992395,217.188802 C240.548941,211.25552 236.898095,209.148116 233.103898,209.354476 C231.81462,209.424598 230.471502,209.743812 228.685119,210.362649 C227.84522,210.653606 224.280797,212.01161 223.332689,212.349542 C220.949263,213.19906 218.779675,213.836462 216.409076,214.335167 C213.42017,214.963947 212.272127,216.210848 212.436909,218.142293 C212.577167,219.786286 213.562039,221.772257 215.576342,224.844893 C215.801207,225.187904 216.034826,225.539401 216.346276,226.004501 C219.167307,230.217254 219.915829,231.479796 220.310509,233.14182 C220.88753,235.571694 219.557087,237.006595 216.170516,237.272234 C208.794217,237.850823 199.306169,241.151013 192.569756,245.392174 C185.457239,249.870124 182.940607,254.313694 186.32673,257.366476 C187.873426,258.76091 189.363727,259.599527 190.934631,260.012734 C192.994107,260.554455 194.279284,260.467119 199.024298,259.736713 C205.163568,258.791688 209.196762,258.813904 214.923844,260.485918 Z" transform="scale(1 -1) rotate(.702 38681.517 0)"/>
    <path d="M215.27086,257.594155 C224.124804,260.21544 226.892553,258.52494 229.668091,251.09694 C229.879518,250.531112 230.685276,248.305549 230.618151,248.489538 C231.022465,247.381317 231.349234,246.5224 231.698048,245.667412 C232.749231,243.090823 234.398611,241.251292 238.656926,237.327221 C238.723407,237.26596 238.723407,237.26596 238.78986,237.204719 C242.891015,233.425075 244.50591,231.605908 245.433719,229.214563 C246.62944,226.132695 245.816958,222.973718 242.462958,219.282058 C237.677498,214.014826 234.479838,212.150214 231.163722,212.332542 C230.04056,212.394296 228.868428,212.67486 227.308295,213.219081 C226.571228,213.476192 223.447755,214.674702 222.620025,214.97193 C220.518716,215.726484 218.607049,216.291817 216.516975,216.73335 C213.918282,217.282329 212.933113,218.363806 213.078159,220.049615 C213.202799,221.498262 214.068508,223.257315 215.838842,225.981546 C216.036087,226.285072 216.24107,226.596233 216.514089,227.007599 C219.003671,230.75873 219.663185,231.88068 220.01416,233.365611 C220.532506,235.558667 219.336308,236.862129 216.324894,237.096854 C209.85322,237.60129 201.52769,240.516783 195.620178,244.268859 C189.401177,248.218773 187.213836,252.125783 190.155954,254.805587 C191.51675,256.045056 192.825058,256.787607 194.203759,257.151731 C195.99625,257.625139 197.120113,257.548841 201.262959,256.909832 C206.67045,256.075758 210.223148,256.099737 215.27086,257.594155 Z" transform="scale(1 -1) rotate(.376 71913.042 0)"/>
    <path d="M215.619445,254.707505 C223.220458,256.999901 225.56593,255.548692 227.938903,249.084823 C228.11938,248.593215 228.802024,246.674383 228.752725,246.811873 C229.099125,245.845805 229.379559,245.095979 229.678922,244.349738 C230.586302,242.08786 232.009544,240.478639 235.683013,237.049042 C235.739812,236.996015 235.739812,236.996015 235.796584,236.943009 C239.320243,233.652936 240.705792,232.070646 241.497654,229.994872 C242.51588,227.32571 241.816349,224.586172 238.932861,221.371002 C234.805108,216.76844 232.060632,215.146433 229.223028,215.304814 C228.266114,215.358224 227.265073,215.600143 225.931283,216.069753 C225.297161,216.293019 222.614715,217.332152 221.907302,217.588713 C220.088081,218.248498 218.434304,218.741889 216.624692,219.126322 C214.416446,219.59544 213.593837,220.511416 213.719181,221.952488 C213.828258,223.20654 214.574971,224.739261 216.101648,227.11602 C216.271292,227.380124 216.447653,227.65101 216.682261,228.008716 C218.840296,231.299058 219.410831,232.280704 219.718061,233.588648 C220.177557,235.54482 219.116098,236.717473 216.479484,236.92123 C210.91271,237.35143 203.749985,239.882532 198.671605,243.146037 C193.34557,246.568692 191.486725,249.940586 193.986551,252.248718 C195.161561,253.333624 196.287849,253.980178 197.47424,254.295166 C198.999584,254.700144 199.96197,254.634886 203.502467,254.087292 C208.178373,253.36409 211.250819,253.389968 215.619445,254.707505 Z" transform="scale(1 -1) rotate(.151 179271.057 0)"/>
    <path d="M215.970279,251.829119 C222.317404,253.793166 224.239947,252.581815 226.210413,247.079213 C226.359899,246.661769 226.919737,245.048867 226.887868,245.139939 C227.176274,244.315775 227.410306,243.674797 227.660147,243.037082 C228.423344,241.089033 229.620337,239.709344 232.708542,236.772859 C232.755667,236.72805 232.755667,236.72805 232.802766,236.683262 C235.74901,233.881479 236.905177,232.535564 237.561239,230.774355 C238.402526,228.515905 237.815414,226.193508 235.401418,223.452844 C231.930905,219.512692 229.639595,218.132979 227.281201,218.267552 C226.49075,218.312656 225.660966,218.515934 224.553664,218.910944 C224.022665,219.100369 221.78138,219.980311 221.194186,220.196266 C219.657005,220.7616 218.261065,221.183255 216.731812,221.51071 C214.914397,221.899869 214.253828,222.650248 214.359531,223.848031 C214.453133,224.908689 215.081116,226.216029 216.364632,228.246831 C216.506698,228.471612 216.654462,228.702326 216.850691,229.00649 C218.677036,231.837412 219.158639,232.679216 219.422066,233.81036 C219.822448,235.529577 218.896528,236.572425 216.63412,236.745126 C211.972695,237.100954 205.973237,239.248164 201.724358,242.023933 C197.290423,244.920598 195.758846,247.759722 197.81905,249.69831 C198.808468,250.629322 199.752699,251.179994 200.746604,251.445756 C202.004544,251.782117 202.805198,251.727899 205.743052,251.271755 C209.687693,250.659294 212.280283,250.687291 215.970279,251.829119 Z" transform="scale(1 -1) rotate(.025 1073876.875 0)"/>
  </g>
</svg>
